<?xml version="1.0" encoding="UTF-8"?>
<svg version="1.1" xmlns="http://www.w3.org/2000/svg" width="512" height="512">
<path d="M0 0 C0.96711914 0.19335938 1.93423828 0.38671875 2.93066406 0.5859375 C41.0471239 8.42454936 76.31810659 24.08328377 107.25488281 47.67236328 C108.96040269 48.96987547 110.67774904 50.25004428 112.3984375 51.52734375 C119.48322786 56.8263244 126.12508659 62.47493033 132.52050781 68.58789062 C133.5016484 69.5243456 134.48795247 70.45542231 135.47949219 71.38085938 C143.80142072 79.15969567 150.69465882 87.71333058 157.43603516 96.88037109 C158.92450553 98.89768295 160.43306445 100.89798094 161.94921875 102.89453125 C168.25990783 111.25837037 173.86870142 119.8669478 179 129 C179.4007373 129.70576172 179.80147461 130.41152344 180.21435547 131.13867188 C194.76989068 156.98739275 204.59034606 185.66379797 209 215 C209.17732666 216.13187744 209.35465332 217.26375488 209.53735352 218.42993164 C211.15888377 229.81383898 211.35825293 241.07619123 211.3125 252.5625 C211.31034485 253.53555084 211.3081897 254.50860168 211.30596924 255.51113892 C211.25497688 269.85664443 210.91585989 283.90536727 208 298 C207.80132324 298.97775391 207.60264648 299.95550781 207.39794922 300.96289062 C200.94825271 331.78615932 190.09862228 361.44676795 173 388 C172.57251465 388.66402832 172.1450293 389.32805664 171.70458984 390.01220703 C161.59725325 405.52709977 149.80780035 419.65367966 137 433 C136.14664062 433.89460938 135.29328125 434.78921875 134.4140625 435.7109375 C128.63629271 441.63451852 122.48732396 446.87347355 116 452 C114.92876942 452.87257203 113.85848912 453.74631172 112.7890625 454.62109375 C81.59966486 479.92458969 44.80417382 496.46032628 5.625 504.8125 C4.71169922 505.00755127 3.79839844 505.20260254 2.85742188 505.40356445 C-12.95919084 508.58005817 -28.53317252 509.37688866 -44.625 509.3125 C-45.59555328 509.31034485 -46.56610657 509.3081897 -47.56607056 509.30596924 C-61.8908522 509.25494571 -75.92682151 508.92030817 -90 506 C-91.49055908 505.69400879 -91.49055908 505.69400879 -93.01123047 505.38183594 C-131.33723331 497.27656768 -166.74642674 481.67694944 -198 458 C-198.53592773 457.59555664 -199.07185547 457.19111328 -199.62402344 456.77441406 C-208.55993811 449.9998387 -216.91457546 442.76626304 -225 435 C-225.8971875 434.1440625 -226.794375 433.288125 -227.71875 432.40625 C-233.63792164 426.63323074 -238.89597669 420.49842144 -244 414 C-244.79148438 413.01386719 -245.58296875 412.02773438 -246.3984375 411.01171875 C-271.3871671 379.36195555 -288.68122317 342.42349653 -297 303 C-297.21172852 302.02691895 -297.42345703 301.05383789 -297.64160156 300.05126953 C-304.10125901 269.08893363 -303.74240723 233.86829975 -297 203 C-296.78037598 201.97374512 -296.56075195 200.94749023 -296.33447266 199.89013672 C-289.97001526 170.88748906 -279.10897023 143.01635615 -263 118 C-262.57251465 117.33597168 -262.1450293 116.67194336 -261.70458984 115.98779297 C-251.59725325 100.47290023 -239.80780035 86.34632034 -227 73 C-226.14664063 72.10539062 -225.29328125 71.21078125 -224.4140625 70.2890625 C-218.63629271 64.36548148 -212.48732396 59.12652645 -206 54 C-204.92876942 53.12742797 -203.85848912 52.25368828 -202.7890625 51.37890625 C-170.05795158 24.82464118 -131.21809809 8.0386273 -90 0 C-89.17274414 -0.16661133 -88.34548828 -0.33322266 -87.49316406 -0.50488281 C-59.96876589 -5.79508748 -27.44355027 -5.65044377 0 0 Z M-176 109 C-177.16015625 109.97453125 -177.16015625 109.97453125 -178.34375 110.96875 C-183.05231936 114.95292407 -187.04617314 119.27489275 -191 124 C-191.76183594 124.87398438 -192.52367187 125.74796875 -193.30859375 126.6484375 C-229.36123253 168.60673473 -242.47254055 221.01079694 -238.76855469 275.3984375 C-238.22900033 281.02658048 -237.28065924 286.49628884 -236 292 C-235.82839355 292.77037598 -235.65678711 293.54075195 -235.47998047 294.33447266 C-230.28158486 317.204626 -221.36893692 339.032516 -208.625 358.75 C-208.22047607 359.3884082 -207.81595215 360.02681641 -207.39916992 360.68457031 C-206.13726622 362.62808029 -206.13726622 362.62808029 -204 365 C-200.05782447 365.40883598 -200.05782447 365.40883598 -197.77837014 363.27516413 C-196.55491124 362.0494269 -196.55491124 362.0494269 -195.30673599 360.79892731 C-194.61855414 360.11766853 -194.61855414 360.11766853 -193.91646963 359.42264694 C-192.37021786 357.88704513 -190.83873184 356.33750114 -189.30670166 354.78771973 C-188.19453169 353.67729288 -187.08148361 352.56774494 -185.9676311 351.45900583 C-182.90058694 348.40093621 -179.84620523 345.33048214 -176.79367328 342.25793576 C-173.50303984 338.95007741 -170.20090565 335.65373632 -166.90013123 332.35600281 C-161.17998519 326.63795728 -155.46722614 320.9126158 -149.75937653 315.18229675 C-141.50671381 306.89716786 -133.24306776 298.62306648 -124.97667298 290.35164124 C-111.56629596 276.93250312 -98.16488153 263.50445098 -84.76904297 250.07080078 C-71.75386505 237.01892388 -58.73450529 223.97124201 -45.70947266 210.92919922 C-44.90702174 210.12569741 -44.10457082 209.3221956 -43.27780321 208.49434525 C-39.25223937 204.46356137 -35.2265929 200.43286004 -31.20090532 196.40219975 C2.21221859 162.9475884 35.61082455 129.47851182 69 96 C65.72107555 92.60403444 62.30440197 90.13385771 58.25 87.75 C57.59386719 87.36158936 56.93773437 86.97317871 56.26171875 86.57299805 C-19.28809503 42.46344714 -110.35628358 51.82644054 -176 109 Z M110.1445536 140.7312479 C109.32473741 141.55144382 108.50492122 142.37163973 107.66026211 143.21669006 C107.20324737 143.67255096 106.74623263 144.12841185 106.27536896 144.59808671 C104.72435194 146.1464291 103.17696606 147.69835203 101.62950134 149.25024414 C100.51515589 150.36415406 99.40059094 151.47784444 98.28582388 152.59133244 C95.20740111 155.66750665 92.13212612 158.74681142 89.05732715 161.82660723 C85.74691198 165.14132157 82.43362739 168.45316545 79.12068176 171.76535034 C73.37594116 177.50956537 67.63304132 183.2556155 61.89137077 189.00289917 C53.58976958 197.31261083 45.28542417 205.61957553 36.98039598 213.92586195 C23.50768014 227.40076903 10.03720119 240.87790999 -3.43188477 254.35644531 C-16.51958371 267.45331653 -29.60832751 280.54914207 -42.69848633 293.64355469 C-43.50471241 294.45004349 -44.31093849 295.2565323 -45.14159567 296.08746016 C-49.18600709 300.13317658 -53.23043915 304.17887236 -57.27488148 308.22455788 C-90.85312188 341.81317311 -124.42773794 375.40540941 -158 409 C-156.56145988 412.04982725 -155.56364545 413.62165166 -152.67578125 415.41015625 C-151.9890332 415.8371582 -151.30228516 416.26416016 -150.59472656 416.70410156 C-149.8415918 417.15237305 -149.08845703 417.60064453 -148.3125 418.0625 C-147.12285645 418.7755127 -147.12285645 418.7755127 -145.90917969 419.50292969 C-100.9913107 445.87115768 -48.5897397 454.99502761 2.27392578 442.17480469 C37.09093708 432.73272993 67.0978633 415.9021367 92.61328125 390.38671875 C93.97936774 389.02063226 95.36022243 387.66821618 96.78125 386.359375 C126.96993546 358.09178771 147.0318657 310.82617524 149.10786438 269.87211609 C149.16257255 267.75156742 149.19019747 265.63292972 149.203125 263.51171875 C149.21013931 262.73482697 149.21715363 261.95793518 149.22438049 261.15750122 C149.24176732 258.667441 149.24823173 256.17761867 149.25 253.6875 C149.25067474 252.836185 149.25134949 251.98487 149.25204468 251.10775757 C149.23617102 238.5104529 148.84615674 226.3231645 146 214 C145.82839355 213.22817383 145.65678711 212.45634766 145.47998047 211.66113281 C139.71144481 186.28782407 129.208639 159.62917691 113 139 C111.69890967 138.88629792 111.69890967 138.88629792 110.1445536 140.7312479 Z " fill="#FC0039" transform="translate(301,3)"/>
<path d="M0 0 C7.50529059 3.60544241 12.35698828 10.45114933 17.25 17 C17.80719727 17.73911621 18.36439453 18.47823242 18.93847656 19.23974609 C20.08025305 20.75767919 21.21927091 22.27769138 22.35546875 23.79980469 C23.88412422 25.84497142 25.42496811 27.88030671 26.96875 29.9140625 C33.26772971 38.27482447 38.87325939 46.8750604 44 56 C44.4007373 56.70576172 44.80147461 57.41152344 45.21435547 58.13867188 C59.76989068 83.98739275 69.59034606 112.66379797 74 142 C74.17732666 143.13187744 74.35465332 144.26375488 74.53735352 145.42993164 C76.15888377 156.81383898 76.35825293 168.07619123 76.3125 179.5625 C76.31034485 180.53555084 76.3081897 181.50860168 76.30596924 182.51113892 C76.25497688 196.85664443 75.91585989 210.90536727 73 225 C72.70198486 226.46663086 72.70198486 226.46663086 72.39794922 227.96289062 C65.94825271 258.78615932 55.09862228 288.44676795 38 315 C37.57251465 315.66402832 37.1450293 316.32805664 36.70458984 317.01220703 C26.59725325 332.52709977 14.80780035 346.65367966 2 360 C1.14664062 360.89460938 0.29328125 361.78921875 -0.5859375 362.7109375 C-6.36370729 368.63451852 -12.51267604 373.87347355 -19 379 C-20.07123058 379.87257203 -21.14151088 380.74631172 -22.2109375 381.62109375 C-53.40033514 406.92458969 -90.19582618 423.46032628 -129.375 431.8125 C-130.28830078 432.00755127 -131.20160156 432.20260254 -132.14257812 432.40356445 C-147.95919084 435.58005817 -163.53317252 436.37688866 -179.625 436.3125 C-180.59555328 436.31034485 -181.56610657 436.3081897 -182.56607056 436.30596924 C-196.8908522 436.25494571 -210.92682151 435.92030817 -225 433 C-226.49055908 432.69400879 -226.49055908 432.69400879 -228.01123047 432.38183594 C-266.33723331 424.27656768 -301.74642674 408.67694944 -333 385 C-333.53592773 384.59555664 -334.07185547 384.19111328 -334.62402344 383.77441406 C-343.56040568 376.99948423 -351.87904741 369.72974391 -360 362 C-358.35964962 357.81687546 -355.29179567 355.01681347 -352.16288567 351.91679001 C-351.5561402 351.30773685 -350.94939473 350.6986837 -350.32426304 350.07117438 C-348.27704715 348.01863812 -346.22273785 345.97335038 -344.16842651 343.92791748 C-342.68959445 342.44821377 -341.21120176 340.96807085 -339.73321259 339.48752522 C-335.66046017 335.41028727 -331.58147499 331.33933435 -327.50147843 327.26934719 C-323.10658967 322.88307328 -318.71745943 318.49104393 -314.32763672 314.09970093 C-306.71782425 306.48883837 -299.10438728 298.8816214 -291.48839951 291.27693939 C-283.49966483 283.30003349 -275.51299693 275.32106764 -267.52908707 267.33933258 C-267.0329124 266.84329539 -266.53673773 266.3472582 -266.02552747 265.83618958 C-263.50577994 263.31711871 -260.98606935 260.79801089 -258.46637298 258.27888885 C-240.61325257 240.42997072 -222.75549837 222.5856953 -204.89501953 204.74414062 C-187.54241287 187.40989881 -170.19190525 170.07356039 -152.84423828 152.734375 C-152.30962932 152.20002909 -151.77502035 151.66568318 -151.22421112 151.11514496 C-145.85551431 145.74908517 -140.48686018 140.38298267 -135.11823732 135.01684888 C-124.18145868 124.08514285 -113.24439517 113.15372184 -102.30715942 102.22247314 C-101.80426897 101.71985727 -101.30137851 101.2172414 -100.78324896 100.69939474 C-67.19360376 67.12815492 -33.59729765 33.56358124 0 0 Z M-24.8554464 67.7312479 C-25.67526259 68.55144382 -26.49507878 69.37163973 -27.33973789 70.21669006 C-27.79675263 70.67255096 -28.25376737 71.12841185 -28.72463104 71.59808671 C-30.27564806 73.1464291 -31.82303394 74.69835203 -33.37049866 76.25024414 C-34.48484411 77.36415406 -35.59940906 78.47784444 -36.71417612 79.59133244 C-39.79259889 82.66750665 -42.86787388 85.74681142 -45.94267285 88.82660723 C-49.25308802 92.14132157 -52.56637261 95.45316545 -55.87931824 98.76535034 C-61.62405884 104.50956537 -67.36695868 110.2556155 -73.10862923 116.00289917 C-81.41023042 124.31261083 -89.71457583 132.61957553 -98.01960402 140.92586195 C-111.49231986 154.40076903 -124.96279881 167.87790999 -138.43188477 181.35644531 C-151.51958371 194.45331653 -164.60832751 207.54914207 -177.69848633 220.64355469 C-178.50471241 221.45004349 -179.31093849 222.2565323 -180.14159567 223.08746016 C-184.18600709 227.13317658 -188.23043915 231.17887236 -192.27488148 235.22455788 C-225.85312188 268.81317311 -259.42773794 302.40540941 -293 336 C-291.56145988 339.04982725 -290.56364545 340.62165166 -287.67578125 342.41015625 C-286.9890332 342.8371582 -286.30228516 343.26416016 -285.59472656 343.70410156 C-284.8415918 344.15237305 -284.08845703 344.60064453 -283.3125 345.0625 C-282.12285645 345.7755127 -282.12285645 345.7755127 -280.90917969 346.50292969 C-235.9913107 372.87115768 -183.5897397 381.99502761 -132.72607422 369.17480469 C-97.90906292 359.73272993 -67.9021367 342.9021367 -42.38671875 317.38671875 C-41.02063226 316.02063226 -39.63977757 314.66821618 -38.21875 313.359375 C-8.03006454 285.09178771 12.0318657 237.82617524 14.10786438 196.87211609 C14.16257255 194.75156742 14.19019747 192.63292972 14.203125 190.51171875 C14.21013931 189.73482697 14.21715363 188.95793518 14.22438049 188.15750122 C14.24176732 185.667441 14.24823173 183.17761867 14.25 180.6875 C14.25067474 179.836185 14.25134949 178.98487 14.25204468 178.10775757 C14.23617102 165.5104529 13.84615674 153.3231645 11 141 C10.82839355 140.22817383 10.65678711 139.45634766 10.47998047 138.66113281 C4.71144481 113.28782407 -5.791361 86.62917691 -22 66 C-23.30109033 65.88629792 -23.30109033 65.88629792 -24.8554464 67.7312479 Z " fill="#E50027" transform="translate(436,76)"/>
</svg>
