<?xml version="1.0" encoding="UTF-8"?>
<svg fill="#ffff" version="1.1" xmlns="http://www.w3.org/2000/svg" width="512" height="512">
<path d="M0 0 C1.27271869 -0.00644889 2.54543738 -0.01289778 3.85672331 -0.0195421 C5.26161711 -0.01660009 6.66651052 -0.01346468 8.0714035 -0.01015663 C9.56961054 -0.0138942 11.06781563 -0.01849615 12.56601763 -0.02388728 C16.67967154 -0.03611905 20.79324414 -0.03585662 24.90691209 -0.03349853 C29.34460341 -0.03309042 33.78226865 -0.04412879 38.21994781 -0.05361366 C46.91206553 -0.07022449 55.60415611 -0.0757232 64.29628837 -0.07683842 C71.35988557 -0.07778864 78.42347381 -0.08189765 85.48706818 -0.08823967 C105.50875266 -0.10585059 125.5304157 -0.11507852 145.55210799 -0.11357872 C146.63141862 -0.11349881 147.71072926 -0.1134189 148.82274628 -0.11333656 C149.90337257 -0.1132548 150.98399886 -0.11317304 152.0973714 -0.1130888 C169.62049342 -0.11227545 187.14352958 -0.13142586 204.66662675 -0.1596133 C222.6543892 -0.18832025 240.64210974 -0.20215487 258.62989569 -0.20042574 C268.73072022 -0.19976119 278.83145468 -0.2052823 288.93225861 -0.22678185 C297.52990325 -0.24496463 306.12741698 -0.24936475 314.7250725 -0.235763 C319.11267652 -0.22921926 323.50002916 -0.22916672 327.88760948 -0.2464695 C331.90325618 -0.26214296 335.91845097 -0.25939573 339.93408626 -0.24190123 C341.38757266 -0.2388187 342.84109231 -0.24251075 344.29453951 -0.25362138 C346.26922578 -0.26771815 348.24404972 -0.25477954 350.21873474 -0.24050903 C351.86450036 -0.24116114 351.86450036 -0.24116114 353.54351377 -0.24182642 C357.49139864 0.40085622 359.6121144 1.61926573 362.60936737 4.25726891 C362.93936737 6.23726891 363.26936737 8.21726891 363.60936737 10.25726891 C370.20936737 10.25726891 376.80936737 10.25726891 383.60936737 10.25726891 C383.93936737 8.27726891 384.26936737 6.29726891 384.60936737 4.25726891 C386.15411961 2.08714869 387.12792921 1.41041209 389.66014862 0.60492516 C393.88407596 0.07237473 396.12703007 0.04193975 400.10936737 1.81976891 C402.60936737 4.25726891 402.60936737 4.25726891 403.60936737 10.25726891 C409.87936737 9.92726891 416.14936737 9.59726891 422.60936737 9.25726891 C424.09436737 6.28726891 424.09436737 6.28726891 425.60936737 3.25726891 C429.95154581 -0.59262325 434.71776937 -0.17874371 440.22264862 -0.14116859 C441.15103043 -0.14403877 442.07941223 -0.14690895 443.03592682 -0.1498661 C444.99685527 -0.1519038 446.95780419 -0.14639458 448.91869354 -0.13384438 C451.90134104 -0.11784123 454.88262225 -0.13367493 457.86522675 -0.15288734 C459.776037 -0.15090379 461.68684641 -0.14705781 463.59764862 -0.14116859 C464.92304405 -0.15027763 464.92304405 -0.15027763 466.27521515 -0.15957069 C472.65145863 -0.08814161 478.55422634 0.71525002 483.63280487 4.94086266 C484.0788205 5.51965172 484.52483612 6.09844078 484.98436737 6.69476891 C485.67659393 7.55908531 485.67659393 7.55908531 486.38280487 8.44086266 C489.15786427 12.55042514 489.86020429 15.38894888 489.86663628 20.39901257 C489.87308517 21.66713246 489.87953406 22.93525236 489.88617837 24.24180013 C489.88323599 25.65188945 489.88010055 27.06197837 489.87679291 28.47206688 C489.88052835 29.96783512 489.88512945 31.46360141 489.89052355 32.95936459 C489.90278213 37.07560651 489.90248973 41.19176732 489.9001348 45.30802333 C489.89972735 49.74508732 489.9107589 54.18212505 489.92024994 58.61917686 C489.93687669 67.314578 489.94236025 76.00995202 489.9434747 84.70536772 C489.9444244 91.77234131 489.94853081 98.83930594 489.95487595 105.9062767 C489.97249312 125.93471183 489.9817141 145.9631255 489.980215 165.99156842 C489.98009513 167.6118365 489.98009513 167.6118365 489.97997284 169.26483727 C489.97989108 170.34633225 489.97980932 171.42782723 489.97972508 172.54209479 C489.9789121 190.07113494 489.99805157 207.60008918 490.02624957 225.12910447 C490.05496292 243.12019847 490.06879071 261.11125055 490.06706202 279.10236806 C490.06639757 289.20604878 490.07191387 299.30963945 490.09341812 309.41329956 C490.11160957 318.01572179 490.11599406 326.61801315 490.10239927 335.22044627 C490.09585924 339.61018551 490.09578961 343.99967353 490.11310577 348.38938904 C490.12879607 352.40825165 490.12601457 356.42666301 490.10853751 360.44551434 C490.10545865 361.89907832 490.10913334 363.35267564 490.12025766 364.8062003 C490.18253126 373.52040258 490.04010873 379.30526386 484.08202362 385.96430016 C478.93098404 390.00237273 475.06324952 391.51747961 468.52982521 391.45473576 C467.30093201 391.44801717 466.07203881 391.44129859 464.80590641 391.43437642 C463.44515443 391.41670859 462.08440425 391.3989021 460.7236557 391.38097191 C459.27556007 391.36950393 457.82745662 391.35899021 456.37934768 391.34934884 C453.23014587 391.32652088 450.08108605 391.2973999 446.93198395 391.26351547 C441.80720903 391.20858881 436.68238016 391.16786543 431.55745697 391.12961388 C426.0363925 391.08792068 420.5153398 391.04558182 414.99431443 390.9989599 C401.28582522 390.88406874 387.5774788 390.808322 373.8686142 390.7561245 C372.38025703 390.75036621 372.38025703 390.75036621 370.86183204 390.7444916 C361.64552034 390.70901832 352.42920047 390.67591678 343.21287751 390.64352071 C336.89207272 390.62110224 330.57127482 390.5972032 324.25048065 390.57196617 C323.20066367 390.56779264 322.15084669 390.56361911 321.06921707 390.55931912 C304.0967855 390.48955021 287.12576094 390.34436907 270.1540897 390.17283102 C252.70522426 389.99838183 235.25745812 389.91242603 217.8077172 389.90554124 C207.05933462 389.89842032 196.31601785 389.82281991 185.56889258 389.65699259 C178.18463149 389.54955116 170.80312461 389.52817916 163.41822697 389.57193341 C159.16701226 389.59461119 154.92456741 389.58165364 150.67469788 389.46508408 C129.65868726 388.81876455 129.65868726 388.81876455 111.98712321 398.92399869 C107.58168996 403.25712273 103.73768167 408.01858967 99.85208297 412.81691134 C94.45495737 418.68966502 87.68098427 420.19461934 79.98436737 420.56976891 C70.75030945 420.41884077 63.18641326 416.97097097 56.55858612 410.60492516 C51.66122263 404.70649738 49.47900327 398.85245167 49.60936737 391.25726891 C48.91303192 391.26615135 48.21669647 391.2750338 47.49925995 391.28418541 C40.90899871 391.36462323 34.31887621 391.42538049 27.72823334 391.46451759 C24.34057779 391.48531562 20.95333081 391.51348777 17.56591034 391.55902672 C13.66362091 391.60771583 9.76190585 391.63027819 5.85936737 391.64789391 C4.65385223 391.66853905 3.4483371 391.68918419 2.2062912 391.71045494 C-5.73994654 391.71255979 -11.30593364 390.86141507 -17.44922638 385.44086266 C-17.90426544 384.86465172 -18.3593045 384.28844078 -18.82813263 383.69476891 C-19.30121857 383.11597984 -19.7743045 382.53719078 -20.26172638 381.94086266 C-22.59762907 378.45721539 -22.5190138 375.3057581 -22.52764702 371.24136639 C-22.53272156 369.97585424 -22.5377961 368.71034209 -22.54302442 367.40648109 C-22.54362611 365.99413896 -22.54412519 364.58179678 -22.54453278 363.16945457 C-22.54854702 361.67526325 -22.55298518 360.18107302 -22.55781233 358.68688411 C-22.56978789 354.57033655 -22.57542855 350.45380071 -22.57999349 346.33723915 C-22.58594582 341.90150677 -22.59755655 337.46578844 -22.608284 333.03006554 C-22.63281586 322.31261398 -22.647436 311.59515777 -22.66034406 300.87768677 C-22.66405533 297.85137219 -22.66802861 294.82505808 -22.67209673 291.79874396 C-22.69733179 273.01163518 -22.71938808 254.22452568 -22.73182487 235.43740368 C-22.73475464 231.08495964 -22.7377163 226.73251562 -22.74073029 222.38007164 C-22.74147634 221.29827347 -22.74222239 220.21647529 -22.74299105 219.10189535 C-22.75564741 201.57345452 -22.78887386 184.04511507 -22.83053212 166.51672164 C-22.87293734 148.52678993 -22.89651825 130.53691015 -22.90174544 112.54692858 C-22.90516108 102.44372772 -22.91693437 92.34068529 -22.94984818 82.23753357 C-22.97783038 73.63400811 -22.98885604 65.03067356 -22.97765271 56.42710612 C-22.97246144 52.03718896 -22.9753831 47.64767172 -23.00011826 43.2578125 C-23.02258183 39.23755286 -23.02189384 35.2179811 -23.00291438 31.19770964 C-23.00011028 29.74476349 -23.00573585 28.29177098 -23.02072732 26.83889947 C-23.09913806 18.74371475 -22.96595591 12.48748871 -17.39063263 6.25726891 C-12.29624807 1.29350959 -6.98882075 0.00897412 0 0 Z " fill="#010102" transform="translate(22.39063262939453,45.74273109436035)"/>
<path d="M0 0 C155.76 0 311.52 0 472 0 C472 89.1 472 178.2 472 270 C363.76 270 255.52 270 144 270 C144 269.34 144 268.68 144 268 C145.28637695 266.74804687 145.28637695 266.74804687 147.17578125 265.21875 C151.11281141 261.8756123 154.70930279 258.3041893 158.29296875 254.59375 C159.42892775 253.42697748 160.56499711 252.26031241 161.70117188 251.09375 C163.45961728 249.28560026 165.21286564 247.47341078 166.95385742 245.6484375 C168.6574514 243.86640568 170.37932798 242.10391357 172.10546875 240.34375 C172.62328415 239.79182983 173.14109955 239.23990967 173.67460632 238.67126465 C175.17260742 237.16210938 175.17260742 237.16210938 178 235 C182.49321138 235.12377651 186.40424427 237.43899395 190.4375 239.3125 C204.61873216 245.70657744 218.20343848 248.21001255 233.74829102 248.29516602 C235.19175083 248.30659522 236.63517148 248.32690056 238.07836914 248.35668945 C264.58764246 248.90142139 289.51056047 238.53026715 310 222 C310.77988281 221.38640625 311.55976563 220.7728125 312.36328125 220.140625 C332.77114193 203.17636426 344.47974965 177.66111355 349 152 C349.17055908 151.22914063 349.34111816 150.45828125 349.5168457 149.6640625 C354.50612767 122.15368109 346.0095882 92.46502853 330.64453125 69.625 C326.60892844 63.92838834 321.89983944 58.95180743 317 54 C316.33484375 53.27425781 315.6696875 52.54851562 314.984375 51.80078125 C305.23150523 41.37176715 292.78890814 34.91598171 280 29 C279.14019531 28.58878906 278.28039062 28.17757812 277.39453125 27.75390625 C251.9984238 16.52017197 220.40968711 18.35294458 194.68359375 27.5 C163.63356416 40.14391449 142.25386378 63.35756311 128.82421875 93.65234375 C117.6799888 121.57746049 119.9648253 152.49132903 131 180 C132.31572461 182.75532152 133.67167316 185.42138722 135.21484375 188.0546875 C136.21547419 190.53386143 135.85371257 191.49580664 135 194 C133.85483742 195.67911148 133.85483742 195.67911148 132.39151001 197.36627197 C131.83592407 198.01124634 131.28033813 198.6562207 130.70791626 199.32073975 C130.09354706 200.01701477 129.47917786 200.71328979 128.84619141 201.43066406 C128.19954529 202.17251953 127.55289917 202.914375 126.88665771 203.67871094 C120.8111405 210.59751113 114.55674864 217.35059592 108.24727821 224.05603409 C104.0274719 228.54692607 99.88012593 233.07209672 95.86669922 237.74902344 C95.07515945 238.65907135 94.28361969 239.56911926 93.46809387 240.50674438 C92.01551017 242.18338194 90.57893905 243.87417421 89.16654968 245.58480835 C80.30083973 255.73652365 70.39722852 261.59449417 59 270 C39.53 270 20.06 270 0 270 C0 180.9 0 91.8 0 0 Z " fill="#CBF4FB" transform="translate(20,147)"/>
<path d="M0 0 C2.6875 2.375 2.6875 2.375 3.6875 8.375 C10.2875 8.375 16.8875 8.375 23.6875 8.375 C24.6775 10.685 25.6675 12.995 26.6875 15.375 C28.51697957 17.51386879 29.76846171 18.23681247 32.54724121 18.65463257 C34.90575636 18.82030326 37.24519538 18.8687521 39.609375 18.88671875 C40.7533374 18.91167419 40.7533374 18.91167419 41.92041016 18.93713379 C44.75916187 18.99480563 47.59838253 19.02715402 50.4375 19.0625 C59.96625 19.2171875 59.96625 19.2171875 69.6875 19.375 C69.6875 39.175 69.6875 58.975 69.6875 79.375 C-86.0725 79.375 -241.8325 79.375 -402.3125 79.375 C-402.3125 59.575 -402.3125 39.775 -402.3125 19.375 C-397.8407724 19.37135437 -393.3690448 19.36770874 -388.7618103 19.36395264 C-347.77371331 19.32869056 -306.78568054 19.27368075 -265.79763921 19.19707905 C-260.42775584 19.18706136 -255.05787217 19.17721727 -249.68798828 19.16748047 C-248.61892206 19.1655391 -247.54985583 19.16359772 -246.44839366 19.16159752 C-229.12862578 19.13055984 -211.80887116 19.11359193 -194.48908071 19.10180578 C-176.72295889 19.08940338 -158.95690676 19.06192259 -141.19082892 19.02038693 C-130.22446752 18.99522544 -119.25822165 18.98188465 -108.29183097 18.98357043 C-100.77607373 18.98360014 -93.26043434 18.96900961 -85.74472301 18.94283572 C-81.40578511 18.92815957 -77.0670889 18.92001257 -72.72813034 18.92919731 C-68.7566226 18.93746216 -64.78560124 18.92739072 -60.81416579 18.90266338 C-59.3766634 18.89696252 -57.93911518 18.89802182 -56.50162642 18.90648755 C-48.23320079 19.21919786 -48.23320079 19.21919786 -40.54296303 16.71756363 C-37.75611144 14.12303562 -37.75611144 14.12303562 -36.3125 8.375 C-29.7125 8.375 -23.1125 8.375 -16.3125 8.375 C-15.9825 6.395 -15.6525 4.415 -15.3125 2.375 C-11.38298196 -2.80481924 -5.45518031 -2.67612619 0 0 Z " fill="#7EB4FC" transform="translate(422.3125,47.625)"/>
<path d="M0 0 C1.16466797 -0.01224609 2.32933594 -0.02449219 3.52929688 -0.03710938 C27.0952091 -0.0764953 48.37266872 8.51292374 65.9375 24.1875 C66.75734375 24.91324219 67.5771875 25.63898438 68.421875 26.38671875 C85.32850151 42.26949676 96.16620194 65.07344357 97.31640625 88.2578125 C97.6642672 100.49787969 96.95245404 111.58040544 92.9375 123.1875 C92.62401611 124.12529297 92.62401611 124.12529297 92.30419922 125.08203125 C87.41375356 139.47129758 79.51385265 151.27632799 68.9375 162.1875 C68.13119141 163.10402344 68.13119141 163.10402344 67.30859375 164.0390625 C54.88294476 177.67924861 33.09597348 187.66795409 14.9375 189.1875 C-15.3085146 190.58845524 -15.3085146 190.58845524 -29.0625 185.1875 C-30.83367187 184.53394531 -30.83367187 184.53394531 -32.640625 183.8671875 C-45.22720789 178.88159298 -55.34119432 171.50233994 -65.0625 162.1875 C-65.69929688 161.60226562 -66.33609375 161.01703125 -66.9921875 160.4140625 C-82.71298655 145.53170607 -92.55347179 121.92343222 -93.3984375 100.4609375 C-93.81759107 73.15869382 -86.39501085 49.81944417 -67.3984375 29.55859375 C-48.97309572 10.8559475 -26.32428243 0.01423704 0 0 Z " fill="#FD7C96" transform="translate(254.0625,186.8125)"/>
<path d="M0 0 C1.86083984 1.26586914 1.86083984 1.26586914 3.7109375 2.97265625 C4.74806885 3.92519287 4.74806885 3.92519287 5.80615234 4.89697266 C9.59111199 8.52524357 13.31343464 12.20940488 17 15.9375 C17.77472656 16.71673828 18.54945313 17.49597656 19.34765625 18.29882812 C21.23410757 20.1969242 23.11816245 22.09733149 25 24 C28.74886556 22.44346929 31.08955008 20.12681671 33.9140625 17.24609375 C34.83960938 16.30958984 35.76515625 15.37308594 36.71875 14.40820312 C37.68785102 13.41831227 38.65659713 12.42807386 39.625 11.4375 C41.53065371 9.49549092 43.44035631 7.55765812 45.3515625 5.62109375 C46.19541504 4.7592749 47.03926758 3.89745605 47.90869141 3.00952148 C51.14827284 -0.10336607 53.4692568 -0.33380221 57.9609375 -0.29296875 C61.13134567 0.16254967 62.8192402 1.75315657 65 4 C66.39365023 6.78730046 66.39326684 9.22409542 66.01220703 12.27685547 C63.68636223 18.53408482 57.71106306 23.07404621 52.9375 27.5625 C51.7839813 28.6758456 50.63226797 29.79106492 49.48242188 30.90820312 C46.67535055 33.62757201 43.84488514 36.32023823 41 39 C45.78993095 44.78041748 50.96382182 50.04960655 56.3125 55.3125 C57.935873 56.9104482 59.55708364 58.51059713 61.17578125 60.11328125 C62.24179565 61.16189331 62.24179565 61.16189331 63.3293457 62.23168945 C65.22023388 64.23310741 65.97992413 65.25719285 66.0546875 68.0234375 C65.75097439 71.99811782 65.49842905 74.36138778 63 77.5625 C58.74869095 79.59958559 55.51170321 80.34367619 51 79 C46.32525708 75.46273957 42.42820466 71.2758831 38.4375 67 C37.32438996 65.84170478 36.20917302 64.68543037 35.09179688 63.53125 C32.36960428 60.71028971 29.67764012 57.86325684 27 55 C23.25113444 56.55653071 20.91044992 58.87318329 18.0859375 61.75390625 C17.16039062 62.69041016 16.23484375 63.62691406 15.28125 64.59179688 C14.31214898 65.58168773 13.34340287 66.57192614 12.375 67.5625 C10.46934629 69.50450908 8.55964369 71.44234188 6.6484375 73.37890625 C5.80458496 74.2407251 4.96073242 75.10254395 4.09130859 75.99047852 C0.58862019 79.35618343 -2.10772666 79.35624161 -6.8046875 79.265625 C-9 79 -9 79 -11.5 77.5625 C-13.76865941 73.68687351 -14.55748194 70.47803909 -14 66 C-12.78222656 64.12011719 -12.78222656 64.12011719 -11.078125 62.296875 C-10.44028076 61.60883789 -9.80243652 60.92080078 -9.14526367 60.21191406 C-5.32139717 56.26924529 -1.4666666 52.3632688 2.4375 48.5 C3.26443359 47.67757812 4.09136719 46.85515625 4.94335938 46.0078125 C6.95994959 44.00287887 8.97885236 42.00033747 11 40 C7.69663311 35.9761896 4.30466087 32.26410809 0.51171875 28.6953125 C-0.27654297 27.94636719 -1.06480469 27.19742187 -1.87695312 26.42578125 C-3.5071311 24.88580559 -5.15058221 23.35976597 -6.80664062 21.84765625 C-11.38530134 17.44640448 -13.94450421 14.40696474 -14.26367188 7.94091797 C-13.83289134 4.76989462 -12.30344055 3.10600279 -10 1 C-6.69427767 -0.65286116 -3.54676374 -0.75539513 0 0 Z " fill="#010001" transform="translate(230,242)"/>
<path d="M0 0 C0.8621814 -0.00860046 1.72436279 -0.01720093 2.6126709 -0.02606201 C3.56075119 -0.03032196 4.50883148 -0.03458191 5.48564148 -0.03897095 C6.48251984 -0.04714844 7.47939819 -0.05532593 8.50648499 -0.06375122 C11.81553033 -0.08862636 15.12453274 -0.10512596 18.43363953 -0.11953735 C20.12605805 -0.12752287 20.12605805 -0.12752287 21.85266685 -0.13566971 C27.82357988 -0.16240944 33.79447192 -0.18178246 39.76542664 -0.19619751 C45.93960543 -0.21285483 52.11325143 -0.25763991 58.28722858 -0.30856895 C63.02869293 -0.34218677 67.77002992 -0.35376895 72.5116024 -0.35942459 C74.78782922 -0.36615127 77.06404724 -0.38140982 79.34015846 -0.4053154 C82.52451429 -0.43685393 85.70742116 -0.43702037 88.89189148 -0.42959595 C89.83389908 -0.44600128 90.77590668 -0.46240662 91.74645996 -0.47930908 C96.36650138 -0.4351672 98.2387423 -0.36652971 101.9447937 2.62786865 C102.58435501 3.46145905 103.22391632 4.29504944 103.88285828 5.15390015 C104.37785828 5.64890015 104.37785828 5.64890015 104.88285828 6.15390015 C104.97060007 9.24366474 104.66326854 12.16320039 103.88285828 15.15390015 C100.3338674 18.79389079 97.95084909 20.11277339 92.88633728 20.30780029 C91.11471604 20.32603713 89.34303089 20.33855383 87.57133484 20.34677124 C86.60532349 20.35494873 85.63931213 20.36312622 84.64402771 20.37155151 C81.43718592 20.39642725 78.23038848 20.41292747 75.02348328 20.42733765 C73.3825835 20.43532316 73.3825835 20.43532316 71.70853424 20.44347 C65.91801656 20.47021153 60.12752051 20.48958292 54.33695984 20.5039978 C48.35344185 20.52064463 42.37047476 20.56542035 36.38716507 20.61636925 C31.78891868 20.65001415 27.19080345 20.66157229 22.59244537 20.66722488 C20.3868209 20.67394535 18.1812053 20.6891879 15.97570038 20.71311569 C12.88732953 20.74470888 9.80044964 20.74481235 6.71195984 20.73739624 C5.34641968 20.76200424 5.34641968 20.76200424 3.95329285 20.78710938 C-0.36643677 20.74467346 -3.23315845 20.51705255 -6.67237854 17.76000977 C-9.77561562 14.45196911 -10.13753983 12.67845289 -10.36323547 8.31015015 C-9.98619322 5.0065418 -8.51995949 3.3507621 -6.11714172 1.15390015 C-3.83153802 0.0110983 -2.54087165 0.01884735 0 0 Z " fill="#020405" transform="translate(90.11714172363281,86.84609985351563)"/>
<path d="M0 0 C3.03350208 1.43839561 4.83097994 2.68080873 6.9375 5.3125 C9.44054326 8.41515808 12.17071773 11.19204905 15 14 C5.38907133 23.63406036 -4.22452772 33.26544705 -13.84158134 42.89339352 C-18.30668448 47.36372366 -22.77084919 51.83498275 -27.23291016 56.30834961 C-31.53602156 60.62229632 -35.84154432 64.93382254 -40.14877701 69.24365425 C-41.7947482 70.89147852 -43.43983647 72.54018519 -45.0840416 74.18977165 C-47.38038323 76.4933322 -49.67979443 78.793785 -51.97998047 81.09350586 C-52.66474457 81.78186523 -53.34950867 82.47022461 -54.05502319 83.17944336 C-54.68041992 83.80346542 -55.30581665 84.42748749 -55.95016479 85.07041931 C-56.49402266 85.61519897 -57.03788052 86.15997862 -57.59821892 86.72126675 C-60.43371229 89.30786155 -63.19342724 89.38677507 -66.9609375 89.359375 C-70.38006698 88.7567698 -71.93189052 86.63213933 -74 84 C-75.50889469 80.98221063 -75.50026276 79.37677363 -75 76 C-73.66731167 74.17179108 -73.66731167 74.17179108 -71.90855408 72.23596191 C-71.27048765 71.53248123 -70.63242123 70.82900055 -69.97501945 70.10420227 C-67.02579753 66.96207652 -64.01921781 63.88770034 -60.96313477 60.84960938 C-60.29886978 60.18519836 -59.6346048 59.52078735 -58.95021057 58.83624268 C-56.7829744 56.66969579 -54.61223229 54.50669938 -52.44140625 52.34375 C-50.926615 50.83082644 -49.41204632 49.31768 -47.89768982 47.80432129 C-43.9330512 43.84348026 -39.96541749 39.88565298 -35.99713135 35.9284668 C-31.93961743 31.88122661 -27.88497254 27.83111435 -23.83007812 23.78125 C-15.88950839 15.85136888 -7.9457684 7.92467179 0 0 Z " fill="#A5BBCB" transform="translate(167,356)"/>
<path d="M0 0 C2.6875 2.4375 2.6875 2.4375 3.75 5.75 C3.67343109 10.26756566 2.85299027 12.49321414 0.6875 16.4375 C-3.31883751 19.10839167 -6.60241428 19.14443873 -11.3125 18.4375 C-14.34465675 16.23918636 -15.12904398 14.98786806 -16.3125 11.4375 C-16.69764834 7.27789789 -16.75475244 5.13900387 -14.5 1.5625 C-10.1315767 -2.6811112 -5.29471498 -2.49750707 0 0 Z " fill="#010102" transform="translate(422.3125,47.5625)"/>
<path d="M0 0 C3.60199656 2.52906142 4.76443405 4.23787487 6.0625 8.4375 C5.98097519 13.08441393 4.26303893 15.73696107 1 19 C-2.38163655 19.43117406 -5.62187646 19.46798845 -9 19 C-12.21624007 16.41131897 -12.85410446 14.50151591 -14 10.5625 C-14 6.14205512 -12.79393642 4.3527237 -10 1 C-6.77121481 -0.6143926 -3.49096318 -0.5818272 0 0 Z " fill="#030406" transform="translate(54,87)"/>
</svg>
