<?xml version="1.0" encoding="UTF-8"?>
<svg fill="#FFFF" version="1.1" xmlns="http://www.w3.org/2000/svg" width="512" height="512">
<path d="M0 0 C1.27271869 -0.00644889 2.54543738 -0.01289778 3.85672331 -0.0195421 C5.26161711 -0.01660009 6.66651052 -0.01346468 8.0714035 -0.01015663 C9.56961054 -0.0138942 11.06781563 -0.01849615 12.56601763 -0.02388728 C16.67967154 -0.03611905 20.79324414 -0.03585662 24.90691209 -0.03349853 C29.34460341 -0.03309042 33.78226865 -0.04412879 38.21994781 -0.05361366 C46.91206553 -0.07022449 55.60415611 -0.0757232 64.29628837 -0.07683842 C71.35988557 -0.07778864 78.42347381 -0.08189765 85.48706818 -0.08823967 C105.50875266 -0.10585059 125.5304157 -0.11507852 145.55210799 -0.11357872 C146.63141862 -0.11349881 147.71072926 -0.1134189 148.82274628 -0.11333656 C149.90337257 -0.1132548 150.98399886 -0.11317304 152.0973714 -0.1130888 C169.62049342 -0.11227545 187.14352958 -0.13142586 204.66662675 -0.1596133 C222.6543892 -0.18832025 240.64210974 -0.20215487 258.62989569 -0.20042574 C268.73072022 -0.19976119 278.83145468 -0.2052823 288.93225861 -0.22678185 C297.52990325 -0.24496463 306.12741698 -0.24936475 314.7250725 -0.235763 C319.11267652 -0.22921926 323.50002916 -0.22916672 327.88760948 -0.2464695 C331.90325618 -0.26214296 335.91845097 -0.25939573 339.93408626 -0.24190123 C341.38757266 -0.2388187 342.84109231 -0.24251075 344.29453951 -0.25362138 C346.26922578 -0.26771815 348.24404972 -0.25477954 350.21873474 -0.24050903 C351.86450036 -0.24116114 351.86450036 -0.24116114 353.54351377 -0.24182642 C357.37796418 0.38239004 359.57841188 1.87413697 362.60936737 4.25726891 C364.33806516 7.71466448 364.09903632 11.47702458 363.60936737 15.25726891 C361.81543069 18.12756759 360.62673461 19.74858529 357.60936737 21.25726891 C355.65512544 21.35220038 353.6975645 21.38099656 351.7410183 21.38031673 C349.85401154 21.38330331 349.85401154 21.38330331 347.92888343 21.38635021 C346.51987749 21.3834968 345.11087173 21.38055119 343.70186615 21.37752342 C342.21521172 21.37795912 340.72855737 21.378834 339.24190342 21.38011259 C335.14184582 21.38235786 331.04181413 21.37833582 326.94175982 21.37333453 C322.52593913 21.36903068 318.11011999 21.3704764 313.69429779 21.3712368 C306.03865332 21.37176208 298.38301736 21.36861489 290.72737503 21.36299896 C279.65849419 21.35488446 268.58961746 21.35226879 257.52073397 21.35101097 C239.56378522 21.34882037 221.606841 21.34216007 203.64989471 21.33270836 C186.20262932 21.32353445 168.75536516 21.31645351 151.30809784 21.31220055 C150.23330488 21.31193782 149.15851192 21.3116751 148.05114947 21.31140441 C142.6594251 21.31009941 137.26770071 21.3088357 131.87597632 21.30759251 C87.12043671 21.29721965 42.36490263 21.27932661 -2.39063263 21.25726891 C-2.39063263 40.72726891 -2.39063263 60.19726891 -2.39063263 80.25726891 C153.36936737 80.25726891 309.12936737 80.25726891 469.60936737 80.25726891 C469.60936737 60.78726891 469.60936737 41.31726891 469.60936737 21.25726891 C456.6701871 21.41533162 456.6701871 21.41533162 443.73168182 21.61762047 C442.10368144 21.62930827 440.47566932 21.63949988 438.84764862 21.64789391 C438.00955658 21.66835777 437.17146454 21.68882164 436.30797577 21.70990562 C432.22556432 21.71233744 430.15360985 21.59856975 426.61791229 19.38129234 C424.36470394 16.99853889 423.36909403 15.44812089 422.60936737 12.25726891 C422.81221724 7.388872 424.23018951 4.73583435 427.60936737 1.25726891 C430.33178195 0.34979738 431.96689837 0.12224626 434.77025604 0.09613609 C436.02252235 0.08172478 436.02252235 0.08172478 437.30008698 0.06702232 C438.20007919 0.06277245 439.10007141 0.05852257 440.02733612 0.05414391 C441.42415367 0.0455938 441.42415367 0.0455938 442.84918976 0.03687096 C444.82205317 0.02742229 446.79493236 0.0208875 448.76781464 0.01703453 C451.76801877 0.00736191 454.7675281 -0.0236491 457.7675705 -0.05523109 C459.68748832 -0.0617648 461.60741103 -0.06701383 463.52733612 -0.07085609 C464.41720718 -0.0832029 465.30707825 -0.0955497 466.2239151 -0.10827065 C472.63729554 -0.085643 478.52080822 0.6874446 483.63280487 4.94086266 C484.0788205 5.51965172 484.52483612 6.09844078 484.98436737 6.69476891 C485.67659393 7.55908531 485.67659393 7.55908531 486.38280487 8.44086266 C489.15786427 12.55042514 489.86020429 15.38894888 489.86663628 20.39901257 C489.87308517 21.66713246 489.87953406 22.93525236 489.88617837 24.24180013 C489.88323599 25.65188945 489.88010055 27.06197837 489.87679291 28.47206688 C489.88052835 29.96783512 489.88512945 31.46360141 489.89052355 32.95936459 C489.90278213 37.07560651 489.90248973 41.19176732 489.9001348 45.30802333 C489.89972735 49.74508732 489.9107589 54.18212505 489.92024994 58.61917686 C489.93687669 67.314578 489.94236025 76.00995202 489.9434747 84.70536772 C489.9444244 91.77234131 489.94853081 98.83930594 489.95487595 105.9062767 C489.97249312 125.93471183 489.9817141 145.9631255 489.980215 165.99156842 C489.98009513 167.6118365 489.98009513 167.6118365 489.97997284 169.26483727 C489.97989108 170.34633225 489.97980932 171.42782723 489.97972508 172.54209479 C489.9789121 190.07113494 489.99805157 207.60008918 490.02624957 225.12910447 C490.05496292 243.12019847 490.06879071 261.11125055 490.06706202 279.10236806 C490.06639757 289.20604878 490.07191387 299.30963945 490.09341812 309.41329956 C490.11160957 318.01572179 490.11599406 326.61801315 490.10239927 335.22044627 C490.09585924 339.61018551 490.09578961 343.99967353 490.11310577 348.38938904 C490.12879607 352.40825165 490.12601457 356.42666301 490.10853751 360.44551434 C490.10545865 361.89907832 490.10913334 363.35267564 490.12025766 364.8062003 C490.18253126 373.52040258 490.04010873 379.30526386 484.08202362 385.96430016 C478.93098404 390.00237273 475.06324952 391.51747961 468.52982521 391.45473576 C467.30093201 391.44801717 466.07203881 391.44129859 464.80590641 391.43437642 C463.44515443 391.41670859 462.08440425 391.3989021 460.7236557 391.38097191 C459.27556007 391.36950393 457.82745662 391.35899021 456.37934768 391.34934884 C453.23014587 391.32652088 450.08108605 391.2973999 446.93198395 391.26351547 C441.80720903 391.20858881 436.68238016 391.16786543 431.55745697 391.12961388 C426.0363925 391.08792068 420.5153398 391.04558182 414.99431443 390.9989599 C401.28582522 390.88406874 387.5774788 390.808322 373.8686142 390.7561245 C372.38025703 390.75036621 372.38025703 390.75036621 370.86183204 390.7444916 C361.64552034 390.70901832 352.42920047 390.67591678 343.21287751 390.64352071 C336.89207272 390.62110224 330.57127482 390.5972032 324.25048065 390.57196617 C323.20066367 390.56779264 322.15084669 390.56361911 321.06921707 390.55931912 C304.0967855 390.48955021 287.12576094 390.34436907 270.1540897 390.17283102 C252.70522426 389.99838183 235.25745812 389.91242603 217.8077172 389.90554124 C207.05933462 389.89842032 196.31601785 389.82281991 185.56889258 389.65699259 C178.18463149 389.54955116 170.80312461 389.52817916 163.41822697 389.57193341 C159.16701226 389.59461119 154.92456741 389.58165364 150.67469788 389.46508408 C129.65868726 388.81876455 129.65868726 388.81876455 111.98712321 398.92399869 C107.58168996 403.25712273 103.73768167 408.01858967 99.85208297 412.81691134 C94.45495737 418.68966502 87.68098427 420.19461934 79.98436737 420.56976891 C70.75030945 420.41884077 63.18641326 416.97097097 56.55858612 410.60492516 C51.66122263 404.70649738 49.47900327 398.85245167 49.60936737 391.25726891 C48.91303192 391.26615135 48.21669647 391.2750338 47.49925995 391.28418541 C40.90899871 391.36462323 34.31887621 391.42538049 27.72823334 391.46451759 C24.34057779 391.48531562 20.95333081 391.51348777 17.56591034 391.55902672 C13.66362091 391.60771583 9.76190585 391.63027819 5.85936737 391.64789391 C4.65385223 391.66853905 3.4483371 391.68918419 2.2062912 391.71045494 C-5.73994654 391.71255979 -11.30593364 390.86141507 -17.44922638 385.44086266 C-17.90426544 384.86465172 -18.3593045 384.28844078 -18.82813263 383.69476891 C-19.30121857 383.11597984 -19.7743045 382.53719078 -20.26172638 381.94086266 C-22.59762907 378.45721539 -22.5190138 375.3057581 -22.52764702 371.24136639 C-22.53272156 369.97585424 -22.5377961 368.71034209 -22.54302442 367.40648109 C-22.54362611 365.99413896 -22.54412519 364.58179678 -22.54453278 363.16945457 C-22.54854702 361.67526325 -22.55298518 360.18107302 -22.55781233 358.68688411 C-22.56978789 354.57033655 -22.57542855 350.45380071 -22.57999349 346.33723915 C-22.58594582 341.90150677 -22.59755655 337.46578844 -22.608284 333.03006554 C-22.63281586 322.31261398 -22.647436 311.59515777 -22.66034406 300.87768677 C-22.66405533 297.85137219 -22.66802861 294.82505808 -22.67209673 291.79874396 C-22.69733179 273.01163518 -22.71938808 254.22452568 -22.73182487 235.43740368 C-22.73475464 231.08495964 -22.7377163 226.73251562 -22.74073029 222.38007164 C-22.74147634 221.29827347 -22.74222239 220.21647529 -22.74299105 219.10189535 C-22.75564741 201.57345452 -22.78887386 184.04511507 -22.83053212 166.51672164 C-22.87293734 148.52678993 -22.89651825 130.53691015 -22.90174544 112.54692858 C-22.90516108 102.44372772 -22.91693437 92.34068529 -22.94984818 82.23753357 C-22.97783038 73.63400811 -22.98885604 65.03067356 -22.97765271 56.42710612 C-22.97246144 52.03718896 -22.9753831 47.64767172 -23.00011826 43.2578125 C-23.02258183 39.23755286 -23.02189384 35.2179811 -23.00291438 31.19770964 C-23.00011028 29.74476349 -23.00573585 28.29177098 -23.02072732 26.83889947 C-23.09913806 18.74371475 -22.96595591 12.48748871 -17.39063263 6.25726891 C-12.29624807 1.29350959 -6.98882075 0.00897412 0 0 Z M-2.39063263 101.25726891 C-2.39063263 190.02726891 -2.39063263 278.79726891 -2.39063263 370.25726891 C51.27814209 374.6678686 51.27814209 374.6678686 84.75292206 348.30109215 C86.1436089 346.71490204 87.51331286 345.11002165 88.85936737 343.48578453 C90.43301268 341.6759652 92.00859591 339.8678294 93.58592987 338.06122398 C94.75593536 336.70332756 94.75593536 336.70332756 95.94957733 335.31799889 C100.02895377 330.66569953 104.3079291 326.20378419 108.56249237 321.71234703 C114.69854335 315.16054332 120.78617442 308.57044757 126.68260956 301.80145836 C127.30416931 301.10877861 127.92572906 300.41609886 128.56612396 299.70242882 C131.8424787 296.07166554 131.8424787 296.07166554 132.5432663 291.43150902 C131.5291493 289.07051064 130.50454338 286.74599284 129.35936737 284.44476891 C122.13523319 268.92858505 119.21138436 253.25338959 119.23436737 236.19476891 C119.23491119 235.51195854 119.23545502 234.82914818 119.23601532 234.12564659 C119.27634785 223.09082877 120.14406285 212.78846461 123.60936737 202.25726891 C123.83430878 201.56117516 124.05925018 200.86508141 124.291008 200.14789391 C133.78481982 171.48338217 153.42401099 147.29178299 180.49633026 133.61810875 C209.67675481 119.50224359 242.20452107 117.06588269 272.96947479 127.65131187 C295.68194402 136.00159448 316.865761 151.4210074 329.60936737 172.25726891 C330.25260956 173.26789391 330.89585175 174.27851891 331.55858612 175.31976891 C335.54324376 181.87737691 338.71708094 188.5118159 341.42186737 195.69476891 C341.69966034 196.42043053 341.97745331 197.14609215 342.26366425 197.89374352 C346.69385424 210.22632532 348.15006552 222.53649746 348.04686737 235.56976891 C348.0423053 236.5789991 348.0423053 236.5789991 348.03765106 237.60861778 C347.96448153 248.60014438 347.02217674 258.78870498 343.60936737 269.25726891 C343.29588348 270.26152916 343.29588348 270.26152916 342.97606659 271.2860775 C338.05940705 286.71370807 330.27448622 300.11673836 319.60936737 312.25726891 C318.82561737 313.28851891 318.04186737 314.31976891 317.23436737 315.38226891 C313.12941537 319.87816871 308.4143813 323.53599453 303.60936737 327.25726891 C302.43374237 328.17379234 302.43374237 328.17379234 301.23436737 329.10883141 C276.58195943 347.34828187 245.43900277 353.60272702 215.35179901 349.43231773 C202.78803877 347.40105111 191.17553192 343.55734953 180.09764862 337.19867516 C177.69760577 335.97484672 177.69760577 335.97484672 175.66008759 337.00737572 C173.57600774 338.27760126 172.03054411 339.58864604 170.30956268 341.31415367 C169.6892215 341.93141823 169.06888031 342.54868279 168.42974091 343.18465233 C167.77229889 343.84927986 167.11485687 344.51390739 166.43749237 345.19867516 C165.75507477 345.88155098 165.07265717 346.5644268 164.36956024 347.26799583 C162.93165915 348.70891323 161.4961845 350.15225551 160.06298065 351.59784508 C157.85893319 353.82020669 155.64693044 356.0344045 153.43358612 358.24750328 C152.03858083 359.64742169 150.6440334 361.04779653 149.24999237 362.44867516 C148.58445343 363.11532692 147.91891449 363.78197868 147.2332077 364.46883202 C146.62547516 365.08294441 146.01774261 365.69705681 145.39159393 366.32977867 C144.85294708 366.87223732 144.31430023 367.41469597 143.75933075 367.97359276 C142.49815913 369.09416821 142.49815913 369.09416821 142.60936737 370.25726891 C250.51936737 370.25726891 358.42936737 370.25726891 469.60936737 370.25726891 C469.60936737 281.48726891 469.60936737 192.71726891 469.60936737 101.25726891 C313.84936737 101.25726891 158.08936737 101.25726891 -2.39063263 101.25726891 Z M165.60936737 170.25726891 C164.797258 171.05906578 163.98514862 171.86086266 163.14842987 172.68695641 C154.08150495 182.12522296 147.91220176 193.96126886 143.60936737 206.25726891 C143.21620331 207.36457359 142.82303925 208.47187828 142.41796112 209.61273766 C135.44807519 232.65950333 138.41145006 258.15974354 149.60936737 279.25726891 C150.37893768 280.76547203 150.37893768 280.76547203 151.16405487 282.30414391 C155.56903388 290.43965537 161.20679809 296.69200355 167.60936737 303.25726891 C168.19331268 303.91469078 168.777258 304.57211266 169.37889862 305.24945641 C182.84708017 320.04740778 206.17313073 329.25024799 225.79906464 330.38373375 C250.9062466 331.20571844 276.33865621 325.16208131 295.17186737 307.63226891 C297.00626886 305.86115382 298.80750006 304.06190832 300.60936737 302.25726891 C301.261633 301.67590172 301.91389862 301.09453453 302.58592987 300.49555016 C316.6341117 287.76238078 326.64226032 265.13383181 327.78636932 246.35150719 C328.1738329 227.23149164 326.95423169 211.72780357 318.60936737 194.25726891 C317.94807831 192.87281578 317.94807831 192.87281578 317.27342987 191.46039391 C313.60176457 184.27934685 308.9682614 178.26202313 303.60936737 172.25726891 C302.859133 171.41164391 302.10889862 170.56601891 301.33592987 169.69476891 C285.35857102 152.70887245 261.91019733 141.94023831 238.55077362 141.05414391 C210.25347517 140.54480543 185.57591164 150.06056275 165.60936737 170.25726891 Z M143.22599697 312.39175034 C142.69081227 312.9274798 142.15562757 313.46320927 141.60422516 314.01517296 C140.98868774 314.62651588 140.37315033 315.23785881 139.73896027 315.86772728 C139.06511795 316.5471891 138.39127563 317.22665092 137.69701385 317.9267025 C136.63096924 318.9898996 136.63096924 318.9898996 135.54338837 320.07457542 C133.18415809 322.43008655 130.83222978 324.79274723 128.48046112 327.15570641 C126.8494015 328.78795735 125.21797291 330.41983968 123.58618927 332.05136681 C120.16250555 335.47661739 116.74221689 338.9052109 113.32445526 342.33637047 C108.9354218 346.74238731 104.53984097 351.14179939 100.14192867 355.53895187 C96.7711365 358.91001553 93.40295389 362.28367611 90.03565407 365.65822792 C88.41547257 367.28159988 86.79467737 368.90435957 85.17326927 370.52650642 C82.91042295 372.79151267 80.65089607 375.05977659 78.39232635 377.32904625 C77.71645981 378.00445961 77.04059326 378.67987297 76.34424591 379.3757534 C75.73152832 379.99273598 75.11881073 380.60971855 74.48752594 381.24539757 C73.95271827 381.78188108 73.41791059 382.3183646 72.86689663 382.87110519 C70.80002811 385.14939663 70.5893181 386.43437076 70.23436737 389.56976891 C70.30246422 393.35327709 70.30246422 393.35327709 72.73436737 396.13226891 C75.93852464 398.50055906 77.63727321 399.25726891 81.60936737 399.25726891 C86.52224177 396.91897359 90.01149074 393.12361921 93.78636932 389.30731773 C94.48935654 388.60462257 95.19234375 387.90192741 95.91663361 387.17793846 C98.23174599 384.86143626 100.53969957 382.53793748 102.84764862 380.21430016 C104.45432335 378.60389407 106.06144113 376.9939299 107.66898346 375.38438988 C111.89347795 371.15226865 116.11193111 366.91417507 120.32915497 362.67481041 C124.63572388 358.34776251 128.94797829 354.02638893 133.259758 349.70453453 C141.71520246 341.22765706 150.1642756 332.74445941 158.60936737 324.25726891 C155.79260398 320.68099607 152.87151638 317.43577307 149.60936737 314.25726891 C149.05249237 313.65914391 148.49561737 313.06101891 147.92186737 312.44476891 C146.06307886 310.76300787 145.15068377 310.8133434 143.22599697 312.39175034 Z " fill="#000000" transform="translate(22.39063262939453,45.74273109436035)"/>
<path d="M0 0 C4.17774839 2.48620098 7.55419591 5.31464001 10.9609375 8.765625 C11.84394531 9.65507812 12.72695312 10.54453125 13.63671875 11.4609375 C14.54035156 12.38132813 15.44398438 13.30171875 16.375 14.25 C17.30183594 15.18585938 18.22867188 16.12171875 19.18359375 17.0859375 C21.46033607 19.38615139 23.73226171 21.69091445 26 24 C29.63323178 22.47371085 31.89312656 20.31196093 34.625 17.5 C35.49640625 16.613125 36.3678125 15.72625 37.265625 14.8125 C38.16796875 13.884375 39.0703125 12.95625 40 12 C41.78691264 10.16203271 43.5783966 8.32849577 45.375 6.5 C46.16648437 5.6853125 46.95796875 4.870625 47.7734375 4.03125 C50.75624962 1.31008807 52.88082719 0.14597906 56.875 -0.375 C60.82171864 0.09860624 62.90995187 1.55670613 66 4 C67.79533537 7.59067074 67.68707882 11.09663936 67 15 C65.73413086 16.90966797 65.73413086 16.90966797 64.02734375 18.7421875 C63.39231934 19.42909668 62.75729492 20.11600586 62.10302734 20.82373047 C58.46273657 24.59080175 54.7874431 28.31655156 51.0625 32 C50.28326172 32.77472656 49.50402344 33.54945313 48.70117188 34.34765625 C46.8030758 36.23410757 44.90266851 38.11816245 43 40 C47.64617976 45.59468217 52.62828226 50.71667472 57.8125 55.8125 C59.34212464 57.31669447 60.86958455 58.82309449 62.39453125 60.33203125 C63.06331299 60.98921143 63.73209473 61.6463916 64.42114258 62.32348633 C67.47021474 65.56115117 67.32736545 68.46621088 67.29296875 72.73828125 C66.86344199 76.0542278 65.39075646 77.74987627 63 80 C59.69427767 81.65286116 56.54676374 81.75539513 53 81 C51.13916016 79.73413086 51.13916016 79.73413086 49.2890625 78.02734375 C48.5976416 77.39231934 47.9062207 76.75729492 47.19384766 76.10302734 C43.40888801 72.47475643 39.68656536 68.79059512 36 65.0625 C35.22527344 64.28326172 34.45054687 63.50402344 33.65234375 62.70117188 C31.76589243 60.8030758 29.88183755 58.90266851 28 57 C24.25113444 58.55653071 21.91044992 60.87318329 19.0859375 63.75390625 C18.16039062 64.69041016 17.23484375 65.62691406 16.28125 66.59179688 C15.31214898 67.58168773 14.34340287 68.57192614 13.375 69.5625 C11.46934629 71.50450908 9.55964369 73.44234188 7.6484375 75.37890625 C6.80458496 76.2407251 5.96073242 77.10254395 5.09130859 77.99047852 C1.85172716 81.10336607 -0.4692568 81.33380221 -4.9609375 81.29296875 C-8.13134567 80.83745033 -9.8192402 79.24684343 -12 77 C-13.79533537 73.40932926 -13.68707882 69.90336064 -13 66 C-11.73413086 64.09033203 -11.73413086 64.09033203 -10.02734375 62.2578125 C-9.39231934 61.57090332 -8.75729492 60.88399414 -8.10302734 60.17626953 C-4.46273657 56.40919825 -0.7874431 52.68344844 2.9375 49 C3.71673828 48.22527344 4.49597656 47.45054687 5.29882812 46.65234375 C7.1969242 44.76589243 9.09733149 42.88183755 11 41 C6.35382024 35.40531783 1.37171774 30.28332528 -3.8125 25.1875 C-5.34212464 23.68330553 -6.86958455 22.17690551 -8.39453125 20.66796875 C-9.06331299 20.01078857 -9.73209473 19.3536084 -10.42114258 18.67651367 C-13.45357854 15.45651402 -13.38680493 12.52021591 -13.359375 8.26171875 C-12.78943134 4.67479071 -10.79773951 3.13161106 -8 1 C-5.13391871 -0.43304064 -3.18699217 -0.30644155 0 0 Z " fill="#000000" transform="translate(229,241)"/>
<path d="M0 0 C1.26586189 -0.01073296 1.26586189 -0.01073296 2.55729675 -0.02168274 C3.48510452 -0.02437164 4.41291229 -0.02706055 5.36883545 -0.02983093 C6.34460037 -0.03640213 7.3203653 -0.04297333 8.32569885 -0.04974365 C11.56501334 -0.06950497 14.80428139 -0.08114586 18.04364014 -0.09111023 C19.14860588 -0.09518576 20.25357162 -0.09926128 21.39202118 -0.10346031 C27.24089879 -0.12433361 33.08975285 -0.13862961 38.93865967 -0.147995 C44.98262487 -0.15905914 51.02622188 -0.19345583 57.07005692 -0.23316669 C61.71462695 -0.25930365 66.35910892 -0.26768428 71.00374603 -0.27127647 C73.23168167 -0.27615034 75.45961318 -0.28778699 77.68747711 -0.30631447 C80.80682079 -0.33064207 83.92520735 -0.3297522 87.0446167 -0.32279968 C88.42418297 -0.34201477 88.42418297 -0.34201477 89.83161926 -0.36161804 C95.50050313 -0.31558871 98.62186631 0.42030252 102.96551514 4.14717102 C104.69559081 7.60732237 104.44904244 11.36389657 103.96551514 15.14717102 C101.85159636 18.64607106 100.84815454 19.85295788 96.96551514 21.14717102 C95.56815753 21.24344439 94.16672973 21.28628517 92.76608276 21.29434204 C91.4833699 21.305075 91.4833699 21.305075 90.17474365 21.31602478 C89.23960937 21.31871368 88.3044751 21.32140259 87.34100342 21.32417297 C85.8600972 21.33402977 85.8600972 21.33402977 84.34927368 21.34408569 C81.07812425 21.36381702 77.80702068 21.37547963 74.53582764 21.38545227 C73.41949825 21.3895278 72.30316887 21.39360332 71.15301132 21.39780235 C65.24692723 21.41866022 59.34086637 21.43296441 53.43475342 21.44233704 C47.32906543 21.4534139 41.22374063 21.48782962 35.11818123 21.52750874 C30.42733065 21.55362429 25.73656738 21.56202428 21.04565048 21.56561852 C18.7945599 21.57049586 16.5434735 21.5821423 14.29245377 21.60065651 C11.14427925 21.62494459 7.99705499 21.62410183 4.84881592 21.61714172 C3.9177301 21.62995178 2.98664429 21.64276184 2.02734375 21.65596008 C-2.19407708 21.62190641 -4.43518005 21.52073009 -8.08969116 19.24279785 C-11.34037684 15.73999747 -11.42371583 13.044029 -11.39385986 8.40888977 C-10.8239162 4.82196173 -8.83222438 3.27878208 -6.03448486 1.14717102 C-3.76697436 0.01341577 -2.51776751 0.01463553 0 0 Z " fill="#000000" transform="translate(91.03448486328125,85.85282897949219)"/>
<path d="M0 0 C2.79659888 2.18271132 3.76939596 3.66006916 4.37109375 7.15625 C4.5972908 11.26892363 4.34475039 13.44839938 2.125 17 C-1.14840013 20.08084718 -3.46126475 20.33387487 -7.9609375 20.29296875 C-11.13134567 19.83745033 -12.8192402 18.24684343 -15 16 C-16.73007568 12.53984865 -16.4835273 8.78327445 -16 5 C-12.01229156 -1.60034501 -6.98748958 -1.79101718 0 0 Z " fill="#000000" transform="translate(56,87)"/>
<path d="M0 0 C5.70769231 3.12307692 5.70769231 3.12307692 7 7 C7.37066773 12.00401435 7.09881835 14.98301324 4 19 C0.31502204 21.45665197 -2.71971786 21.70086491 -7 21 C-9.8100346 19.20636089 -11.50940468 17.98119065 -13 15 C-13.55112923 10.40123316 -13.61753151 7.02212113 -11.1875 3 C-7.69935457 -0.18916153 -4.58550639 -0.44955945 0 0 Z " fill="#000000" transform="translate(419,46)"/>
</svg>
