<?xml version="1.0" encoding="UTF-8"?>
<svg version="1.1" xmlns="http://www.w3.org/2000/svg" width="75" height="71">
<path d="M0 0 C9.57 0 19.14 0 29 0 C29 4.95 29 9.9 29 15 C34.61 15 40.22 15 46 15 C46 10.05 46 5.1 46 0 C55.57 0 65.14 0 75 0 C75 23.43 75 46.86 75 71 C65.43 71 55.86 71 46 71 C46 65.72 46 60.44 46 55 C40.39 55 34.78 55 29 55 C29 60.28 29 65.56 29 71 C19.43 71 9.86 71 0 71 C0 47.57 0 24.14 0 0 Z M29 21 C29 30.24 29 39.48 29 49 C34.61 49 40.22 49 46 49 C46 39.76 46 30.52 46 21 C40.39 21 34.78 21 29 21 Z " fill="#C9D7DE" transform="translate(0,0)"/>
<path d="M0 0 C8.25 0 16.5 0 25 0 C25 22.44 25 44.88 25 68 C16.75 68 8.5 68 0 68 C0 45.56 0 23.12 0 0 Z " fill="#C8D9E1" transform="translate(1,1)"/>
<path d="M0 0 C9.57 0 19.14 0 29 0 C29 4.95 29 9.9 29 15 C34.61 15 40.22 15 46 15 C46 10.05 46 5.1 46 0 C55.57 0 65.14 0 75 0 C75 23.43 75 46.86 75 71 C65.43 71 55.86 71 46 71 C46 65.72 46 60.44 46 55 C40.39 55 34.78 55 29 55 C29 60.28 29 65.56 29 71 C19.43 71 9.86 71 0 71 C0 47.57 0 24.14 0 0 Z M1 1 C1 23.44 1 45.88 1 69 C9.25 69 17.5 69 26 69 C26 46.56 26 24.12 26 1 C17.75 1 9.5 1 1 1 Z M48 1 C48 5.95 48 10.9 48 16 C41.07 16 34.14 16 27 16 C27 16.33 27 16.66 27 17 C33.93 17 40.86 17 48 17 C48 28.88 48 40.76 48 53 C41.07 53 34.14 53 27 53 C27 53.33 27 53.66 27 54 C33.93 54 40.86 54 48 54 C48 58.95 48 63.9 48 69 C56.25 69 64.5 69 73 69 C73 46.56 73 24.12 73 1 C64.75 1 56.5 1 48 1 Z M29 21 C29 30.24 29 39.48 29 49 C34.61 49 40.22 49 46 49 C46 39.76 46 30.52 46 21 C40.39 21 34.78 21 29 21 Z " fill="#101517" transform="translate(0,0)"/>
<path d="M0 0 C7.59848705 -0.43837425 11.9844534 0.99611335 20 3 C20 12.57 20 22.14 20 32 C19.67 31.34 19.34 30.68 19 30 C13.06 30 7.12 30 1 30 C-0.40912096 27.18175808 -0.11183553 24.82748718 -0.09765625 21.6796875 C-0.09443359 20.42285156 -0.09121094 19.16601562 -0.08789062 17.87109375 C-0.07951172 16.55238281 -0.07113281 15.23367187 -0.0625 13.875 C-0.05748489 12.53515789 -0.05292201 11.195314 -0.04882812 9.85546875 C-0.03701086 6.57026794 -0.02053617 3.28515603 0 0 Z " fill="#667A87" transform="translate(51,21)"/>
<path d="M0 0 C3.03772586 0.35767866 6.01420481 1.09458154 9 1.75 C10.2684375 2.00523438 10.2684375 2.00523438 11.5625 2.265625 C12.366875 2.4409375 13.17125 2.61625 14 2.796875 C15.11375 3.03422363 15.11375 3.03422363 16.25 3.27636719 C17.11625 3.63456543 17.11625 3.63456543 18 4 C19.0592918 7.17787541 19.11458939 9.42588943 19.09765625 12.76171875 C19.09443359 13.87998047 19.09121094 14.99824219 19.08789062 16.15039062 C19.07951172 17.31763672 19.07113281 18.48488281 19.0625 19.6875 C19.05798828 20.86634766 19.05347656 22.04519531 19.04882812 23.25976562 C19.03703273 26.17322789 19.0205727 29.08658863 19 32 C16.58325776 32.02705308 14.1668206 32.04686438 11.75 32.0625 C11.06808594 32.07087891 10.38617188 32.07925781 9.68359375 32.08789062 C6.30657446 32.10428392 3.22708361 32.05628768 0 31 C-0.8543328 27.29930519 -1.12859476 23.87288359 -1.1328125 20.078125 C-1.13410156 18.97082031 -1.13539062 17.86351562 -1.13671875 16.72265625 C-1.13285156 15.57667969 -1.12898437 14.43070313 -1.125 13.25 C-1.12886719 12.08855469 -1.13273438 10.92710938 -1.13671875 9.73046875 C-1.13542969 8.62832031 -1.13414063 7.52617187 -1.1328125 6.390625 C-1.13168457 5.38032227 -1.13055664 4.37001953 -1.12939453 3.32910156 C-1 1 -1 1 0 0 Z " fill="#667A87" transform="translate(5,19)"/>
<path d="M0 0 C0.33 0 0.66 0 1 0 C1 5.28 1 10.56 1 16 C7.93 16 14.86 16 22 16 C22 27.88 22 39.76 22 52 C15.07 52 8.14 52 1 52 C1 57.28 1 62.56 1 68 C0.34 67.67 -0.32 67.34 -1 67 C-1.02314265 58.55959739 -1.04092492 50.11920798 -1.05181217 41.67878151 C-1.05703678 37.7598013 -1.0641268 33.84084274 -1.07543945 29.921875 C-1.08628329 26.14177614 -1.09228002 22.36169814 -1.09487724 18.58158493 C-1.09672878 17.13745164 -1.10034424 15.69331953 -1.10573006 14.2491951 C-1.1129602 12.23075723 -1.11340823 10.21229847 -1.11352539 8.19384766 C-1.115746 7.04357086 -1.11796661 5.89329407 -1.12025452 4.7081604 C-1 2 -1 2 0 0 Z M3 20 C3 29.24 3 38.48 3 48 C8.61 48 14.22 48 20 48 C20 38.76 20 29.52 20 20 C14.39 20 8.78 20 3 20 Z " fill="#232F36" transform="translate(26,1)"/>
<path d="M0 0 C8.25 0 16.5 0 25 0 C24.67 0.66 24.34 1.32 24 2 C22.35 2 20.7 2 19 2 C19 2.33 19 2.66 19 3 C13.39 3 7.78 3 2 3 C2.33 21.81 2.66 40.62 3 60 C6.63 60.33 10.26 60.66 14 61 C14.99 61.66 15.98 62.32 17 63 C17 64.65 17 66.3 17 68 C11.39 68 5.78 68 0 68 C0 63.05 0 58.1 0 53 C-6.93 53 -13.86 53 -21 53 C-21 52.67 -21 52.34 -21 52 C-14.07 52 -7.14 52 0 52 C0 40.12 0 28.24 0 16 C-6.93 16 -13.86 16 -21 16 C-21 15.67 -21 15.34 -21 15 C-14.07 15 -7.14 15 0 15 C0 10.05 0 5.1 0 0 Z " fill="#AEBDC6" transform="translate(48,1)"/>
<path d="M0 0 C6.93 0 13.86 0 21 0 C21 5.28 21 10.56 21 16 C20.01 15.34 19.02 14.68 18 14 C18 13.34 18 12.68 18 12 C17.22914062 11.95101563 16.45828125 11.90203125 15.6640625 11.8515625 C14.66117188 11.77679688 13.65828125 11.70203125 12.625 11.625 C11.12839844 11.52058594 11.12839844 11.52058594 9.6015625 11.4140625 C7 11 7 11 5 9 C3.68 8.67 2.36 8.34 1 8 C1 21.53 1 35.06 1 49 C1.66 49 2.32 49 3 49 C3.66 50.65 4.32 52.3 5 54 C3.68 54 2.36 54 1 54 C1 56.64 1 59.28 1 62 C0.67 62 0.34 62 0 62 C0 41.54 0 21.08 0 0 Z " fill="#D4E4EC" transform="translate(50,4)"/>
<path d="M0 0 C13 1 13 1 16 2 C16.33 4.97 16.66 7.94 17 11 C12.76161068 11.26489933 9.71717134 11.06275238 5.75 9.48828125 C5.04359375 9.21153564 4.3371875 8.93479004 3.609375 8.6496582 C3.07828125 8.435271 2.5471875 8.22088379 2 8 C2.01947389 13.56914946 2.07135423 19.13673055 2.15258789 24.70532227 C2.17570843 26.59748783 2.1901496 28.48978099 2.19555664 30.38208008 C2.20488994 33.11099216 2.24597407 35.83791369 2.29296875 38.56640625 C2.28706978 39.82463951 2.28706978 39.82463951 2.28105164 41.10829163 C2.45642206 48.25325395 4.93378973 51.93378973 10 57 C6.04 56.505 6.04 56.505 2 56 C2 58.31 2 60.62 2 63 C4.31 63 6.62 63 9 63 C9 63.33 9 63.66 9 64 C6.03 64 3.06 64 0 64 C0 42.88 0 21.76 0 0 Z " fill="#D2DCE2" transform="translate(2,3)"/>
<path d="M0 0 C8.25 0 16.5 0 25 0 C24.67 0.99 24.34 1.98 24 3 C16.74 3 9.48 3 2 3 C1.67 23.79 1.34 44.58 1 66 C1.99 65.505 1.99 65.505 3 65 C3 63.02 3 61.04 3 59 C5.10544013 59.28232721 7.20933589 59.5761898 9.3125 59.875 C10.48425781 60.03742187 11.65601563 60.19984375 12.86328125 60.3671875 C16 61 16 61 19 63 C19 63.66 19 64.32 19 65 C19.66 65.33 20.32 65.66 21 66 C21 66.66 21 67.32 21 68 C14.07 68 7.14 68 0 68 C0 45.56 0 23.12 0 0 Z " fill="#8C9AA1" transform="translate(1,1)"/>
<path d="M0 0 C2.97 0 5.94 0 9 0 C9 7.26 9 14.52 9 22 C8.67 21.01 8.34 20.02 8 19 C6.906875 18.87625 5.81375 18.7525 4.6875 18.625 C-0.58140765 17.97229869 -5.78520874 16.98735937 -11 16 C-11 13.03 -11 10.06 -11 7 C-9.68 7.33 -8.36 7.66 -7 8 C-5.08561511 8.3662999 -3.16876151 8.71986402 -1.25 9.0625 C-0.26515625 9.23910156 0.7196875 9.41570313 1.734375 9.59765625 C2.48203125 9.73042969 3.2296875 9.86320313 4 10 C3.67 7.03 3.34 4.06 3 1 C2.01 0.67 1.02 0.34 0 0 Z " fill="#D2E1EA" transform="translate(15,4)"/>
<path d="M0 0 C4.28556305 0.81716245 6.00410377 2.85430896 9 6 C12.19507433 8.88587359 14.73590323 9.51544355 19 10 C19.33 9.01 19.66 8.02 20 7 C20 10.63 20 14.26 20 18 C19.67 17.34 19.34 16.68 19 16 C13.06 16 7.12 16 1 16 C-0.50156874 12.99686252 -0.09281204 10.20932478 -0.0625 6.875 C-0.05347656 5.59367187 -0.04445312 4.31234375 -0.03515625 2.9921875 C-0.02355469 2.00476562 -0.01195312 1.01734375 0 0 Z " fill="#A6B8C1" transform="translate(51,35)"/>
<path d="M0 0 C0.33 0.66 0.66 1.32 1 2 C1.99 2.33 2.98 2.66 4 3 C4.86625 4.4540625 4.86625 4.4540625 5.75 5.9375 C8.5669379 9.77166547 10.38805849 10.19088745 15 11 C17.79244045 11.16928543 17.79244045 11.16928543 20 11 C20 13.31 20 15.62 20 18 C17.58325776 18.02705308 15.1668206 18.04686438 12.75 18.0625 C12.06808594 18.07087891 11.38617188 18.07925781 10.68359375 18.08789062 C7.30657446 18.10428392 4.22708361 18.05628768 1 17 C0.09586327 13.16275828 -0.10576898 9.62497726 -0.0625 5.6875 C-0.05347656 4.61886719 -0.04445312 3.55023438 -0.03515625 2.44921875 C-0.02355469 1.64097656 -0.01195312 0.83273438 0 0 Z " fill="#9BAEB8" transform="translate(4,33)"/>
<path d="M0 0 C4.875 0.875 4.875 0.875 6 2 C8.80375271 2.49504462 11.61538811 2.90051198 14.43359375 3.3046875 C17 4 17 4 19 7 C19.125 9.6875 19.125 9.6875 19 12 C18.29875 11.86722656 17.5975 11.73445313 16.875 11.59765625 C11.2595442 10.55238798 5.67566491 9.6425281 0 9 C0 6.03 0 3.06 0 0 Z " fill="#BBCCD5" transform="translate(51,12)"/>
<path d="M0 0 C1.77074917 -0.02705729 3.54161711 -0.04642195 5.3125 -0.0625 C6.29863281 -0.07410156 7.28476563 -0.08570313 8.30078125 -0.09765625 C11 0 11 0 14 1 C14.33 3.97 14.66 6.94 15 10 C9.1977825 10.36263859 5.36000789 9.25684543 0 7 C0 4.69 0 2.38 0 0 Z " fill="#D9E8F0" transform="translate(4,4)"/>
<path d="M0 0 C7.08076251 -0.40850553 13.19925959 1.09579269 20 3 C20 5.64 20 8.28 20 11 C19.34 11 18.68 11 18 11 C18 10.34 18 9.68 18 9 C16.453125 9.0928125 16.453125 9.0928125 14.875 9.1875 C10.68761543 8.98488462 8.60495956 8.03758584 5 6 C3.34089996 5.31471955 1.67667436 4.64108137 0 4 C0 2.68 0 1.36 0 0 Z " fill="#8B9EA9" transform="translate(51,21)"/>
<path d="M0 0 C6 0 6 0 8 1 C8 2.98 8 4.96 8 7 C5.69 6.67 3.38 6.34 1 6 C1 20.19 1 34.38 1 49 C1.66 49 2.32 49 3 49 C3.66 50.65 4.32 52.3 5 54 C3.68 54 2.36 54 1 54 C1 56.64 1 59.28 1 62 C0.67 62 0.34 62 0 62 C0 41.54 0 21.08 0 0 Z " fill="#E8EDEF" transform="translate(50,4)"/>
<path d="M0 0 C1.76586914 0.25366211 1.76586914 0.25366211 4.03515625 0.77734375 C4.84404297 0.96103516 5.65292969 1.14472656 6.48632812 1.33398438 C7.33646484 1.53314453 8.18660156 1.73230469 9.0625 1.9375 C10.34350586 2.23043945 10.34350586 2.23043945 11.65039062 2.52929688 C13.76817052 3.01437495 15.88456101 3.50483011 18 4 C18.33 6.31 18.66 8.62 19 11 C16.58179317 10.54884201 14.16567137 10.08938045 11.75 9.625 C11.06808594 9.49867187 10.38617188 9.37234375 9.68359375 9.2421875 C6.17515024 8.56093633 3.08960327 7.83146585 0 6 C-0.33 6.66 -0.66 7.32 -1 8 C-1.04241723 5.66705225 -1.04092937 3.33297433 -1 1 C-0.67 0.67 -0.34 0.34 0 0 Z " fill="#889BA6" transform="translate(5,19)"/>
<path d="M0 0 C2.10544013 0.28232721 4.20933589 0.5761898 6.3125 0.875 C7.48425781 1.03742187 8.65601563 1.19984375 9.86328125 1.3671875 C13 2 13 2 16 4 C16 4.66 16 5.32 16 6 C16.66 6.33 17.32 6.66 18 7 C18 7.66 18 8.32 18 9 C14.04 9 10.08 9 6 9 C6 8.34 6 7.68 6 7 C3.03 6.505 3.03 6.505 0 6 C0 4.02 0 2.04 0 0 Z " fill="#B7C3CB" transform="translate(4,60)"/>
<path d="M0 0 C8.25 0 16.5 0 25 0 C24.67 0.66 24.34 1.32 24 2 C22.35 2 20.7 2 19 2 C19 2.33 19 2.66 19 3 C13.06 3 7.12 3 1 3 C1 8.28 1 13.56 1 19 C0.67 18.01 0.34 17.02 0 16 C-6.93 16 -13.86 16 -21 16 C-21 15.67 -21 15.34 -21 15 C-14.07 15 -7.14 15 0 15 C0 10.05 0 5.1 0 0 Z " fill="#8E9AA1" transform="translate(48,1)"/>
<path d="M0 0 C4.28556305 0.81716245 6.00410377 2.85430896 9 6 C12.19507433 8.88587359 14.73590323 9.51544355 19 10 C19.33 9.01 19.66 8.02 20 7 C20 8.65 20 10.3 20 12 C16.85378318 11.86177801 13.70814434 11.71314916 10.5625 11.5625 C9.66466797 11.52318359 8.76683594 11.48386719 7.84179688 11.44335938 C6.98779297 11.40146484 6.13378906 11.35957031 5.25390625 11.31640625 C4.06776733 11.26141968 4.06776733 11.26141968 2.85766602 11.20532227 C1 11 1 11 0 10 C-0.07205511 8.31391034 -0.08386068 6.62499341 -0.0625 4.9375 C-0.05347656 4.01839844 -0.04445312 3.09929688 -0.03515625 2.15234375 C-0.02355469 1.44207031 -0.01195312 0.73179688 0 0 Z " fill="#92A5AF" transform="translate(51,35)"/>
<path d="M0 0 C0.33 0 0.66 0 1 0 C1.33 21.45 1.66 42.9 2 65 C0.68 65 -0.64 65 -2 65 C-2 64.34 -2 63.68 -2 63 C-2.99 62.67 -3.98 62.34 -5 62 C-3.515 61.505 -3.515 61.505 -2 61 C-2.495 59.515 -2.495 59.515 -3 58 C-2.01 57.505 -2.01 57.505 -1 57 C-0.67 38.19 -0.34 19.38 0 0 Z " fill="#E1E5E7" transform="translate(24,4)"/>
<path d="M0 0 C2.31 0 4.62 0 7 0 C7.33 0.66 7.66 1.32 8 2 C10.57437581 2.91280138 10.57437581 2.91280138 13.5625 3.625 C14.57441406 3.88539062 15.58632813 4.14578125 16.62890625 4.4140625 C17.80259766 4.70410156 17.80259766 4.70410156 19 5 C19.33 6.98 19.66 8.96 20 11 C19.67 10.01 19.34 9.02 19 8 C17.906875 7.87625 16.81375 7.7525 15.6875 7.625 C10.41859235 6.97229869 5.21479126 5.98735937 0 5 C0 3.35 0 1.7 0 0 Z " fill="#ACBEC8" transform="translate(4,15)"/>
<path d="M0 0 C0.33 0.66 0.66 1.32 1 2 C1.99 2.33 2.98 2.66 4 3 C4.86625 4.4540625 4.86625 4.4540625 5.75 5.9375 C8.5669379 9.77166547 10.38805849 10.19088745 15 11 C17.79244045 11.16928543 17.79244045 11.16928543 20 11 C19.67 11.99 19.34 12.98 19 14 C12.125 13.125 12.125 13.125 11 12 C9.31816052 11.76712992 7.6287584 11.58735834 5.9375 11.4375 C5.01839844 11.35371094 4.09929688 11.26992188 3.15234375 11.18359375 C2.44207031 11.12300781 1.73179687 11.06242187 1 11 C-0.28317892 7.15046324 -0.06643637 4.05261865 0 0 Z " fill="#8C9FAA" transform="translate(4,33)"/>
<path d="M0 0 C6.43974581 0.62320121 12.67572401 1.64008262 19 3 C19 4.32 19 5.64 19 7 C18.29875 6.86722656 17.5975 6.73445313 16.875 6.59765625 C11.2595442 5.55238798 5.67566491 4.6425281 0 4 C0 2.68 0 1.36 0 0 Z " fill="#A8BAC4" transform="translate(51,17)"/>
<path d="M0 0 C3.0009507 0.44131628 5.16475076 1.08595692 7.875 2.5 C11.30017617 4.14408456 14.23946434 4.62394643 18 5 C18 5.33 18 5.66 18 6 C14.04 6 10.08 6 6 6 C6 6.66 6 7.32 6 8 C4.35 8 2.7 8 1 8 C-0.35439668 5.29120665 -0.06501451 2.99066732 0 0 Z " fill="#607581" transform="translate(51,25)"/>
<path d="M0 0 C6.93 0 13.86 0 21 0 C21 0.99 21 1.98 21 3 C14.07 3 7.14 3 0 3 C0 2.01 0 1.02 0 0 Z " fill="#233B47" transform="translate(27,50)"/>
<path d="M0 0 C3.38874396 0.79830987 6.68697008 1.80654785 10 2.875 C11.03125 3.20242188 12.0625 3.52984375 13.125 3.8671875 C15.85483175 4.94280055 17.76784874 6.12198812 20 8 C19.67 8.99 19.34 9.98 19 11 C19 10.34 19 9.68 19 9 C18.24074219 8.87882812 17.48148438 8.75765625 16.69921875 8.6328125 C15.20841797 8.38144531 15.20841797 8.38144531 13.6875 8.125 C12.70136719 7.96257813 11.71523437 7.80015625 10.69921875 7.6328125 C8 7 8 7 5 5 C3.34450469 4.61500109 1.6777567 4.27206865 0 4 C0 2.68 0 1.36 0 0 Z " fill="#C5D5DE" transform="translate(4,11)"/>
<path d="M0 0 C0.76570312 0.19916016 0.76570312 0.19916016 1.546875 0.40234375 C4.76810318 1.18713342 8.0073132 1.87192781 11.25 2.5625 C12.51328125 2.83191406 13.7765625 3.10132813 15.078125 3.37890625 C16.52445313 3.68634766 16.52445313 3.68634766 18 4 C18.33 5.65 18.66 7.3 19 9 C16.5625 8.1875 16.5625 8.1875 14 7 C13.67 6.01 13.34 5.02 13 4 C8.71 4 4.42 4 0 4 C-0.33 5.32 -0.66 6.64 -1 8 C-1.125 2.25 -1.125 2.25 0 0 Z " fill="#687C88" transform="translate(5,25)"/>
<path d="M0 0 C1.77155654 0.11429397 3.54226229 0.24183037 5.3125 0.375 C6.79169922 0.47941406 6.79169922 0.47941406 8.30078125 0.5859375 C11 1 11 1 14 3 C14 3.66 14 4.32 14 5 C9.38 5 4.76 5 0 5 C0 3.35 0 1.7 0 0 Z " fill="#A8B9C3" transform="translate(51,61)"/>
<path d="M0 0 C6.27 0 12.54 0 19 0 C19 0.99 19 1.98 19 3 C16.58325776 3.02705308 14.1668206 3.04686438 11.75 3.0625 C10.72712891 3.07506836 10.72712891 3.07506836 9.68359375 3.08789062 C6.30657446 3.10428392 3.22708361 3.05628768 0 2 C0 1.34 0 0.68 0 0 Z " fill="#A8BAC4" transform="translate(5,48)"/>
<path d="M0 0 C-0.33 0.99 -0.66 1.98 -1 3 C-8.26 3 -15.52 3 -23 3 C-15.82667198 -0.58666401 -7.89626803 -0.12735916 0 0 Z " fill="#9EA7AD" transform="translate(26,1)"/>
<path d="M0 0 C4.29 0 8.58 0 13 0 C13.66 1.32 14.32 2.64 15 4 C11.53058454 3.54177532 8.32604951 3.10868317 5 2 C5 2.66 5 3.32 5 4 C3.35 4 1.7 4 0 4 C0 2.68 0 1.36 0 0 Z " fill="#5B717D" transform="translate(5,29)"/>
<path d="M0 0 C2.31 0.33 4.62 0.66 7 1 C7 2.98 7 4.96 7 7 C4.69 6.67 2.38 6.34 0 6 C0 4.02 0 2.04 0 0 Z " fill="#DCEBF3" transform="translate(51,4)"/>
<path d="M0 0 C3.63 0.66 7.26 1.32 11 2 C11 3.65 11 5.3 11 7 C10.67 6.34 10.34 5.68 10 5 C8.906875 5.061875 7.81375 5.12375 6.6875 5.1875 C3 5 3 5 1.0625 3.625 C0 2 0 2 0 0 Z " fill="#7C8F9B" transform="translate(59,25)"/>
<path d="M0 0 C4.875 0.875 4.875 0.875 6 2 C7.84599688 2.39454223 9.70225822 2.74176866 11.5625 3.0625 C13.08037109 3.32740234 13.08037109 3.32740234 14.62890625 3.59765625 C15.41136719 3.73042969 16.19382812 3.86320313 17 4 C17 4.33 17 4.66 17 5 C11.54230189 5.11138159 6.38490641 4.91657981 1 4 C0.67 2.68 0.34 1.36 0 0 Z " fill="#C4D4DD" transform="translate(51,12)"/>
<path d="M0 0 C0.33 0 0.66 0 1 0 C1.66 2.64 2.32 5.28 3 8 C0.36 8 -2.28 8 -5 8 C-5 7.34 -5 6.68 -5 6 C-7.31 6 -9.62 6 -12 6 C-12 5.67 -12 5.34 -12 5 C-8.04 5 -4.08 5 0 5 C0 4.34 0 3.68 0 3 C-0.66 2.67 -1.32 2.34 -2 2 C-1.34 2 -0.68 2 0 2 C0 1.34 0 0.68 0 0 Z " fill="#DBE1E4" transform="translate(70,61)"/>
<path d="M0 0 C4.25491665 0.47276852 6.22542845 2.92547477 9 6 C9.33 6.66 9.66 7.32 10 8 C6.06629643 7.43804235 3.16824393 6.44407389 0 4 C0 2.68 0 1.36 0 0 Z " fill="#7E919D" transform="translate(51,35)"/>
<path d="M0 0 C3.12290635 0.48578543 5.99580359 0.9986012 9 2 C9 2.66 9 3.32 9 4 C5.7 4 2.4 4 -1 4 C-0.67 2.68 -0.34 1.36 0 0 Z " fill="#91A3AD" transform="translate(5,62)"/>
<path d="M0 0 C4.62 0.99 9.24 1.98 14 3 C14 3.33 14 3.66 14 4 C9.05 4 4.1 4 -1 4 C-0.67 2.68 -0.34 1.36 0 0 Z " fill="#93A6B0" transform="translate(5,19)"/>
<path d="M0 0 C2.97 0.33 5.94 0.66 9 1 C9.33 2.65 9.66 4.3 10 6 C7.5625 5.1875 7.5625 5.1875 5 4 C4.67 3.01 4.34 2.02 4 1 C2.68 0.67 1.36 0.34 0 0 Z " fill="#738792" transform="translate(14,28)"/>
<path d="M0 0 C0.33 0.66 0.66 1.32 1 2 C1.99 2.33 2.98 2.66 4 3 C5.6875 5.5625 5.6875 5.5625 7 8 C4.03 7.505 4.03 7.505 1 7 C0.67 4.69 0.34 2.38 0 0 Z " fill="#7C8F9B" transform="translate(4,33)"/>
<path d="M0 0 C2.97 0 5.94 0 9 0 C8.67 0.99 8.34 1.98 8 3 C2.25 3.125 2.25 3.125 0 2 C0 1.34 0 0.68 0 0 Z " fill="#BCC0C2" transform="translate(17,1)"/>
<path d="M0 0 C2.31 0.33 4.62 0.66 7 1 C7 1.66 7 2.32 7 3 C4.69 3 2.38 3 0 3 C0 2.01 0 1.02 0 0 Z " fill="#889BA6" transform="translate(51,63)"/>
<path d="M0 0 C2.31 0.33 4.62 0.66 7 1 C4.64046906 3.35953094 3.22104383 3.49141413 0 4 C0 2.68 0 1.36 0 0 Z " fill="#A1B3BD" transform="translate(51,17)"/>
</svg>
