<?xml version="1.0" encoding="UTF-8"?>
<svg version="1.1" xmlns="http://www.w3.org/2000/svg" width="150" height="35">
<path d="M0 0 C0.66 0 1.32 0 2 0 C3.32 3.63 4.64 7.26 6 11 C15.34809779 11.66433182 24.62122392 12.1598655 34 12 C34.19916016 11.07767578 34.19916016 11.07767578 34.40234375 10.13671875 C34.57894531 9.32847656 34.75554688 8.52023437 34.9375 7.6875 C35.11152344 6.88699219 35.28554688 6.08648437 35.46484375 5.26171875 C36 3 36 3 37 0 C40 1 40 1 40.94921875 2.7421875 C41.19285156 3.44601563 41.43648437 4.14984375 41.6875 4.875 C41.93886719 5.57367188 42.19023438 6.27234375 42.44921875 6.9921875 C43 9 43 9 43 12 C52.24 12 61.48 12 71 12 C71.99 8.7 72.98 5.4 74 2 C74.33 1.34 74.66 0.68 75 0 C75.66 0 76.32 0 77 0 C77.6708712 1.6232687 78.33657029 3.24867578 79 4.875 C79.37125 5.77992188 79.7425 6.68484375 80.125 7.6171875 C81 10 81 10 81 12 C90.24 12 99.48 12 109 12 C109.33 10.35 109.66 8.7 110 7 C110.89305874 4.60771311 111.94896026 2.33056638 113 0 C113.66 0 114.32 0 115 0 C116.98 5.445 116.98 5.445 119 11 C123.29 11.66 127.58 12.32 132 13 C129 16 126 19 123 22 C123.433125 23.15628906 123.433125 23.15628906 123.875 24.3359375 C124.24625 25.33882812 124.6175 26.34171875 125 27.375 C125.37125 28.37273438 125.7425 29.37046875 126.125 30.3984375 C127 33 127 33 127 35 C123.64079333 33.88026444 121.23015393 32.44248686 118.5 30.25 C115.81496721 28.1911104 115.81496721 28.1911104 112.5 28.375 C109.77319698 30.14742196 107.1312 31.99690643 104.55078125 33.9765625 C103 35 103 35 101 35 C101.90723613 30.31261335 102.9547267 25.65806256 104 21 C101.45918161 18.76811486 98.92775071 16.7042131 96 15 C91.85304785 15.57864449 89.13371417 18.31395928 86 21 C86.55399017 24.97026289 87.49940942 28.29854325 89 32 C89 32.99 89 33.98 89 35 C85.64079333 33.88026444 83.23015393 32.44248686 80.5 30.25 C77.81496721 28.1911104 77.81496721 28.1911104 74.5 28.375 C71.77319698 30.14742196 69.1312 31.99690643 66.55078125 33.9765625 C65 35 65 35 63 35 C63.2165625 34.32453125 63.433125 33.6490625 63.65625 32.953125 C63.9346875 32.06109375 64.213125 31.1690625 64.5 30.25 C64.7784375 29.36828125 65.056875 28.4865625 65.34375 27.578125 C66.16445285 24.79732471 66.16445285 24.79732471 66 21 C63.71050376 18.42076602 61.06093221 16.57615166 58 15 C53.85304785 15.57864449 51.13371417 18.31395928 48 21 C48.20496094 21.67546875 48.40992187 22.3509375 48.62109375 23.046875 C48.89050781 23.93890625 49.15992187 24.8309375 49.4375 25.75 C49.70433594 26.63171875 49.97117187 27.5134375 50.24609375 28.421875 C50.88468494 30.60565835 51.46775833 32.78835498 52 35 C48.50155614 34.36610765 46.15913124 32.94822306 43.25 30.9375 C42.45078125 30.38964844 41.6515625 29.84179688 40.828125 29.27734375 C40.22484375 28.85582031 39.6215625 28.43429688 39 28 C34.19898041 30.6446881 34.19898041 30.6446881 29.75 33.8125 C28.88375 34.4003125 28.88375 34.4003125 28 35 C27.01 34.67 26.02 34.34 25 34 C25.28875 33.22914062 25.5775 32.45828125 25.875 31.6640625 C26.24625 30.66117188 26.6175 29.65828125 27 28.625 C27.37125 27.62726562 27.7425 26.62953125 28.125 25.6015625 C29.10626277 23.14151939 29.10626277 23.14151939 29 21 C26.98208664 19.41030753 26.98208664 19.41030753 24.5 17.875 C23.6646875 17.33617188 22.829375 16.79734375 21.96875 16.2421875 C20.99421875 15.62730469 20.99421875 15.62730469 20 15 C16.44774296 16.71435014 13.25978366 18.77742023 10 21 C10.28875 21.84304687 10.5775 22.68609375 10.875 23.5546875 C11.24625 24.65039062 11.6175 25.74609375 12 26.875 C12.556875 28.51082031 12.556875 28.51082031 13.125 30.1796875 C14 33 14 33 14 35 C10.64079333 33.88026444 8.23015393 32.44248686 5.5 30.25 C2.81496721 28.1911104 2.81496721 28.1911104 -0.5 28.375 C-3.22680302 30.14742196 -5.8688 31.99690643 -8.44921875 33.9765625 C-10 35 -10 35 -12 35 C-11.77183594 34.25234375 -11.54367188 33.5046875 -11.30859375 32.734375 C-11.02113281 31.74953125 -10.73367187 30.7646875 -10.4375 29.75 C-10.14746094 28.77546875 -9.85742188 27.8009375 -9.55859375 26.796875 C-8.98984104 23.94913413 -8.80136483 22.61923983 -10 20 C-11.83536337 18.23151264 -11.83536337 18.23151264 -14.0625 16.75 C-14.79597656 16.22921875 -15.52945312 15.7084375 -16.28515625 15.171875 C-16.85105469 14.78515625 -17.41695312 14.3984375 -18 14 C-14.57905758 11.71937172 -13.31812778 11.78074993 -9.3125 11.875 C-7.82169922 11.90207031 -7.82169922 11.90207031 -6.30078125 11.9296875 C-5.54152344 11.95289063 -4.78226563 11.97609375 -4 12 C-3.79503906 11.21753906 -3.59007812 10.43507813 -3.37890625 9.62890625 C-3.10949219 8.61699219 -2.84007812 7.60507813 -2.5625 6.5625 C-2.29566406 5.55316406 -2.02882813 4.54382813 -1.75390625 3.50390625 C-1 1 -1 1 0 0 Z " fill="#A1A1A1" transform="translate(18,0)"/>
<path d="M0 0 C0.66 0 1.32 0 2 0 C3.32 3.63 4.64 7.26 6 11 C10.29 11.66 14.58 12.32 19 13 C16 16 13 19 10 22 C10.28875 22.77085938 10.5775 23.54171875 10.875 24.3359375 C11.24625 25.33882812 11.6175 26.34171875 12 27.375 C12.37125 28.37273438 12.7425 29.37046875 13.125 30.3984375 C14 33 14 33 14 35 C10.64079333 33.88026444 8.23015393 32.44248686 5.5 30.25 C2.81496721 28.1911104 2.81496721 28.1911104 -0.5 28.375 C-3.22680302 30.14742196 -5.8688 31.99690643 -8.44921875 33.9765625 C-10 35 -10 35 -12 35 C-11.09276387 30.31261335 -10.0452733 25.65806256 -9 21 C-11.54081839 18.76811486 -14.07224929 16.7042131 -17 15 C-21.14695215 15.57864449 -23.86628583 18.31395928 -27 21 C-26.44600983 24.97026289 -25.50059058 28.29854325 -24 32 C-24 32.99 -24 33.98 -24 35 C-27.35920667 33.88026444 -29.76984607 32.44248686 -32.5 30.25 C-35.18503279 28.1911104 -35.18503279 28.1911104 -38.5 28.375 C-41.22680302 30.14742196 -43.8688 31.99690643 -46.44921875 33.9765625 C-48 35 -48 35 -50 35 C-49.67 33.68 -49.34 32.36 -49 31 C-48.34 31 -47.68 31 -47 31 C-46.85304688 30.31292969 -46.70609375 29.62585938 -46.5546875 28.91796875 C-45.86681709 26.15462728 -45.15756254 23.60451572 -44 21 C-42 20 -40 19 -38 18 C-37.15758275 15.00833875 -37.01298888 12.0978483 -37 9 C-37.66 9 -38.32 9 -39 9 C-38.67 7.02 -38.34 5.04 -38 3 C-37.34 3 -36.68 3 -36 3 C-35.67 4.65 -35.34 6.3 -35 8 C-34.34 8 -33.68 8 -33 8 C-32.67 9.32 -32.34 10.64 -32 12 C-22.76 12 -13.52 12 -4 12 C-3.67 10.35 -3.34 8.7 -3 7 C-2.10694126 4.60771311 -1.05103974 2.33056638 0 0 Z " fill="#CCCCCC" transform="translate(131,0)"/>
<path d="M0 0 C0.66 0 1.32 0 2 0 C2.99 3.96 3.98 7.92 5 12 C10.94 12.99 10.94 12.99 17 14 C15.66667905 17.99996286 13.5042173 18.83782337 10 21 C10.28875 21.84304687 10.5775 22.68609375 10.875 23.5546875 C11.24625 24.65039062 11.6175 25.74609375 12 26.875 C12.556875 28.51082031 12.556875 28.51082031 13.125 30.1796875 C14 33 14 33 14 35 C10.64079333 33.88026444 8.23015393 32.44248686 5.5 30.25 C2.81496721 28.1911104 2.81496721 28.1911104 -0.5 28.375 C-3.22680302 30.14742196 -5.8688 31.99690643 -8.44921875 33.9765625 C-10 35 -10 35 -12 35 C-11.77183594 34.25234375 -11.54367188 33.5046875 -11.30859375 32.734375 C-11.02113281 31.74953125 -10.73367187 30.7646875 -10.4375 29.75 C-10.14746094 28.77546875 -9.85742188 27.8009375 -9.55859375 26.796875 C-8.98984104 23.94913413 -8.80136483 22.61923983 -10 20 C-11.83536337 18.23151264 -11.83536337 18.23151264 -14.0625 16.75 C-14.79597656 16.22921875 -15.52945312 15.7084375 -16.28515625 15.171875 C-16.85105469 14.78515625 -17.41695312 14.3984375 -18 14 C-14.57905758 11.71937172 -13.31812778 11.78074993 -9.3125 11.875 C-7.82169922 11.90207031 -7.82169922 11.90207031 -6.30078125 11.9296875 C-5.54152344 11.95289063 -4.78226563 11.97609375 -4 12 C-3.79503906 11.21753906 -3.59007812 10.43507813 -3.37890625 9.62890625 C-3.10949219 8.61699219 -2.84007812 7.60507813 -2.5625 6.5625 C-2.29566406 5.55316406 -2.02882813 4.54382813 -1.75390625 3.50390625 C-1 1 -1 1 0 0 Z " fill="#C9C9C9" transform="translate(18,0)"/>
<path d="M0 0 C0.66 0 1.32 0 2 0 C2.99 3.3 3.98 6.6 5 10 C6.2375 9.979375 7.475 9.95875 8.75 9.9375 C11.6640825 9.93233319 14.20953327 10.06984442 17 11 C15.60667426 14.36720387 14.0210714 15.9859524 11 18 C11.55399017 21.97026289 12.49940942 25.29854325 14 29 C14 29.99 14 30.98 14 32 C10.64079333 30.88026444 8.23015393 29.44248686 5.5 27.25 C2.81496721 25.1911104 2.81496721 25.1911104 -0.5 25.375 C-3.22680302 27.14742196 -5.8688 28.99690643 -8.44921875 30.9765625 C-10 32 -10 32 -12 32 C-11.67 30.68 -11.34 29.36 -11 28 C-10.34 28 -9.68 28 -9 28 C-8.85304688 27.31292969 -8.70609375 26.62585938 -8.5546875 25.91796875 C-7.86681709 23.15462728 -7.15756254 20.60451572 -6 18 C-4 17 -2 16 0 15 C0.84241725 12.00833875 0.98701112 9.0978483 1 6 C0.34 6 -0.32 6 -1 6 C-0.67 4.02 -0.34 2.04 0 0 Z " fill="#E4E4E4" transform="translate(93,3)"/>
<path d="M0 0 C2 2 2 2 3 5 C12.34809779 5.66433182 21.62122392 6.1598655 31 6 C31.33 5.01 31.66 4.02 32 3 C32 3.99 32 4.98 32 6 C32.99 6 33.98 6 35 6 C35 7.65 35 9.3 35 11 C34.01 10.34 33.02 9.68 32 9 C29.25481679 8.75812349 29.25481679 8.75812349 26.3125 8.875 C25.31863281 8.89304687 24.32476562 8.91109375 23.30078125 8.9296875 C22.54152344 8.95289063 21.78226563 8.97609375 21 9 C21.65226562 9.10957031 22.30453125 9.21914062 22.9765625 9.33203125 C28.16036417 10.27245545 32.33853453 11.45738247 37 14 C38.051875 14.185625 39.10375 14.37125 40.1875 14.5625 C43 16 43 16 44.04296875 18.34765625 C44.80337578 20.88591633 45.45473712 23.4076098 46 26 C41.88295306 25.27758802 38.69512628 23.97646289 35 22 C34.31292969 22.51691406 33.62585937 23.03382812 32.91796875 23.56640625 C32.01691406 24.22511719 31.11585937 24.88382813 30.1875 25.5625 C29.29417969 26.22378906 28.40085937 26.88507812 27.48046875 27.56640625 C26.66191406 28.03949219 25.84335937 28.51257813 25 29 C24.01 28.67 23.02 28.34 22 28 C22.28875 27.22914062 22.5775 26.45828125 22.875 25.6640625 C23.24625 24.66117188 23.6175 23.65828125 24 22.625 C24.37125 21.62726562 24.7425 20.62953125 25.125 19.6015625 C26.10626277 17.14151939 26.10626277 17.14151939 26 15 C20.00126398 9.01752071 13.22885488 8.15025468 5.16015625 7.6171875 C2 7 2 7 0.55859375 5.1328125 C0 3 0 3 0 0 Z " fill="#D6D6D6" transform="translate(21,6)"/>
<path d="M0 0 C0.66 0 1.32 0 2 0 C4.125 4.625 4.125 4.625 3 8 C2.505 5.525 2.505 5.525 2 3 C1.34 3 0.68 3 0 3 C-0.33 4.98 -0.66 6.96 -1 9 C-0.34 9 0.32 9 1 9 C1 11.97 1 14.94 1 18 C0.0925 18.28875 -0.815 18.5775 -1.75 18.875 C-6.40430169 21.91819726 -7.35623984 25.84632845 -9 31 C-10.25541557 27.23375329 -9.37061958 25.62811066 -8 22 C-9.38012023 20.79427404 -10.77982828 19.61094249 -12.1875 18.4375 C-13.35345703 17.44556641 -13.35345703 17.44556641 -14.54296875 16.43359375 C-17.58465745 14.65887237 -18.69416223 15.16103949 -22 16 C-22.66 15.34 -23.32 14.68 -24 14 C-26.20250992 13.53993654 -26.20250992 13.53993654 -28.625 13.375 C-29.44226562 13.30023438 -30.25953125 13.22546875 -31.1015625 13.1484375 C-31.72804687 13.09945313 -32.35453125 13.05046875 -33 13 C-33.33 11.02 -33.66 9.04 -34 7 C-32 9 -32 9 -32 12 C-22.76 12 -13.52 12 -4 12 C-3.01 8.7 -2.02 5.4 -1 2 C-0.67 1.34 -0.34 0.68 0 0 Z " fill="#5D5D5D" transform="translate(93,0)"/>
<path d="M0 0 C0.66 0 1.32 0 2 0 C3.32 3.63 4.64 7.26 6 11 C10.29 11.66 14.58 12.32 19 13 C16.66666667 15.33333333 14.33333333 17.66666667 12 20 C10.68 20 9.36 20 8 20 C8 20.99 8 21.98 8 23 C6.68 22.67 5.36 22.34 4 22 C4.66 22 5.32 22 6 22 C6 21.34 6 20.68 6 20 C4.35 19.67 2.7 19.34 1 19 C0.67 16.69 0.34 14.38 0 12 C-0.99 12.33 -1.98 12.66 -3 13 C-2.69240822 11.02006459 -2.3787932 9.04106401 -2.0625 7.0625 C-1.88847656 5.96035156 -1.71445313 4.85820312 -1.53515625 3.72265625 C-1 1 -1 1 0 0 Z " fill="#C5C5C5" transform="translate(131,0)"/>
<path d="M0 0 C0.99 0.33 1.98 0.66 3 1 C4.04111729 3.94519277 4.43536684 6.91623428 5 10 C10.94 10.99 10.94 10.99 17 12 C15.66667905 15.99996286 13.5042173 16.83782337 10 19 C10.28875 19.84304687 10.5775 20.68609375 10.875 21.5546875 C11.24625 22.65039062 11.6175 23.74609375 12 24.875 C12.556875 26.51082031 12.556875 26.51082031 13.125 28.1796875 C14 31 14 31 14 33 C12.35 32.34 10.7 31.68 9 31 C9.33 30.34 9.66 29.68 10 29 C9.90276549 27.00978479 9.90276549 27.00978479 9.5625 24.875 C9.376875 23.59625 9.19125 22.3175 9 21 C7.35 21 5.7 21 4 21 C4.66 20.67 5.32 20.34 6 20 C6 19.34 6 18.68 6 18 C3.36 18 0.72 18 -2 18 C-1.34 17.34 -0.68 16.68 0 16 C0.40047444 13.67724823 0.7397104 11.34260643 1 9 C0.01 9 -0.98 9 -2 9 C-1.34 6.03 -0.68 3.06 0 0 Z " fill="#D9D9D9" transform="translate(18,2)"/>
<path d="M0 0 C0.103125 0.598125 0.20625 1.19625 0.3125 1.8125 C0.82484936 4.07883283 0.82484936 4.07883283 2.5625 5.4375 C4 7 4 7 4.1875 9.6875 C4.0946875 10.8321875 4.0946875 10.8321875 4 12 C2.906875 12.33 1.81375 12.66 0.6875 13 C-1.78744299 14.02705124 -2.78751 14.62850886 -4.1328125 16.98046875 C-4.85243711 18.95419645 -5.43601655 20.97629466 -6 23 C-7.15941038 19.52176885 -6.70820884 17.54104422 -6 14 C-12.81543407 6.87069725 -20.69182572 6.65518702 -30 6 C-30.33 4.35 -30.66 2.7 -31 1 C-30.34 2.32 -29.68 3.64 -29 5 C-19.76 5 -10.52 5 -1 5 C-0.67 3.35 -0.34 1.7 0 0 Z " fill="#6C6C6C" transform="translate(128,7)"/>
<path d="M0 0 C0.66 0 1.32 0 2 0 C1.19315107 2.42054679 0.33732102 4.80101817 -0.5625 7.1875 C-0.83191406 7.90292969 -1.10132812 8.61835938 -1.37890625 9.35546875 C-1.58386719 9.89816406 -1.78882812 10.44085938 -2 11 C-1.01 11 -0.02 11 1 11 C1 13.31 1 15.62 1 18 C-0.6396875 18.7734375 -0.6396875 18.7734375 -2.3125 19.5625 C-6.55183965 21.9396196 -7.51903023 24.46997482 -9 29 C-10.43088528 26.13822943 -9.59991697 24.06624227 -9 21 C-11.97 18.69 -14.94 16.38 -18 14 C-14.57905758 11.71937172 -13.31812778 11.78074993 -9.3125 11.875 C-7.82169922 11.90207031 -7.82169922 11.90207031 -6.30078125 11.9296875 C-5.54152344 11.95289063 -4.78226563 11.97609375 -4 12 C-3.79503906 11.21753906 -3.59007812 10.43507813 -3.37890625 9.62890625 C-3.10949219 8.61699219 -2.84007812 7.60507813 -2.5625 6.5625 C-2.29566406 5.55316406 -2.02882813 4.54382813 -1.75390625 3.50390625 C-1 1 -1 1 0 0 Z " fill="#686868" transform="translate(18,0)"/>
<path d="M0 0 C2 2 2 2 3 5 C12.34809779 5.66433182 21.62122392 6.1598655 31 6 C31.33 5.01 31.66 4.02 32 3 C32 3.99 32 4.98 32 6 C32.99 6 33.98 6 35 6 C35 7.65 35 9.3 35 11 C34.01 10.34 33.02 9.68 32 9 C29.25481679 8.75812349 29.25481679 8.75812349 26.3125 8.875 C25.31863281 8.89304687 24.32476562 8.91109375 23.30078125 8.9296875 C22.54152344 8.95289063 21.78226563 8.97609375 21 9 C21.68707031 9.12117187 22.37414062 9.24234375 23.08203125 9.3671875 C23.98308594 9.53476563 24.88414063 9.70234375 25.8125 9.875 C27.15248047 10.11863281 27.15248047 10.11863281 28.51953125 10.3671875 C31 11 31 11 34 13 C32.02 13.66 30.04 14.32 28 15 C27.87625 15.969375 27.7525 16.93875 27.625 17.9375 C27.315625 19.4534375 27.315625 19.4534375 27 21 C26.34 21.33 25.68 21.66 25 22 C25.33 19.69 25.66 17.38 26 15 C19.47850869 9.37985302 13.52307729 8.16969279 5.16015625 7.6171875 C2 7 2 7 0.55859375 5.1328125 C0 3 0 3 0 0 Z " fill="#5C5C5C" transform="translate(21,6)"/>
<path d="M0 0 C-0.33 0.99 -0.66 1.98 -1 3 C-1.99 3 -2.98 3 -4 3 C-4.020625 3.7425 -4.04125 4.485 -4.0625 5.25 C-5.14587926 8.42791249 -5.74474412 8.72751232 -8.5625 10.3125 C-9.696875 10.869375 -10.83125 11.42625 -12 12 C-9.87313433 2.78358209 -9.87313433 2.78358209 -6.5625 -0.1875 C-3.83311515 -1.05291471 -2.62178746 -1.06813563 0 0 Z " fill="#E4E4E4" transform="translate(133,20)"/>
<path d="M0 0 C0.99 0.33 1.98 0.66 3 1 C3.12117188 1.78246094 3.24234375 2.56492187 3.3671875 3.37109375 C3.53476562 4.38300781 3.70234375 5.39492187 3.875 6.4375 C4.03742187 7.44683594 4.19984375 8.45617187 4.3671875 9.49609375 C4.57601563 10.32238281 4.78484375 11.14867187 5 12 C5.66 12.33 6.32 12.66 7 13 C5.02 13.99 3.04 14.98 1 16 C1 13.69 1 11.38 1 9 C0.01 9 -0.98 9 -2 9 C-1.34 6.03 -0.68 3.06 0 0 Z " fill="#F9F9F9" transform="translate(18,2)"/>
<path d="M0 0 C0.99 0.33 1.98 0.66 3 1 C1.75 3 1.75 3 0 5 C-1.32 5 -2.64 5 -4 5 C-4 5.99 -4 6.98 -4 8 C-5.32 7.67 -6.64 7.34 -8 7 C-7.34 7 -6.68 7 -6 7 C-6 6.34 -6 5.68 -6 5 C-7.32 4.34 -8.64 3.68 -10 3 C-6.46997197 -0.69048385 -5.01708256 -1.22367867 0 0 Z " fill="#D7D7D7" transform="translate(143,15)"/>
<path d="M0 0 C0.66 0 1.32 0 2 0 C2.50615298 1.26839526 3.00469099 2.53983102 3.5 3.8125 C3.91765625 4.87404297 3.91765625 4.87404297 4.34375 5.95703125 C5 8 5 8 5 11 C6.32 11.33 7.64 11.66 9 12 C6.36 12.99 3.72 13.98 1 15 C1 12.03 1 9.06 1 6 C0.34 6 -0.32 6 -1 6 C-0.67 4.02 -0.34 2.04 0 0 Z " fill="#F5F5F5" transform="translate(93,3)"/>
<path d="M0 0 C5.21979128 -0.1799928 9.07262981 0.02905192 14 2 C12 4 12 4 9 5 C7.75501391 7.32269959 7.75501391 7.32269959 6.8125 10.0625 C6.46832031 10.98160156 6.12414062 11.90070312 5.76953125 12.84765625 C5.51558594 13.55792969 5.26164062 14.26820312 5 15 C3.74458443 11.23375329 4.62938042 9.62811066 6 6 C5.01 5.195625 4.02 4.39125 3 3.5625 C2.01 2.716875 1.02 1.87125 0 1 C0 0.67 0 0.34 0 0 Z " fill="#737373" transform="translate(79,16)"/>
<path d="M0 0 C0 0.66 0 1.32 0 2 C1.32 2.66 2.64 3.32 4 4 C3.01 4 2.02 4 1 4 C-3.08339373 5.24770364 -6.10450059 7.41054812 -9.44921875 9.9765625 C-11 11 -11 11 -13 11 C-12.34 9.68 -11.68 8.36 -11 7 C-10.67 7.33 -10.34 7.66 -10 8 C-9.67386719 7.50628906 -9.34773438 7.01257813 -9.01171875 6.50390625 C-8.57472656 5.86324219 -8.13773437 5.22257812 -7.6875 4.5625 C-7.04361328 3.60537109 -7.04361328 3.60537109 -6.38671875 2.62890625 C-4.52588462 0.44308137 -2.83687735 0 0 0 Z " fill="#7C7C7C" transform="translate(94,24)"/>
<path d="M0 0 C2.02218559 3.03327838 3.04968906 5.74827731 4.21875 9.16015625 C4.9486829 11.19834017 4.9486829 11.19834017 7 13 C5.02 13.66 3.04 14.32 1 15 C0.87625 14.030625 0.7525 13.06125 0.625 12.0625 C0.41875 11.051875 0.2125 10.04125 0 9 C-0.66 8.67 -1.32 8.34 -2 8 C-1.125 2.25 -1.125 2.25 0 0 Z " fill="#F9F9F9" transform="translate(56,2)"/>
<path d="M0 0 C0.66 1.32 1.32 2.64 2 4 C11.24 4 20.48 4 30 4 C30 4.33 30 4.66 30 5 C26.7 5.33 23.4 5.66 20 6 C20.33 6.99 20.66 7.98 21 9 C20.16210938 8.69320313 19.32421875 8.38640625 18.4609375 8.0703125 C14.8356299 6.94916771 11.38423194 6.37150233 7.625 5.875 C6.37976563 5.70742187 5.13453125 5.53984375 3.8515625 5.3671875 C2.91054687 5.24601563 1.96953125 5.12484375 1 5 C0.67 3.35 0.34 1.7 0 0 Z " fill="#262626" transform="translate(97,8)"/>
<path d="M0 0 C0.66 0.33 1.32 0.66 2 1 C1.34 1.66 0.68 2.32 0 3 C0.35645314 7.01009778 1.49934948 10.29839538 3 14 C3 14.99 3 15.98 3 17 C0.5625 16.3125 0.5625 16.3125 -2 15 C-3.74270445 10.76771776 -2.7901566 6.38177753 -2 2 C-1.34 1.34 -0.68 0.68 0 0 Z " fill="#414141" transform="translate(104,18)"/>
<path d="M0 0 C0.66 0.66 1.32 1.32 2 2 C4.19291082 2.45662153 6.40585889 2.820412 8.625 3.125 C10.40777344 3.37636719 10.40777344 3.37636719 12.2265625 3.6328125 C13.14179688 3.75398437 14.05703125 3.87515625 15 4 C14.01 5.32 13.02 6.64 12 8 C10.66666667 7.66666667 9.33333333 7.33333333 8 7 C7.319375 6.835 6.63875 6.67 5.9375 6.5 C4.2719596 6.07018312 2.63183658 5.54394553 1 5 C0.67 3.35 0.34 1.7 0 0 Z " fill="#606060" transform="translate(135,9)"/>
<path d="M0 0 C1.4540625 0.0309375 1.4540625 0.0309375 2.9375 0.0625 C2.9375 1.0525 2.9375 2.0425 2.9375 3.0625 C1.8546875 3.68125 1.8546875 3.68125 0.75 4.3125 C-3.01810343 6.65709769 -4.62605189 9.37302144 -7.0625 13.0625 C-8.0625 11.0625 -8.0625 11.0625 -7.3203125 8.71484375 C-6.94648437 7.81894531 -6.57265625 6.92304688 -6.1875 6 C-5.81882812 5.10152344 -5.45015625 4.20304687 -5.0703125 3.27734375 C-3.61258174 0.07372616 -3.61258174 0.07372616 0 0 Z " fill="#F0F0F0" transform="translate(91.0625,19.9375)"/>
<path d="M0 0 C1.41623216 -0.05447047 2.83308191 -0.09300508 4.25 -0.125 C5.03890625 -0.14820312 5.8278125 -0.17140625 6.640625 -0.1953125 C9.20731941 0.0171622 10.7916067 0.71345895 13 2 C11.6078125 2.5259375 11.6078125 2.5259375 10.1875 3.0625 C6.0142355 5.59919019 5.53814504 7.4710174 4 12 C3 10 3 10 3.6875 7.125 C4.38170538 3.89728194 4.38170538 3.89728194 2.0625 1.625 C1.381875 1.08875 0.70125 0.5525 0 0 Z " fill="#676767" transform="translate(5,17)"/>
<path d="M0 0 C1.93627769 -0.10807131 3.87427756 -0.1856225 5.8125 -0.25 C7.43091797 -0.31960938 7.43091797 -0.31960938 9.08203125 -0.390625 C12 0 12 0 13.88671875 2.015625 C14.25410156 2.67046875 14.62148437 3.3253125 15 4 C13.25138208 4.10853491 11.50080759 4.18583428 9.75 4.25 C8.77546875 4.29640625 7.8009375 4.3428125 6.796875 4.390625 C3.30425452 3.90282884 2.20480842 2.66676828 0 0 Z " fill="#F3F3F3" transform="translate(116,14)"/>
<path d="M0 0 C1.93627769 -0.10807131 3.87427756 -0.1856225 5.8125 -0.25 C7.43091797 -0.31960938 7.43091797 -0.31960938 9.08203125 -0.390625 C12 0 12 0 13.88671875 2.015625 C14.25410156 2.67046875 14.62148438 3.3253125 15 4 C13.25138208 4.10853491 11.50080759 4.18583428 9.75 4.25 C8.77546875 4.29640625 7.8009375 4.3428125 6.796875 4.390625 C3.30425452 3.90282884 2.20480842 2.66676828 0 0 Z " fill="#DCDCDC" transform="translate(3,14)"/>
<path d="M0 0 C2.0625 0.4375 2.0625 0.4375 4 1 C2.63629701 3.99220268 1.05091917 6.29026529 -1.125 8.75 C-1.93324219 9.67039062 -1.93324219 9.67039062 -2.7578125 10.609375 C-3.16773438 11.06828125 -3.57765625 11.5271875 -4 12 C-5 9 -5 9 -4.2578125 6.9921875 C-3.88398438 6.29351562 -3.51015625 5.59484375 -3.125 4.875 C-2.75632812 4.17117187 -2.38765625 3.46734375 -2.0078125 2.7421875 C-1 1 -1 1 0 0 Z " fill="#EFEFEF" transform="translate(13,20)"/>
<path d="M0 0 C-0.33 0.66 -0.66 1.32 -1 2 C-3.5625 2.625 -3.5625 2.625 -6 3 C-6.185625 4.4540625 -6.185625 4.4540625 -6.375 5.9375 C-6.58125 6.948125 -6.7875 7.95875 -7 9 C-7.99 9.495 -7.99 9.495 -9 10 C-8.6596875 8.3603125 -8.6596875 8.3603125 -8.3125 6.6875 C-7.59853617 3.09468727 -7.59853617 3.09468727 -9.4375 1.0625 C-9.953125 0.711875 -10.46875 0.36125 -11 0 C-6.94952424 -1.35015859 -4.2079832 -0.62084998 0 0 Z " fill="#6B6B6B" transform="translate(55,18)"/>
<path d="M0 0 C8.57142857 -0.14285714 8.57142857 -0.14285714 12 1 C11.34 2.32 10.68 3.64 10 5 C9.34 4.67 8.68 4.34 8 4 C4.21293268 4 0.73486879 4.4254048 -3 5 C-2 3 -2 3 1 2 C0.67 1.34 0.34 0.68 0 0 Z " fill="#A3A3A3" transform="translate(98,13)"/>
<path d="M0 0 C0.103125 0.598125 0.20625 1.19625 0.3125 1.8125 C0.82484936 4.07883283 0.82484936 4.07883283 2.5625 5.4375 C4 7 4 7 4.1875 9.6875 C4.125625 10.450625 4.06375 11.21375 4 12 C2 11 2 11 0 8 C-2.6556728 7.41651248 -2.6556728 7.41651248 -5.625 7.3125 C-6.62789063 7.24675781 -7.63078125 7.18101563 -8.6640625 7.11328125 C-9.43492188 7.07589844 -10.20578125 7.03851562 -11 7 C-11 6.67 -11 6.34 -11 6 C-7.7 6 -4.4 6 -1 6 C-0.67 4.02 -0.34 2.04 0 0 Z " fill="#909090" transform="translate(128,7)"/>
<path d="M0 0 C1.32 0.33 2.64 0.66 4 1 C1.15820812 3.32510245 -1.72826599 5.57700599 -4.6875 7.75 C-5.26886719 8.17796875 -5.85023437 8.6059375 -6.44921875 9.046875 C-8 10 -8 10 -10 10 C-9.67 8.35 -9.34 6.7 -9 5 C-8.01 5 -7.02 5 -6 5 C-2.75685563 3.72239767 -2.02041177 3.03061766 0 0 Z " fill="#505050" transform="translate(129,25)"/>
<path d="M0 0 C0 2 0 2 -2.3125 4.5 C-5 7 -5 7 -8 9 C-7.71872579 7.51882199 -7.42466268 6.04006751 -7.125 4.5625 C-6.96257813 3.73878906 -6.80015625 2.91507813 -6.6328125 2.06640625 C-6.42398438 1.38449219 -6.21515625 0.70257812 -6 0 C-3.50907189 -1.24546405 -2.58919267 -0.7767578 0 0 Z " fill="#F8F8F8" transform="translate(55,21)"/>
<path d="M0 0 C1.93627769 -0.10807131 3.87427756 -0.1856225 5.8125 -0.25 C7.43091797 -0.31960938 7.43091797 -0.31960938 9.08203125 -0.390625 C12 0 12 0 13.88671875 2.015625 C14.25410156 2.67046875 14.62148437 3.3253125 15 4 C13.06166004 3.91284983 11.1242571 3.80467036 9.1875 3.6875 C8.10855469 3.62949219 7.02960938 3.57148438 5.91796875 3.51171875 C2.82502483 2.96931493 1.86977097 2.44710376 0 0 Z " fill="#F2F2F2" transform="translate(78,14)"/>
<path d="M0 0 C0.57234375 0.21527344 1.1446875 0.43054688 1.734375 0.65234375 C0.744375 0.98234375 -0.245625 1.31234375 -1.265625 1.65234375 C-3.85145989 3.46412938 -6.3684123 5.35474014 -8.890625 7.25390625 C-9.674375 7.71539062 -10.458125 8.176875 -11.265625 8.65234375 C-12.255625 8.32234375 -13.245625 7.99234375 -14.265625 7.65234375 C-13.605625 6.00234375 -12.945625 4.35234375 -12.265625 2.65234375 C-11.605625 3.31234375 -10.945625 3.97234375 -10.265625 4.65234375 C-9.73453125 4.27980469 -9.2034375 3.90726563 -8.65625 3.5234375 C-7.94984375 3.05035156 -7.2434375 2.57726562 -6.515625 2.08984375 C-5.81953125 1.61417969 -5.1234375 1.13851563 -4.40625 0.6484375 C-2.265625 -0.34765625 -2.265625 -0.34765625 0 0 Z " fill="#3C3C3C" transform="translate(57.265625,26.34765625)"/>
<path d="M0 0 C2 1 2 1 3.0703125 3.65234375 C3.41835937 4.73644531 3.76640625 5.82054687 4.125 6.9375 C4.47820312 8.01902344 4.83140625 9.10054687 5.1953125 10.21484375 C6 13 6 13 6 15 C3.525 14.01 3.525 14.01 1 13 C1 12.01 1 11.02 1 10 C0.84739214 8.26953591 0.67951995 6.54037955 0.5 4.8125 C0.4071875 3.91144531 0.314375 3.01039062 0.21875 2.08203125 C0.1465625 1.39496094 0.074375 0.70789063 0 0 Z " fill="#4E4E4E" transform="translate(139,20)"/>
<path d="M0 0 C-3.61139896 3.69948187 -3.61139896 3.69948187 -6 5 C-9.875 4.3125 -9.875 4.3125 -13 3 C-4.58823529 -1.52941176 -4.58823529 -1.52941176 0 0 Z " fill="#F7F7F7" transform="translate(108,16)"/>
<path d="M0 0 C3.96 0 7.92 0 12 0 C12.66 1.32 13.32 2.64 14 4 C11.85270859 3.71926927 9.70716807 3.42511501 7.5625 3.125 C6.36753906 2.96257813 5.17257813 2.80015625 3.94140625 2.6328125 C2.97074219 2.42398437 2.00007813 2.21515625 1 2 C0.67 1.34 0.34 0.68 0 0 Z " fill="#F4F4F4" transform="translate(41,14)"/>
<path d="M0 0 C-1.95467752 1.33898399 -3.9133579 2.67129047 -5.875 4 C-6.96554688 4.7425 -8.05609375 5.485 -9.1796875 6.25 C-12 8 -12 8 -14 8 C-13.67 6.35 -13.34 4.7 -13 3 C-12.01 3 -11.02 3 -10 3 C-8.1618269 2.02660379 -6.46106959 0.91214401 -4.71875 -0.22265625 C-3 -1 -3 -1 0 0 Z " fill="#444444" transform="translate(20,27)"/>
<path d="M0 0 C2 1 2 1 3.0703125 3.65234375 C3.41835938 4.73644531 3.76640625 5.82054687 4.125 6.9375 C4.47820313 8.01902344 4.83140625 9.10054687 5.1953125 10.21484375 C6 13 6 13 6 15 C3.525 14.01 3.525 14.01 1 13 C1.33 12.34 1.66 11.68 2 11 C1.75378093 9.11515056 1.43111913 7.23977913 1.0625 5.375 C0.86785156 4.37210938 0.67320313 3.36921875 0.47265625 2.3359375 C0.31667969 1.56507812 0.16070313 0.79421875 0 0 Z " fill="#4E4E4E" transform="translate(26,20)"/>
<path d="M0 0 C2 1 2 1 2.81640625 3.14453125 C3.06261719 4.02496094 3.30882813 4.90539062 3.5625 5.8125 C3.81128906 6.68519531 4.06007813 7.55789062 4.31640625 8.45703125 C4.90134027 10.63298581 5.46434428 12.81146376 6 15 C4.68 14.67 3.36 14.34 2 14 C2 13.01 2 12.02 2 11 C1.67 9.865625 1.34 8.73125 1 7.5625 C0 4 0 4 0 0 Z " fill="#474747" transform="translate(64,20)"/>
<path d="M0 0 C0 1.32 0 2.64 0 4 C-2.91482778 4.80967438 -4.46113217 5.21845993 -7.3125 4.0625 C-7.869375 3.711875 -8.42625 3.36125 -9 3 C-5.73209435 0.82139623 -3.91954654 0 0 0 Z " fill="#EEEEEE" transform="translate(67,16)"/>
<path d="M0 0 C0.99 0.33 1.98 0.66 3 1 C-0.46741134 3.95749791 -3.86873527 6.07848152 -8 8 C-7.67 6.68 -7.34 5.36 -7 4 C-6.34 4 -5.68 4 -5 4 C-4.195625 3.319375 -3.39125 2.63875 -2.5625 1.9375 C-1.716875 1.298125 -0.87125 0.65875 0 0 Z " fill="#A1A1A1" transform="translate(54,24)"/>
<path d="M0 0 C8.57142857 -0.14285714 8.57142857 -0.14285714 12 1 C11.67 1.99 11.34 2.98 11 4 C9.66666667 3.66666667 8.33333333 3.33333333 7 3 C5.9790625 2.7834375 5.9790625 2.7834375 4.9375 2.5625 C3 2 3 2 0 0 Z " fill="#959595" transform="translate(23,13)"/>
<path d="M0 0 C2 3 2 3 3 6 C2.34 6 1.68 6 1 6 C0.67 6.99 0.34 7.98 0 9 C-0.66 8.67 -1.32 8.34 -2 8 C-1.125 2.25 -1.125 2.25 0 0 Z " fill="#E9E9E9" transform="translate(56,2)"/>
<path d="M0 0 C0.99 0.33 1.98 0.66 3 1 C2 4 2 4 1 5 C1 6.32 1 7.64 1 9 C0.01 9 -0.98 9 -2 9 C-1.34 6.03 -0.68 3.06 0 0 Z " fill="#C6C6C6" transform="translate(18,2)"/>
<path d="M0 0 C2.97 0.99 5.94 1.98 9 3 C8.67 3.66 8.34 4.32 8 5 C4.7 4.01 1.4 3.02 -2 2 C-1.34 1.34 -0.68 0.68 0 0 Z " fill="#C8C8C8" transform="translate(93,18)"/>
<path d="M0 0 C1.98 0 3.96 0 6 0 C6 0.66 6 1.32 6 2 C6.99 2.33 7.98 2.66 9 3 C6.75 3.75 6.75 3.75 4 4 C1.6875 2.0625 1.6875 2.0625 0 0 Z " fill="#DADADA" transform="translate(116,14)"/>
<path d="M0 0 C2.3125 -0.25 2.3125 -0.25 5 0 C6.8125 2 6.8125 2 8 4 C2.25 3.125 2.25 3.125 0 2 C0 1.34 0 0.68 0 0 Z " fill="#F3F3F3" transform="translate(10,14)"/>
<path d="M0 0 C0.33 0.66 0.66 1.32 1 2 C1.66 2 2.32 2 3 2 C3 3.98 3 5.96 3 8 C2.67 7.34 2.34 6.68 2 6 C1.01 6.33 0.02 6.66 -1 7 C-0.67 4.69 -0.34 2.38 0 0 Z " fill="#C4C4C4" transform="translate(129,6)"/>
<path d="M0 0 C0.66 0.33 1.32 0.66 2 1 C0.87926138 1.83905565 -0.24674547 2.67107831 -1.375 3.5 C-2.00148438 3.9640625 -2.62796875 4.428125 -3.2734375 4.90625 C-5 6 -5 6 -7 6 C-6.34 4.68 -5.68 3.36 -5 2 C-4.34 2 -3.68 2 -3 2 C-2.01 1.34 -1.02 0.68 0 0 Z " fill="#333333" transform="translate(88,29)"/>
<path d="M0 0 C1.9451 2.91765 2.45276317 4.62537285 3 8 C1.68 7.67 0.36 7.34 -1 7 C-0.67 6.34 -0.34 5.68 0 5 C-0.32380126 3.66431979 -0.65657551 2.33076989 -1 1 C-0.67 0.67 -0.34 0.34 0 0 Z " fill="#929292" transform="translate(102,25)"/>
</svg>
