<?xml version="1.0" encoding="UTF-8"?>
<svg version="1.1" xmlns="http://www.w3.org/2000/svg" width="60" height="57">
<path d="M0 0 C3 1 3 1 3.89135742 2.64233398 C4.12701416 3.33657471 4.3626709 4.03081543 4.60546875 4.74609375 C4.86650391 5.50083984 5.12753906 6.25558594 5.39648438 7.03320312 C5.65751953 7.82662109 5.91855469 8.62003906 6.1875 9.4375 C6.46013672 10.22705078 6.73277344 11.01660156 7.01367188 11.83007812 C9 17.66958412 9 17.66958412 9 20 C19.89 20.495 19.89 20.495 31 21 C31 21.66 31 22.32 31 23 C29.62304687 24.23681641 29.62304687 24.23681641 27.71875 25.6015625 C27.04199219 26.09140625 26.36523438 26.58125 25.66796875 27.0859375 C24.95253906 27.59382813 24.23710938 28.10171875 23.5 28.625 C22.78457031 29.140625 22.06914063 29.65625 21.33203125 30.1875 C19.55879571 31.46422959 17.78140052 32.73470027 16 34 C16.66345844 39.25727825 18.25580304 43.92859068 20.0625 48.875 C20.48499023 50.050625 20.48499023 50.050625 20.91601562 51.25 C21.60613782 53.16830576 22.30244316 55.08438519 23 57 C17.96617902 55.3518456 13.9739509 52.39351949 9.6875 49.375 C8.94693359 48.859375 8.20636719 48.34375 7.44335938 47.8125 C5.62577303 46.54605274 3.81149162 45.27514241 2 44 C-2.83747977 46.68680405 -7.41655691 49.5630206 -11.9375 52.75 C-12.82018555 53.36681641 -12.82018555 53.36681641 -13.72070312 53.99609375 C-15.14899717 54.99473837 -16.57477299 55.9969831 -18 57 C-19.10510616 53.68468153 -18.96024836 53.1958456 -17.78515625 50.09375 C-17.51123047 49.34996094 -17.23730469 48.60617188 -16.95507812 47.83984375 C-16.66052734 47.06769531 -16.36597656 46.29554687 -16.0625 45.5 C-15.48664315 43.97034034 -14.91485285 42.43914198 -14.34765625 40.90625 C-14.08992432 40.22884766 -13.83219238 39.55144531 -13.56665039 38.85351562 C-12.85382033 36.84487879 -12.85382033 36.84487879 -13 34 C-14.49208781 32.59058722 -14.49208781 32.59058722 -16.5 31.37109375 C-17.221875 30.89349609 -17.94375 30.41589844 -18.6875 29.92382812 C-19.450625 29.43333984 -20.21375 28.94285156 -21 28.4375 C-22.50401118 27.46319546 -24.00424436 26.48302537 -25.5 25.49609375 C-26.1703125 25.06482178 -26.840625 24.6335498 -27.53125 24.18920898 C-28.0159375 23.79677002 -28.500625 23.40433105 -29 23 C-29 22.34 -29 21.68 -29 21 C-21.307359 20.15199233 -13.73708326 19.87847513 -6 20 C-5.7525 18.741875 -5.505 17.48375 -5.25 16.1875 C-4.02166198 10.59767191 -2.05312625 5.33214826 0 0 Z " fill="#D6D6D6" transform="translate(29,0)"/>
<path d="M0 0 C3 1 3 1 3.89135742 2.64233398 C4.12701416 3.33657471 4.3626709 4.03081543 4.60546875 4.74609375 C4.86650391 5.50083984 5.12753906 6.25558594 5.39648438 7.03320312 C5.65751953 7.82662109 5.91855469 8.62003906 6.1875 9.4375 C6.46013672 10.22705078 6.73277344 11.01660156 7.01367188 11.83007812 C9 17.66958412 9 17.66958412 9 20 C19.89 20.495 19.89 20.495 31 21 C31 21.66 31 22.32 31 23 C29.62304687 24.23681641 29.62304687 24.23681641 27.71875 25.6015625 C27.04199219 26.09140625 26.36523438 26.58125 25.66796875 27.0859375 C24.95253906 27.59382813 24.23710938 28.10171875 23.5 28.625 C22.78457031 29.140625 22.06914063 29.65625 21.33203125 30.1875 C19.55879571 31.46422959 17.78140052 32.73470027 16 34 C16.66345844 39.25727825 18.25580304 43.92859068 20.0625 48.875 C20.48499023 50.050625 20.48499023 50.050625 20.91601562 51.25 C21.60613782 53.16830576 22.30244316 55.08438519 23 57 C17.96617902 55.3518456 13.9739509 52.39351949 9.6875 49.375 C8.94693359 48.859375 8.20636719 48.34375 7.44335938 47.8125 C5.62577303 46.54605274 3.81149162 45.27514241 2 44 C-2.83747977 46.68680405 -7.41655691 49.5630206 -11.9375 52.75 C-12.82018555 53.36681641 -12.82018555 53.36681641 -13.72070312 53.99609375 C-15.14899717 54.99473837 -16.57477299 55.9969831 -18 57 C-19.10510616 53.68468153 -18.96024836 53.1958456 -17.78515625 50.09375 C-17.51123047 49.34996094 -17.23730469 48.60617188 -16.95507812 47.83984375 C-16.66052734 47.06769531 -16.36597656 46.29554687 -16.0625 45.5 C-15.48664315 43.97034034 -14.91485285 42.43914198 -14.34765625 40.90625 C-14.08992432 40.22884766 -13.83219238 39.55144531 -13.56665039 38.85351562 C-12.85382033 36.84487879 -12.85382033 36.84487879 -13 34 C-14.49208781 32.59058722 -14.49208781 32.59058722 -16.5 31.37109375 C-17.221875 30.89349609 -17.94375 30.41589844 -18.6875 29.92382812 C-19.450625 29.43333984 -20.21375 28.94285156 -21 28.4375 C-22.50401118 27.46319546 -24.00424436 26.48302537 -25.5 25.49609375 C-26.1703125 25.06482178 -26.840625 24.6335498 -27.53125 24.18920898 C-28.0159375 23.79677002 -28.500625 23.40433105 -29 23 C-29 22.34 -29 21.68 -29 21 C-21.307359 20.15199233 -13.73708326 19.87847513 -6 20 C-5.7525 18.741875 -5.505 17.48375 -5.25 16.1875 C-4.02166198 10.59767191 -2.05312625 5.33214826 0 0 Z M1 2 C-1.31 8.27 -3.62 14.54 -6 21 C-12.6 21.33 -19.2 21.66 -26 22 C-22.48022006 25.51977994 -19.68948416 28.09115077 -15.6875 30.8125 C-14.80449219 31.41707031 -13.92148438 32.02164063 -13.01171875 32.64453125 C-12.34785156 33.09183594 -11.68398438 33.53914063 -11 34 C-11.37253906 35.04800781 -11.74507812 36.09601562 -12.12890625 37.17578125 C-12.60724523 38.55452301 -13.08508383 39.93343843 -13.5625 41.3125 C-13.80935547 42.00279297 -14.05621094 42.69308594 -14.31054688 43.40429688 C-15.82994651 47.65313005 -15.82994651 47.65313005 -15 52 C-14.278125 51.05125 -13.55625 50.1025 -12.8125 49.125 C-10.45259722 46.27845061 -8.53908093 45.17969364 -5 44 C-3.63634717 43.04175747 -2.29205831 42.05278825 -1 41 C1.80392784 42.33650257 4.33931145 43.8321031 6.890625 45.6015625 C7.59960938 46.09140625 8.30859375 46.58125 9.0390625 47.0859375 C9.76867188 47.59382813 10.49828125 48.10171875 11.25 48.625 C12.36761719 49.3984375 12.36761719 49.3984375 13.5078125 50.1875 C15.3401493 51.45604086 17.17080439 52.72693579 19 54 C20.10960573 50.67118282 19.9412896 50.12635748 18.78515625 46.98828125 C18.51123047 46.23095703 18.23730469 45.47363281 17.95507812 44.69335938 C17.66052734 43.90767578 17.36597656 43.12199219 17.0625 42.3125 C16.77181641 41.51521484 16.48113281 40.71792969 16.18164062 39.89648438 C15.46260698 37.92798243 14.73236297 35.96358188 14 34 C15.010625 33.21753906 16.02125 32.43507813 17.0625 31.62890625 C18.37512624 30.60693296 19.68761942 29.58478874 21 28.5625 C21.66773438 28.04623047 22.33546875 27.52996094 23.0234375 26.99804688 C24.70077134 25.68869954 26.35264994 24.34687677 28 23 C28 22.67 28 22.34 28 22 C21.73 21.67 15.46 21.34 9 21 C6.69 14.73 4.38 8.46 2 2 C1.67 2 1.34 2 1 2 Z " fill="#2A2A2A" transform="translate(29,0)"/>
<path d="M0 0 C0.804375 0.99 1.60875 1.98 2.4375 3 C4.70746291 6.34850151 4.70746291 6.34850151 8.3125 6.375 C9.199375 6.25125 10.08625 6.1275 11 6 C10.40058594 7.08861328 10.40058594 7.08861328 9.7890625 8.19921875 C8.64194161 11.02259546 8.64194161 11.02259546 10.3359375 13.45703125 C11.00882813 14.23433594 11.68171875 15.01164062 12.375 15.8125 C13.04273437 16.60269531 13.71046875 17.39289062 14.3984375 18.20703125 C14.92695312 18.79871094 15.45546875 19.39039062 16 20 C11.9035832 20 9.68124569 17.88671387 6.5 15.5625 C2.03540667 12.27198116 2.03540667 12.27198116 -3 10 C-4.69672386 11.29486821 -6.3603279 12.63360658 -8 14 C-8.825 14.309375 -9.65 14.61875 -10.5 14.9375 C-13.75131118 16.31930725 -15.62868409 18.42542844 -18 21 C-17.08849731 14.51281594 -15.53688654 5.97970579 -10.2890625 1.55859375 C-7.0188677 0.08057994 -3.48787937 -0.82607669 0 0 Z " fill="#F2F2F2" transform="translate(31,31)"/>
<path d="M0 0 C2.7327834 4.0991751 4.00358313 8.68642217 5.4375 13.37109375 C6.21076162 15.79548257 6.21076162 15.79548257 8 19 C11.08952325 20.12855305 11.08952325 20.12855305 14 20 C12.5438656 22.91226879 10.50039336 23.31842064 7.5625 24.625 C6.57378906 25.07101563 5.58507812 25.51703125 4.56640625 25.9765625 C2 27 2 27 0 27 C0 22.71 0 18.42 0 14 C-1.32 14.33 -2.64 14.66 -4 15 C-3.50341703 9.33895411 -2.45489316 5.12325529 0 0 Z " fill="#F2F2F2" transform="translate(30,2)"/>
<path d="M0 0 C3.39494112 -0.20402829 6.78830486 -0.32784854 10.1875 -0.4375 C11.14720703 -0.49615234 12.10691406 -0.55480469 13.09570312 -0.61523438 C20.11487607 -0.78524894 20.11487607 -0.78524894 22.79150391 1.58935547 C24.17578125 3.52734375 24.17578125 3.52734375 26 7 C25.09636719 6.90460937 24.19273438 6.80921875 23.26171875 6.7109375 C22.08222656 6.60007812 20.90273438 6.48921875 19.6875 6.375 C17.92986328 6.20097656 17.92986328 6.20097656 16.13671875 6.0234375 C12.83408833 5.70551218 12.83408833 5.70551218 10 8 C8.33055479 6.85821872 6.6645052 5.71147095 5 4.5625 C4.071875 3.92441406 3.14375 3.28632813 2.1875 2.62890625 C1.465625 2.09136719 0.74375 1.55382812 0 1 C0 0.67 0 0.34 0 0 Z " fill="#F7F7F7" transform="translate(3,22)"/>
<path d="M0 0 C0.7425 0.804375 1.485 1.60875 2.25 2.4375 C4.83233522 4.84376691 5.67179948 5.55623993 9 6 C9.99 6.33 10.98 6.66 12 7 C11.34 8.32 10.68 9.64 10 11 C12.31 13.97 14.62 16.94 17 20 C12.93876244 20 10.56059262 18.0708936 7.3125 15.875 C6.40274414 15.30652344 6.40274414 15.30652344 5.47460938 14.7265625 C3.73828125 13.5546875 3.73828125 13.5546875 1 11 C0.60546875 7.6953125 0.60546875 7.6953125 1 5 C0.01 4.67 -0.98 4.34 -2 4 C-1.34 2.68 -0.68 1.36 0 0 Z " fill="#F8F8F8" transform="translate(30,31)"/>
<path d="M0 0 C-11.67264574 10.95695067 -11.67264574 10.95695067 -17.37890625 11.0625 C-20.10902267 10.26517786 -22.50524834 9.35938509 -25 8 C-24 6 -24 6 -21.89868164 5.11450195 C-20.54311157 4.68077271 -20.54311157 4.68077271 -19.16015625 4.23828125 C-18.17982422 3.92439453 -17.19949219 3.61050781 -16.18945312 3.28710938 C-15.15755859 2.96548828 -14.12566406 2.64386719 -13.0625 2.3125 C-12.03447266 1.97927734 -11.00644531 1.64605469 -9.94726562 1.30273438 C-2.25398013 -1.12699007 -2.25398013 -1.12699007 0 0 Z " fill="#F5F5F5" transform="translate(57,23)"/>
<path d="M0 0 C2.75361142 2.75361142 3.47414027 5.99845364 4.625 9.625 C4.96917969 10.68460938 4.96917969 10.68460938 5.3203125 11.765625 C5.88562421 13.50866945 6.44352544 15.25411416 7 17 C1.96617902 15.3518456 -2.0260491 12.39351949 -6.3125 9.375 C-7.05306641 8.859375 -7.79363281 8.34375 -8.55664062 7.8125 C-10.37422697 6.54605274 -12.18850838 5.27514241 -14 4 C-15.10472656 4.62390625 -16.20945312 5.2478125 -17.34765625 5.890625 C-17.96906494 6.24157227 -18.59047363 6.59251953 -19.23071289 6.95410156 C-21.27369219 8.16179072 -23.1475628 9.51805024 -25 11 C-25.66 10.67 -26.32 10.34 -27 10 C-25.28526178 8.62760882 -23.55257992 7.27761439 -21.8125 5.9375 C-20.84957031 5.18339844 -19.88664062 4.42929687 -18.89453125 3.65234375 C-16 2 -16 2 -13.48828125 2.0078125 C-10.38219673 3.24634542 -8.03422551 4.91194669 -5.375 6.9375 C-4.43398438 7.64777344 -3.49296875 8.35804687 -2.5234375 9.08984375 C-1.69070312 9.72019531 -0.85796875 10.35054687 0 11 C0.99 11.66 1.98 12.32 3 13 C2.7834375 12.31292969 2.566875 11.62585937 2.34375 10.91796875 C2.0653125 10.01691406 1.786875 9.11585937 1.5 8.1875 C1.2215625 7.29417969 0.943125 6.40085937 0.65625 5.48046875 C0 3 0 3 0 0 Z " fill="#252525" transform="translate(45,40)"/>
<path d="M0 0 C4.71403788 0.47939368 8.66579301 0.96834048 13 3 C9.46972093 5.35351938 6.24052625 6.61604893 2 7 C-0.5 5.625 -0.5 5.625 -2 4 C-1.34 2.68 -0.68 1.36 0 0 Z " fill="#818181" transform="translate(16,27)"/>
<path d="M0 0 C0.33 0.66 0.66 1.32 1 2 C2.32 1.67 3.64 1.34 5 1 C5 5.29 5 9.58 5 14 C-1.19402985 9.04477612 -1.19402985 9.04477612 -2 6 C-1.125 2.75 -1.125 2.75 0 0 Z " fill="#AEAEAE" transform="translate(25,15)"/>
<path d="M0 0 C-2.5872505 2.5872505 -4.88277471 3.06556087 -8.375 4.125 C-9.51710938 4.47820313 -10.65921875 4.83140625 -11.8359375 5.1953125 C-15 6 -15 6 -19 6 C-19 5.34 -19 4.68 -19 4 C-12.45783241 0.05001202 -7.57771707 -0.50146657 0 0 Z " fill="#BEBEBE" transform="translate(55,22)"/>
<path d="M0 0 C0.99 0.33 1.98 0.66 3 1 C-0.80942969 4.1278933 -4.74950964 6.96886725 -8.8125 9.75 C-9.40998047 10.16121094 -10.00746094 10.57242188 -10.62304688 10.99609375 C-12.08087454 11.99907918 -13.54027474 12.9997783 -15 14 C-15.33 13.34 -15.66 12.68 -16 12 C-9 5 -9 5 -6.625 4.0625 C-3.950395 3.12383248 -3.950395 3.12383248 -1.875 1.3125 C-1.25625 0.879375 -0.6375 0.44625 0 0 Z " fill="#898989" transform="translate(28,40)"/>
<path d="M0 0 C0.33 0.66 0.66 1.32 1 2 C1.99 2.33 2.98 2.66 4 3 C4 8.61 4 14.22 4 20 C3.67 20 3.34 20 3 20 C3 15.71 3 11.42 3 7 C1.68 7.33 0.36 7.66 -1 8 C-0.67 5.36 -0.34 2.72 0 0 Z " fill="#DCDCDC" transform="translate(27,9)"/>
<path d="M0 0 C1.60938465 2.41407698 2.65490738 4.34044437 3.6875 7 C3.95949219 7.680625 4.23148438 8.36125 4.51171875 9.0625 C5 11 5 11 4 14 C1.72956696 11.47302085 -0.35458674 8.98097598 -2 6 C-1.375 2.5 -1.375 2.5 0 0 Z " fill="#919191" transform="translate(44,40)"/>
<path d="M0 0 C0 0.99 0 1.98 0 3 C-3.5460927 5.80388725 -6.4926374 7.46972205 -11 8 C-8.21659292 4.18570141 -5.12174212 0 0 0 Z " fill="#BFBFBF" transform="translate(30,37)"/>
<path d="M0 0 C1.31223496 3.93670488 0.24296256 6.12488144 -1 10 C0.65 9.34 2.3 8.68 4 8 C-0.625 12.875 -0.625 12.875 -4 14 C-3.00956295 9.16371695 -2.04301154 4.52381127 0 0 Z " fill="#191919" transform="translate(14,43)"/>
<path d="M0 0 C2.75361142 2.75361142 3.47414027 5.99845364 4.625 9.625 C4.96917969 10.68460938 4.96917969 10.68460938 5.3203125 11.765625 C5.88562421 13.50866945 6.44352544 15.25411416 7 17 C4.525 16.01 4.525 16.01 2 15 C2.66 14.67 3.32 14.34 4 14 C3.566875 12.86111328 3.566875 12.86111328 3.125 11.69921875 C2.75375 10.70535156 2.3825 9.71148437 2 8.6875 C1.62875 7.70136719 1.2575 6.71523438 0.875 5.69921875 C0 3 0 3 0 0 Z " fill="#191919" transform="translate(45,40)"/>
<path d="M0 0 C-1.65 1.32 -3.3 2.64 -5 4 C-6.65 2.68 -8.3 1.36 -10 0 C-6.7169902 -1.6415049 -3.57454967 -0.51888624 0 0 Z " fill="#C4C4C4" transform="translate(18,26)"/>
<path d="M0 0 C0.66 0 1.32 0 2 0 C2 2.64 2 5.28 2 8 C0.68 7.01 -0.64 6.02 -2 5 C-1.125 1.125 -1.125 1.125 0 0 Z " fill="#848484" transform="translate(28,21)"/>
<path d="M0 0 C-2.42130331 2.42130331 -3.80111377 2.52840504 -7.125 3.125 C-8.49011719 3.37636719 -8.49011719 3.37636719 -9.8828125 3.6328125 C-10.58148438 3.75398438 -11.28015625 3.87515625 -12 4 C-9.57836922 -0.84326157 -4.82936706 -0.18574489 0 0 Z " fill="#9E9E9E" transform="translate(55,22)"/>
<path d="M0 0 C2.31 0.66 4.62 1.32 7 2 C6.34 2.66 5.68 3.32 5 4 C2.9375 3.8125 2.9375 3.8125 1 3 C0.67 2.01 0.34 1.02 0 0 Z " fill="#B8B8B8" transform="translate(32,31)"/>
</svg>
