<?xml version="1.0" encoding="UTF-8"?>
<svg version="1.1" xmlns="http://www.w3.org/2000/svg" width="135" height="42">
<path d="M0 0 C3 3 3 3 7 14 C23.335 14.495 23.335 14.495 40 15 C40.33 13.35 40.66 11.7 41 10 C41.64896826 8.2146857 42.33687105 6.44305392 43.0625 4.6875 C43.60583984 3.36298828 43.60583984 3.36298828 44.16015625 2.01171875 C44.57587891 1.01591797 44.57587891 1.01591797 45 0 C45.66 0 46.32 0 47 0 C48.65 4.62 50.3 9.24 52 14 C68.335 14.495 68.335 14.495 85 15 C85.99 11.7 86.98 8.4 88 5 C88.63763539 3.32201212 89.28627281 1.64706275 90 0 C90.66 0 91.32 0 92 0 C92.83739781 2.1234016 93.66980283 4.2487728 94.5 6.375 C95.19609375 8.15003906 95.19609375 8.15003906 95.90625 9.9609375 C97 13 97 13 97 15 C102.28 15 107.56 15 113 15 C111.09559036 18.80881929 110.26335631 19.87446857 107 22.25 C106.29875 22.77078125 105.5975 23.2915625 104.875 23.828125 C103 25 103 25 101 25 C101.433125 26.05960938 101.86625 27.11921875 102.3125 28.2109375 C102.87518135 29.59888483 103.43767145 30.9869097 104 32.375 C104.28617187 33.07367188 104.57234375 33.77234375 104.8671875 34.4921875 C107 39.7734375 107 39.7734375 107 42 C103.04093183 40.56691865 99.71281819 38.66858051 96.1875 36.375 C95.21167969 35.74335937 94.23585938 35.11171875 93.23046875 34.4609375 C92.49441406 33.97882812 91.75835937 33.49671875 91 33 C90.08476563 33.6496875 89.16953125 34.299375 88.2265625 34.96875 C87.02621395 35.81274508 85.82568366 36.65648173 84.625 37.5 C84.02171875 37.92925781 83.4184375 38.35851563 82.796875 38.80078125 C78.2265625 42 78.2265625 42 76 42 C77.16651426 36.07136283 78.75519358 30.61201606 81 25 C80.484375 24.773125 79.96875 24.54625 79.4375 24.3125 C77.23601135 23.12708303 75.51841209 21.84989815 73.5625 20.3125 C70.83412238 18.36749511 70.83412238 18.36749511 67.5625 17.8125 C63.62372869 19.63778427 60.35911357 22.2743669 57 25 C59.28154322 33.56533704 59.28154322 33.56533704 62 42 C57.92546771 41.37695259 55.10460299 39.23467379 51.75 36.9375 C50.67234375 36.20402344 49.5946875 35.47054687 48.484375 34.71484375 C47.25460938 33.86599609 47.25460938 33.86599609 46 33 C44.2063257 34.1217963 42.4151227 35.24754483 40.625 36.375 C39.62726562 37.00148437 38.62953125 37.62796875 37.6015625 38.2734375 C34.9751981 39.89269712 34.9751981 39.89269712 33 42 C32.01 41.67 31.02 41.34 30 41 C31.65 36.05 33.3 31.1 35 26 C33.2675 24.659375 31.535 23.31875 29.75 21.9375 C28.28820313 20.80634766 28.28820313 20.80634766 26.796875 19.65234375 C24.24059752 17.80626939 24.24059752 17.80626939 21.90625 18.0625 C19.63158973 19.18118538 17.74584632 20.49908705 15.75 22.0625 C14.69039062 22.88427734 14.69039062 22.88427734 13.609375 23.72265625 C13.07828125 24.14417969 12.5471875 24.56570312 12 25 C12.54797564 29.3838051 13.70788188 33.11433547 15.37890625 37.16796875 C16 39 16 39 16 42 C12.10993227 40.61219205 9.03441292 38.7847773 5.6875 36.375 C4.80449219 35.74335937 3.92148437 35.11171875 3.01171875 34.4609375 C2.01591797 33.73777344 2.01591797 33.73777344 1 33 C0.26394531 33.48210938 -0.47210937 33.96421875 -1.23046875 34.4609375 C-2.20628906 35.09257813 -3.18210937 35.72421875 -4.1875 36.375 C-5.15042969 37.00148437 -6.11335937 37.62796875 -7.10546875 38.2734375 C-9.69803936 39.81988312 -12.16853116 40.97508075 -15 42 C-14.79503906 41.35933594 -14.59007812 40.71867187 -14.37890625 40.05859375 C-12.81172636 35.02712149 -11.56957826 30.24011997 -11 25 C-11.7940625 24.44570313 -12.588125 23.89140625 -13.40625 23.3203125 C-14.4271875 22.59585937 -15.448125 21.87140625 -16.5 21.125 C-17.5209375 20.40570312 -18.541875 19.68640625 -19.59375 18.9453125 C-20.78484375 17.98238281 -20.78484375 17.98238281 -22 17 C-22 16.34 -22 15.68 -22 15 C-16.39 15 -10.78 15 -5 15 C-4.731875 13.63875 -4.46375 12.2775 -4.1875 10.875 C-3.31370075 6.89575591 -2.0125649 3.56772868 0 0 Z " fill="#CFCFCF" transform="translate(22,0)"/>
<path d="M0 0 C3 3 3 3 7 14 C23.335 14.495 23.335 14.495 40 15 C40.33 13.35 40.66 11.7 41 10 C41.64896826 8.2146857 42.33687105 6.44305392 43.0625 4.6875 C43.60583984 3.36298828 43.60583984 3.36298828 44.16015625 2.01171875 C44.57587891 1.01591797 44.57587891 1.01591797 45 0 C45.66 0 46.32 0 47 0 C45.19848247 5.40455258 43.05175841 10.68647182 41 16 C36.38 16.33 31.76 16.66 27 17 C27.66 17.99 28.32 18.98 29 20 C27.88625 19.4740625 27.88625 19.4740625 26.75 18.9375 C23.70549729 17.89960135 22.94120922 17.94643252 20 19 C17.82276505 20.39237599 17.82276505 20.39237599 15.75 22.0625 C14.69039062 22.88427734 14.69039062 22.88427734 13.609375 23.72265625 C13.07828125 24.14417969 12.5471875 24.56570312 12 25 C12.54797564 29.3838051 13.70788188 33.11433547 15.37890625 37.16796875 C16 39 16 39 16 42 C12.10993227 40.61219205 9.03441292 38.7847773 5.6875 36.375 C4.80449219 35.74335937 3.92148437 35.11171875 3.01171875 34.4609375 C2.01591797 33.73777344 2.01591797 33.73777344 1 33 C0.26394531 33.48210938 -0.47210937 33.96421875 -1.23046875 34.4609375 C-2.20628906 35.09257813 -3.18210937 35.72421875 -4.1875 36.375 C-5.15042969 37.00148437 -6.11335937 37.62796875 -7.10546875 38.2734375 C-9.69803936 39.81988312 -12.16853116 40.97508075 -15 42 C-14.79503906 41.35933594 -14.59007812 40.71867187 -14.37890625 40.05859375 C-12.81172636 35.02712149 -11.56957826 30.24011997 -11 25 C-11.7940625 24.44570313 -12.588125 23.89140625 -13.40625 23.3203125 C-14.4271875 22.59585937 -15.448125 21.87140625 -16.5 21.125 C-17.5209375 20.40570312 -18.541875 19.68640625 -19.59375 18.9453125 C-20.78484375 17.98238281 -20.78484375 17.98238281 -22 17 C-22 16.34 -22 15.68 -22 15 C-16.39 15 -10.78 15 -5 15 C-4.731875 13.63875 -4.46375 12.2775 -4.1875 10.875 C-3.31370075 6.89575591 -2.0125649 3.56772868 0 0 Z " fill="#A4A4A4" transform="translate(22,0)"/>
<path d="M0 0 C0.66 0 1.32 0 2 0 C2.83739781 2.1234016 3.66980283 4.2487728 4.5 6.375 C4.9640625 7.55835938 5.428125 8.74171875 5.90625 9.9609375 C7 13 7 13 7 15 C12.28 15 17.56 15 23 15 C21.09559036 18.80881929 20.26335631 19.87446857 17 22.25 C16.29875 22.77078125 15.5975 23.2915625 14.875 23.828125 C13 25 13 25 11 25 C11.433125 26.05960938 11.86625 27.11921875 12.3125 28.2109375 C12.87518135 29.59888483 13.43767145 30.9869097 14 32.375 C14.42925781 33.42300781 14.42925781 33.42300781 14.8671875 34.4921875 C17 39.7734375 17 39.7734375 17 42 C13.04093183 40.56691865 9.71281819 38.66858051 6.1875 36.375 C5.21167969 35.74335937 4.23585938 35.11171875 3.23046875 34.4609375 C2.49441406 33.97882812 1.75835937 33.49671875 1 33 C-0.37285156 33.97453125 -0.37285156 33.97453125 -1.7734375 34.96875 C-2.97378605 35.81274508 -4.17431634 36.65648173 -5.375 37.5 C-5.97828125 37.92925781 -6.5815625 38.35851563 -7.203125 38.80078125 C-11.7734375 42 -11.7734375 42 -14 42 C-13.00956295 37.16371695 -12.04301154 32.52381127 -10 28 C-9.34 28 -8.68 28 -8 28 C-7.67 27.01 -7.34 26.02 -7 25 C-4.4375 23.8125 -4.4375 23.8125 -2 23 C-5.47869785 20.96368906 -7.54131628 19.99209166 -11.625 20.0625 C-15 20 -15 20 -19 16 C-14.05 16 -9.1 16 -4 16 C-3.525625 13.73125 -3.05125 11.4625 -2.5625 9.125 C-1.125 2.25 -1.125 2.25 0 0 Z " fill="#DFDFDF" transform="translate(112,0)"/>
<path d="M0 0 C0.33 0.33 0.66 0.66 1 1 C3.32817964 1.36760731 5.6618385 1.70241581 8 2 C9.32 6.29 10.64 10.58 12 15 C6.70139194 13.7023817 2.65474354 11.84984298 -2 9 C-2.83144531 9.66128906 -3.66289063 10.32257812 -4.51953125 11.00390625 C-5.61676696 11.8573118 -6.71444644 12.71014701 -7.8125 13.5625 C-8.35970703 14.00013672 -8.90691406 14.43777344 -9.47070312 14.88867188 C-10.9221958 16.00588139 -12.45810571 17.01128867 -14 18 C-14.99 17.67 -15.98 17.34 -17 17 C-15.68 13.37 -14.36 9.74 -13 6 C-12.34 6 -11.68 6 -11 6 C-10.814375 4.7934375 -10.814375 4.7934375 -10.625 3.5625 C-10.41875 2.716875 -10.2125 1.87125 -10 1 C-6.74696956 -0.62651522 -3.60774398 -0.11453156 0 0 Z " fill="#E2E2E2" transform="translate(69,24)"/>
<path d="M0 0 C3.48929217 -0.1783416 5.97805935 0.19666306 9 2 C11.77115827 6.87611889 15 13.29285933 15 19 C11.04093183 17.56691865 7.71281819 15.66858051 4.1875 13.375 C3.21167969 12.74335937 2.23585938 12.11171875 1.23046875 11.4609375 C0.49441406 10.97882812 -0.24164063 10.49671875 -1 10 C-1.91523437 10.6496875 -2.83046875 11.299375 -3.7734375 11.96875 C-4.97378605 12.81274508 -6.17431634 13.65648173 -7.375 14.5 C-7.97828125 14.92925781 -8.5815625 15.35851563 -9.203125 15.80078125 C-13.7734375 19 -13.7734375 19 -16 19 C-15.00956295 14.16371695 -14.04301154 9.52381127 -12 5 C-10.90341064 8.28976808 -11.20046862 9.71303767 -12 13 C-11.45730469 12.4946875 -10.91460937 11.989375 -10.35546875 11.46875 C-9.64003906 10.8190625 -8.92460938 10.169375 -8.1875 9.5 C-7.47980469 8.8503125 -6.77210937 8.200625 -6.04296875 7.53125 C-4 6 -4 6 -1 6 C-0.67 4.02 -0.34 2.04 0 0 Z " fill="#CDCDCD" transform="translate(114,23)"/>
<path d="M0 0 C0.66 0 1.32 0 2 0 C4.125 4.625 4.125 4.625 3 8 C3 7.34 3 6.68 3 6 C0.64358476 7.91406662 0.64358476 7.91406662 0.8046875 11.2578125 C0.82789062 12.53398437 0.85109375 13.81015625 0.875 15.125 C0.90207031 17.04699219 0.90207031 17.04699219 0.9296875 19.0078125 C0.95289062 19.99523437 0.97609375 20.98265625 1 22 C0.09378906 21.84402344 -0.81242187 21.68804688 -1.74609375 21.52734375 C-4.19247546 21.13087132 -6.59987352 20.81027967 -9.0625 20.5625 C-12.44202553 20.07971064 -14.98527469 19.55304031 -18 18 C-18.33 17.34 -18.66 16.68 -19 16 C-14.05 16 -9.1 16 -4 16 C-3.525625 13.73125 -3.05125 11.4625 -2.5625 9.125 C-1.125 2.25 -1.125 2.25 0 0 Z " fill="#949494" transform="translate(112,0)"/>
<path d="M0 0 C1 3 1 3 -1 8 C-5.62 8.33 -10.24 8.66 -15 9 C-10.47751777 10.83210227 -10.47751777 10.83210227 -6 11.5 C-2.71209453 11.84249015 -0.0174589 12.58556614 3 14 C0.76362469 16.23637531 -1.09619927 16.83847971 -4 18 C-4.66 18.66 -5.32 19.32 -6 20 C-6 19.01 -6 18.02 -6 17 C-6.515625 16.773125 -7.03125 16.54625 -7.5625 16.3125 C-9.7414624 15.13921255 -11.48629605 13.87887553 -13.4375 12.375 C-16.38563273 10.20837659 -18.25645292 9.4327959 -22 10 C-22 9.67 -22 9.34 -22 9 C-28.93 8.505 -28.93 8.505 -36 8 C-35.67 7.34 -35.34 6.68 -35 6 C-18.665 6.495 -18.665 6.495 -2 7 C-1.34 4.69 -0.68 2.38 0 0 Z " fill="#3A3A3A" transform="translate(109,8)"/>
<path d="M0 0 C0.66 0 1.32 0 2 0 C0.19848247 5.40455258 -1.94824159 10.68647182 -4 16 C-8.62 16.33 -13.24 16.66 -18 17 C-17.34 17.99 -16.68 18.98 -16 20 C-17.11375 19.4740625 -17.11375 19.4740625 -18.25 18.9375 C-21.21135857 17.92794594 -22.12953867 18.04317956 -25 19 C-25.99 19 -26.98 19 -28 19 C-27.67 18.67 -27.34 18.34 -27 18 C-29.43387753 16.78306124 -31.41838846 16.68040104 -34.125 16.4375 C-35.03507812 16.35371094 -35.94515625 16.26992188 -36.8828125 16.18359375 C-37.58148438 16.12300781 -38.28015625 16.06242187 -39 16 C-39.33 14.68 -39.66 13.36 -40 12 C-39.34 12.66 -38.68 13.32 -38 14 C-35.49624532 14.24515697 -33.09450521 14.37333658 -30.5859375 14.4140625 C-29.49147812 14.44311172 -29.49147812 14.44311172 -28.37490845 14.4727478 C-26.04172498 14.53258422 -23.70849227 14.57894423 -21.375 14.625 C-19.79424918 14.66317614 -18.21351924 14.70222765 -16.6328125 14.7421875 C-12.7553777 14.83828878 -8.87784551 14.92230412 -5 15 C-4.85506104 14.23018799 -4.71012207 13.46037598 -4.56079102 12.66723633 C-3.96502451 9.83364946 -3.04255665 7.36102415 -1.9375 4.6875 C-1.39416016 3.36298828 -1.39416016 3.36298828 -0.83984375 2.01171875 C-0.56269531 1.34785156 -0.28554687 0.68398437 0 0 Z " fill="#393939" transform="translate(67,0)"/>
<path d="M0 0 C0.33 0 0.66 0 1 0 C1 1.65 1 3.3 1 5 C1.886875 4.360625 2.77375 3.72125 3.6875 3.0625 C8.74029851 -0.08358209 8.74029851 -0.08358209 12 0 C14.8125 2.4375 14.8125 2.4375 17 5 C16.13761719 4.57847656 15.27523437 4.15695313 14.38671875 3.72265625 C10.912974 2.58454572 10.912974 2.58454572 7.89453125 4.80859375 C6.85039202 5.66481439 5.82321805 6.54207298 4.8125 7.4375 C2.9149457 9.06699831 1.03955404 10.53728953 -1 12 C-1.99 11.67 -2.98 11.34 -4 11 C-2.68 7.37 -1.36 3.74 0 0 Z " fill="#5F5F5F" transform="translate(56,30)"/>
<path d="M0 0 C0.66 0.66 1.32 1.32 2 2 C1.34 2 0.68 2 0 2 C0 1.34 0 0.68 0 0 Z M-2.75 1.25 C-1.38875 1.62125 -1.38875 1.62125 0 2 C0 3.32 0 4.64 0 6 C-2.1875 7.5 -2.1875 7.5 -5 9 C-7.86427906 11.18230785 -10.47934467 13.43563389 -13 16 C-12.60079865 14.24593347 -12.17984334 12.49681018 -11.75 10.75 C-11.51796875 9.77546875 -11.2859375 8.8009375 -11.046875 7.796875 C-9.37081102 3.31903243 -7.69254771 0.86980402 -2.75 1.25 Z " fill="#EDEDED" transform="translate(113,23)"/>
<path d="M0 0 C2.94957081 2.94957081 3.57418602 6.53941756 4.8046875 10.46875 C5.90097888 13.46534074 5.90097888 13.46534074 10 15 C7.03 16.32 4.06 17.64 1 19 C0.67 15.7 0.34 12.4 0 9 C-0.66 9 -1.32 9 -2 9 C-1.51421457 5.87709365 -1.0013988 3.00419641 0 0 Z " fill="#F7F7F7" transform="translate(22,2)"/>
<path d="M0 0 C2 2 2 2 2 6 C0.948125 6.20625 -0.10375 6.4125 -1.1875 6.625 C-5.64407236 7.85689805 -7.35843582 10.31781963 -10 14 C-11.22156872 10.33529384 -10.62833432 9.36762312 -9.1875 5.875 C-8.83042969 4.98554688 -8.47335937 4.09609375 -8.10546875 3.1796875 C-6.23050946 -0.5172287 -3.85987634 -0.28949073 0 0 Z " fill="#EFEFEF" transform="translate(21,24)"/>
<path d="M0 0 C0.845625 0.144375 1.69125 0.28875 2.5625 0.4375 C4.86823428 0.81480197 7.18164146 1.14770518 9.5 1.4375 C12.85030466 1.97594182 15.81950598 2.83640463 19 4 C16 6 16 6 11 7 C10.01 10.3 9.02 13.6 8 17 C6.768606 13.30581799 7.35567236 10.7943739 8 7 C7.13375 6.36771484 7.13375 6.36771484 6.25 5.72265625 C5.5075 5.17480469 4.765 4.62695312 4 4.0625 C3.2575 3.51722656 2.515 2.97195312 1.75 2.41015625 C1.1725 1.94480469 0.595 1.47945312 0 1 C0 0.67 0 0.34 0 0 Z " fill="#585858" transform="translate(3,18)"/>
<path d="M0 0 C2.63998971 1.31999485 2.70014976 2.36913312 3.625 5.125 C4.89261491 9.20737006 5.60147108 12.70377801 5 17 C2.97265625 18.6953125 2.97265625 18.6953125 1 20 C0.92652344 18.93458984 0.92652344 18.93458984 0.8515625 17.84765625 C0.73941406 16.46900391 0.73941406 16.46900391 0.625 15.0625 C0.55539063 14.14597656 0.48578125 13.22945312 0.4140625 12.28515625 C0.20910156 11.15400391 0.20910156 11.15400391 0 10 C-0.66 9.67 -1.32 9.34 -2 9 C-1.34 6.03 -0.68 3.06 0 0 Z " fill="#F2F2F2" transform="translate(67,2)"/>
<path d="M0 0 C2.58585205 -0.16236745 5.16151954 -0.28095486 7.75 -0.375 C8.84441406 -0.45041016 8.84441406 -0.45041016 9.9609375 -0.52734375 C12.109375 -0.5859375 12.109375 -0.5859375 16 0 C18.515625 3.0234375 18.515625 3.0234375 20 6 C18.10353002 5.88506243 16.20781668 5.75760358 14.3125 5.625 C13.25675781 5.55539063 12.20101562 5.48578125 11.11328125 5.4140625 C6.40099205 4.78733395 3.14244643 3.63862219 0 0 Z " fill="#EDEDED" transform="translate(47,16)"/>
<path d="M0 0 C3.78221908 3.78221908 4 7.79328036 4 13 C8.95 13 13.9 13 19 13 C15.6424113 14.67879435 12.47527552 15.97317061 8.9375 17.1875 C7.89464844 17.55230469 6.85179688 17.91710937 5.77734375 18.29296875 C3 19 3 19 0 18 C0.66 17.34 1.32 16.68 2 16 C2.45740231 10.39682164 1.36805497 5.38671645 0 0 Z " fill="#B3B3B3" transform="translate(69,3)"/>
<path d="M0 0 C2 2 2 2 3 7 C8.28 7 13.56 7 19 7 C17.11656068 10.76687864 16.30867531 11.79421646 13 14 C12.34 13.67 11.68 13.34 11 13 C11.66 12.34 12.32 11.68 13 11 C8.545 11.495 8.545 11.495 4 12 C4.99 11.01 5.98 10.02 7 9 C5.824375 8.9071875 5.824375 8.9071875 4.625 8.8125 C2 8 2 8 0.6875 5.625 C0 3 0 3 0 0 Z " fill="#666666" transform="translate(116,8)"/>
<path d="M0 0 C2.41854446 -0.13536629 4.82949783 -0.23420279 7.25 -0.3125 C8.27287109 -0.3753418 8.27287109 -0.3753418 9.31640625 -0.43945312 C11.328125 -0.48828125 11.328125 -0.48828125 15 0 C17.484375 2.51953125 17.484375 2.51953125 19 5 C16 6 16 6 13.75 5.0625 C10.93686128 3.76865138 10.93686128 3.76865138 7.4375 4.125 C4 4 4 4 1.78515625 1.9921875 C1.19605469 1.33476562 0.60695313 0.67734375 0 0 Z " fill="#F3F3F3" transform="translate(93,16)"/>
<path d="M0 0 C0.66 0 1.32 0 2 0 C2.50615298 1.26839526 3.00469099 2.53983102 3.5 3.8125 C3.91765625 4.87404297 3.91765625 4.87404297 4.34375 5.95703125 C5 8 5 8 5 11 C5.66 11.33 6.32 11.66 7 12 C4.69 13.32 2.38 14.64 0 16 C-0.19389096 13.5211787 -0.38040123 11.04219069 -0.5625 8.5625 C-0.61857422 7.85544922 -0.67464844 7.14839844 -0.73242188 6.41992188 C-0.86190993 4.61572163 -0.93521608 2.80768048 -1 1 C-0.67 0.67 -0.34 0.34 0 0 Z " fill="#F9F9F9" transform="translate(113,6)"/>
<path d="M0 0 C5.28 0 10.56 0 16 0 C16.66 1.65 17.32 3.3 18 5 C15.74926172 4.93981983 13.49927675 4.85098794 11.25 4.75 C9.99703125 4.70359375 8.7440625 4.6571875 7.453125 4.609375 C4 4 4 4 0 0 Z " fill="#FAFAFA" transform="translate(2,16)"/>
<path d="M0 0 C0 0.66 0 1.32 0 2 C-1.11375 2.6496875 -1.11375 2.6496875 -2.25 3.3125 C-5.27062968 5.16606821 -6.83372426 7.23613095 -9 10 C-9.66 10 -10.32 10 -11 10 C-10.54177532 6.53058454 -10.10868317 3.32604951 -9 0 C-5.93109813 -1.53445094 -3.29905734 -0.54984289 0 0 Z " fill="#F6F6F6" transform="translate(68,25)"/>
<path d="M0 0 C4.73544283 0.39462024 8.65942958 0.96535762 13 3 C10.76362469 5.23637531 8.90380073 5.83847971 6 7 C5.34 7.66 4.68 8.32 4 9 C4 8.01 4 7.02 4 6 C3.360625 5.731875 2.72125 5.46375 2.0625 5.1875 C0 4 0 4 -1 1 C-0.67 0.67 -0.34 0.34 0 0 Z " fill="#6C6C6C" transform="translate(99,19)"/>
<path d="M0 0 C5.73842251 -0.20413361 10.60539047 -0.27141454 16 2 C13.08235 3.9451 11.37462715 4.45276317 8 5 C7.67 6.65 7.34 8.3 7 10 C6.95875 9.443125 6.9175 8.88625 6.875 8.3125 C5.53841949 4.78010866 2.94505888 3.31845061 0 1 C0 0.67 0 0.34 0 0 Z " fill="#6E6E6E" transform="translate(51,20)"/>
<path d="M0 0 C-2.19966075 3.34348434 -3.64938346 4.85066333 -7.375 6.4375 C-11.32180752 7.04993565 -13.38374955 6.58762215 -17 5 C-14.39104541 2.39104541 -12.01733462 1.89026736 -8.5 0.8125 C-7.3346875 0.44769531 -6.169375 0.08289063 -4.96875 -0.29296875 C-2 -1 -2 -1 0 0 Z " fill="#E4E4E4" transform="translate(41,18)"/>
<path d="M0 0 C0.53625 0.226875 1.0725 0.45375 1.625 0.6875 C1.09132813 0.93242188 0.55765625 1.17734375 0.0078125 1.4296875 C-4.11332866 3.60510955 -7.85849434 6.37175894 -11.6953125 9.0078125 C-14.375 10.6875 -14.375 10.6875 -16.375 10.6875 C-15.715 8.3775 -15.055 6.0675 -14.375 3.6875 C-13.715 4.3475 -13.055 5.0075 -12.375 5.6875 C-11.83875 5.254375 -11.3025 4.82125 -10.75 4.375 C-3.875 -0.50986842 -3.875 -0.50986842 0 0 Z " fill="#444444" transform="translate(23.375,31.3125)"/>
<path d="M0 0 C1.31223496 3.93670488 0.24296256 6.12488144 -1 10 C-0.22914062 9.48308594 0.54171875 8.96617188 1.3359375 8.43359375 C2.33882813 7.77488281 3.34171875 7.11617187 4.375 6.4375 C5.87160156 5.44556641 5.87160156 5.44556641 7.3984375 4.43359375 C8.25695312 3.96050781 9.11546875 3.48742187 10 3 C10.66 3.33 11.32 3.66 12 4 C9.71234889 5.67243423 7.42026108 7.33806927 5.125 9 C4.47402344 9.47695313 3.82304688 9.95390625 3.15234375 10.4453125 C-1.7734375 14 -1.7734375 14 -4 14 C-3.00956295 9.16371695 -2.04301154 4.52381127 0 0 Z " fill="#333333" transform="translate(102,28)"/>
<path d="M0 0 C1.98 0.495 1.98 0.495 4 1 C4 4.3 4 7.6 4 11 C1.4375 8.875 1.4375 8.875 -1 6 C-0.8125 2.6875 -0.8125 2.6875 0 0 Z " fill="#989898" transform="translate(64,11)"/>
<path d="M0 0 C2.57966596 2.57966596 3.33609844 5.09307892 4.625 8.5 C5.29402344 10.24796875 5.29402344 10.24796875 5.9765625 12.03125 C7 15 7 15 7 17 C4.525 16.01 4.525 16.01 2 15 C2 14.01 2 13.02 2 12 C1.67 11.01 1.34 10.02 1 9 C0.78196693 7.44146733 0.59633644 5.87817349 0.4375 4.3125 C0.35371094 3.50425781 0.26992187 2.69601563 0.18359375 1.86328125 C0.12300781 1.24839844 0.06242187 0.63351563 0 0 Z " fill="#4A4A4A" transform="translate(122,25)"/>
<path d="M0 0 C2 1 2 1 2.78125 3.29296875 C3.0184375 4.24816406 3.255625 5.20335937 3.5 6.1875 C4.52592583 10.18704841 5.63014283 14.10117575 7 18 C3.20411134 17.45773019 1.52788007 15.79872437 -1 13 C0.32 13.33 1.64 13.66 3 14 C2.7834375 13.32453125 2.566875 12.6490625 2.34375 11.953125 C2.0653125 11.06109375 1.786875 10.1690625 1.5 9.25 C1.2215625 8.36828125 0.943125 7.4865625 0.65625 6.578125 C0 4 0 4 0 0 Z " fill="#373737" transform="translate(77,24)"/>
<path d="M0 0 C0.66 0.33 1.32 0.66 2 1 C1.79503906 1.54527344 1.59007812 2.09054688 1.37890625 2.65234375 C0.87146431 5.79639122 1.7519384 7.62853442 2.9375 10.5625 C5 15.71525424 5 15.71525424 5 19 C0.125 17.25 0.125 17.25 -1 15 C-0.34 15 0.32 15 1 15 C0.855625 14.40832031 0.71125 13.81664062 0.5625 13.20703125 C-1.37226617 4.97083915 -1.37226617 4.97083915 -1 1 C-0.67 0.67 -0.34 0.34 0 0 Z " fill="#3D3D3D" transform="translate(33,23)"/>
<path d="M0 0 C1.98 0.495 1.98 0.495 4 1 C4 4.3 4 7.6 4 11 C1.4375 8.875 1.4375 8.875 -1 6 C-0.8125 2.6875 -0.8125 2.6875 0 0 Z " fill="#A0A0A0" transform="translate(109,11)"/>
<path d="M0 0 C0.33 0.66 0.66 1.32 1 2 C-0.4117783 2.53394179 -1.82970244 3.05165104 -3.25 3.5625 C-4.03890625 3.85253906 -4.8278125 4.14257812 -5.640625 4.44140625 C-8.19103452 5.04522837 -9.55322229 4.8473932 -12 4 C-7.81413519 0.81076967 -5.29441695 -0.50423019 0 0 Z " fill="#B8B8B8" transform="translate(38,16)"/>
<path d="M0 0 C0.66 0.66 1.32 1.32 2 2 C4.56916657 2.30599063 7.04758384 2.51087087 9.625 2.625 C10.68460938 2.68300781 10.68460938 2.68300781 11.765625 2.7421875 C13.50998524 2.83647724 15.25495691 2.91932891 17 3 C16.34 4.32 15.68 5.64 15 7 C14.01 7 13.02 7 12 7 C12.33 6.67 12.66 6.34 13 6 C10.56612247 4.78306124 8.58161154 4.68040104 5.875 4.4375 C4.96492188 4.35371094 4.05484375 4.26992188 3.1171875 4.18359375 C2.41851563 4.12300781 1.71984375 4.06242187 1 4 C0.67 2.68 0.34 1.36 0 0 Z " fill="#494949" transform="translate(27,12)"/>
<path d="M0 0 C3.09423168 3.09423168 3.93706005 6.5523812 4.125 10.875 C4.08375 11.57625 4.0425 12.2775 4 13 C5.32 13.33 6.64 13.66 8 14 C6.68 14.99 5.36 15.98 4 17 C3.34 16.67 2.68 16.34 2 16 C2.04125 15.030625 2.0825 14.06125 2.125 13.0625 C2.14348933 8.55110276 1.10517422 4.35162348 0 0 Z " fill="#919191" transform="translate(69,3)"/>
<path d="M0 0 C2.09230769 4.43076923 2.09230769 4.43076923 1.625 7.3125 C1.41875 7.869375 1.2125 8.42625 1 9 C-0.37562854 7.71034824 -1.70766393 6.37310707 -3 5 C-3 4.34 -3 3.68 -3 3 C-3.66 2.34 -4.32 1.68 -5 1 C-3 0 -3 0 0 0 Z " fill="#D6D6D6" transform="translate(122,26)"/>
<path d="M0 0 C-1.22053859 3.66161578 -2.36782304 4.16270474 -5.5625 6.1875 C-6.38878906 6.71730469 -7.21507813 7.24710938 -8.06640625 7.79296875 C-8.70449219 8.19128906 -9.34257813 8.58960938 -10 9 C-10 6 -10 6 -8.57421875 4.39453125 C-7.95160156 3.87246094 -7.32898438 3.35039063 -6.6875 2.8125 C-5.76517578 2.01779297 -5.76517578 2.01779297 -4.82421875 1.20703125 C-3 0 -3 0 0 0 Z " fill="#949494" transform="translate(113,29)"/>
<path d="M0 0 C0.845625 0.144375 1.69125 0.28875 2.5625 0.4375 C6.03593149 1.0058797 9.51445662 1.51202393 13 2 C12.01 2.495 12.01 2.495 11 3 C11 3.66 11 4.32 11 5 C7.44765442 4.39102647 4.2668126 3.54266151 1 2 C0.67 1.34 0.34 0.68 0 0 Z " fill="#909090" transform="translate(3,18)"/>
<path d="M0 0 C2.97 0 5.94 0 9 0 C8.34 1.32 7.68 2.64 7 4 C3.38144425 3.37611108 2.8290723 2.8290723 0 0 Z " fill="#E9E9E9" transform="translate(2,16)"/>
<path d="M0 0 C1.98 0 3.96 0 6 0 C3.76592111 3.35111834 2.73784176 4.81553956 -1.25 5.8125 C-2.61125 5.9053125 -2.61125 5.9053125 -4 6 C-2 3 -2 3 1 2 C0.67 1.34 0.34 0.68 0 0 Z " fill="#D3D3D3" transform="translate(118,16)"/>
<path d="M0 0 C0.9075 0.103125 1.815 0.20625 2.75 0.3125 C-0.53804981 3.22477269 -2.84885603 4.80951212 -7.25 5.3125 C-4.05 0.38942308 -4.05 0.38942308 0 0 Z " fill="#A5A5A5" transform="translate(20.25,29.6875)"/>
<path d="M0 0 C1.0625 1.875 1.0625 1.875 2 4 C1.67 4.66 1.34 5.32 1 6 C0.9603287 7.66619446 0.95615553 9.33391013 1 11 C0.67 10.34 0.34 9.68 0 9 C-0.66 9 -1.32 9 -2 9 C-1.51421457 5.87709365 -1.0013988 3.00419641 0 0 Z " fill="#E7E7E7" transform="translate(22,2)"/>
<path d="M0 0 C2.12508244 3.18762365 2.5020163 5.26512223 3 9 C1.29115995 7.37660195 -0.37446717 5.70680947 -2 4 C-2 3.34 -2 2.68 -2 2 C-1.34 2 -0.68 2 0 2 C0 1.34 0 0.68 0 0 Z " fill="#ADADAD" transform="translate(77,28)"/>
<path d="M0 0 C2.64 0.33 5.28 0.66 8 1 C6.3125 2.625 6.3125 2.625 4 4 C1.25 3.1875 1.25 3.1875 -1 2 C-0.67 1.34 -0.34 0.68 0 0 Z " fill="#ADADAD" transform="translate(99,19)"/>
<path d="M0 0 C1.9451 2.91765 2.45276317 4.62537285 3 8 C0.5 6.1875 0.5 6.1875 -2 4 C-2 3.01 -2 2.02 -2 1 C-1.34 0.67 -0.68 0.34 0 0 Z " fill="#ADADAD" transform="translate(32,29)"/>
<path d="M0 0 C2.64 0.66 5.28 1.32 8 2 C7.67 2.66 7.34 3.32 7 4 C5.35 4 3.7 4 2 4 C1.34 2.68 0.68 1.36 0 0 Z " fill="#C0C0C0" transform="translate(24,23)"/>
<path d="M0 0 C2.64 0.66 5.28 1.32 8 2 C5 4 5 4 2.875 3.8125 C2.25625 3.544375 1.6375 3.27625 1 3 C0.67 2.01 0.34 1.02 0 0 Z " fill="#C6C6C6" transform="translate(114,23)"/>
<path d="M0 0 C1.98 0.495 1.98 0.495 4 1 C3.67 2.32 3.34 3.64 3 5 C1.68 4.34 0.36 3.68 -1 3 C-0.67 2.01 -0.34 1.02 0 0 Z " fill="#BFBFBF" transform="translate(64,11)"/>
</svg>
