<?xml version="1.0" encoding="UTF-8"?>
<svg version="1.1" xmlns="http://www.w3.org/2000/svg" width="120" height="56">
<path d="M0 0 C0.66 0 1.32 0 2 0 C3.1721449 2.95619219 4.33677476 5.91528789 5.5 8.875 C5.83386719 9.71675781 6.16773438 10.55851563 6.51171875 11.42578125 C6.82753906 12.23144531 7.14335938 13.03710938 7.46875 13.8671875 C7.76201172 14.61081543 8.05527344 15.35444336 8.35742188 16.12060547 C9 18 9 18 9 20 C23.85 20 38.7 20 54 20 C54.33 18.35 54.66 16.7 55 15 C55.75052535 12.57024166 56.54522025 10.1538468 57.375 7.75 C57.79523438 6.50734375 58.21546875 5.2646875 58.6484375 3.984375 C59.31746094 2.50710937 59.31746094 2.50710937 60 1 C60.99 0.67 61.98 0.34 63 0 C64.00577013 2.76886123 65.00480147 5.53984104 66 8.3125 C66.28617187 9.09818359 66.57234375 9.88386719 66.8671875 10.69335938 C67.27324219 11.8293457 67.27324219 11.8293457 67.6875 12.98828125 C67.93886719 13.68477783 68.19023438 14.38127441 68.44921875 15.09887695 C69 17 69 17 69 20 C76.26 20 83.52 20 91 20 C88.79939943 24.40120114 86.21928671 26.42428498 82.375 29.25 C81.76398438 29.70890625 81.15296875 30.1678125 80.5234375 30.640625 C79.0209208 31.76751252 77.51115591 32.88472437 76 34 C78.15928935 41.39393019 80.5304518 48.70417741 83 56 C79.02180188 55.36884357 76.28890966 53.36968084 73 51.125 C71.96875 50.42632812 70.9375 49.72765625 69.875 49.0078125 C67 47 67 47 64.9375 45.1171875 C63.02451334 43.72660956 63.02451334 43.72660956 60.6953125 44.48828125 C56.51727811 46.83161358 52.7895048 49.71679413 48.99609375 52.63085938 C47.38378115 53.82882497 45.69556319 54.92308824 44 56 C42.515 55.505 42.515 55.505 41 55 C44.465 45.1 44.465 45.1 48 35 C44.68268198 32.31028269 41.35311058 29.6442821 38 27 C37.09701172 26.26136719 37.09701172 26.26136719 36.17578125 25.5078125 C34.56465834 24.21225124 34.56465834 24.21225124 32 23 C27.59352076 24.21140323 24.24143551 26.86130775 20.6875 29.625 C20.13771484 30.04523437 19.58792969 30.46546875 19.02148438 30.8984375 C17.67707832 31.92720039 16.33798587 32.9629009 15 34 C15.21205078 34.59538574 15.42410156 35.19077148 15.64257812 35.80419922 C16.59829248 38.49332736 17.54920148 41.18413005 18.5 43.875 C18.83386719 44.81214844 19.16773438 45.74929687 19.51171875 46.71484375 C19.82753906 47.61074219 20.14335938 48.50664063 20.46875 49.4296875 C20.76201172 50.25710449 21.05527344 51.08452148 21.35742188 51.93701172 C22 54 22 54 22 56 C16.48832025 54.17690593 12.13562512 50.71236642 7.52734375 47.28125 C3.85043662 44.54822005 3.85043662 44.54822005 -0.51953125 44.3828125 C-3.82040819 46.5348803 -7.02923678 48.76867822 -10.1875 51.125 C-16.73450413 56 -16.73450413 56 -19 56 C-18.15603155 50.91656214 -16.39165868 46.17621912 -14.640625 41.3515625 C-13.15527898 37.22913217 -13.15527898 37.22913217 -14 33 C-16.30445208 31.24861642 -18.59898621 29.60697773 -21 28 C-27.86486486 23.40540541 -27.86486486 23.40540541 -29 20 C-21.74 19.67 -14.48 19.34 -7 19 C-4.69 12.73 -2.38 6.46 0 0 Z " fill="#C8C8C8" transform="translate(29,0)"/>
<path d="M0 0 C2.61943903 2.61943903 3.44197838 5.57473973 4.625 9 C4.85445312 9.64195313 5.08390625 10.28390625 5.3203125 10.9453125 C7 15.72442336 7 15.72442336 7 18 C8.258125 17.979375 9.51625 17.95875 10.8125 17.9375 C16.24514947 17.92884928 21.60104876 18.43487613 27 19 C24.86374923 23.10926642 22.65900001 25.26481817 18.8125 27.8125 C17.91144531 28.41707031 17.01039062 29.02164063 16.08203125 29.64453125 C15.39496094 30.09183594 14.70789062 30.53914063 14 31 C14.31807617 31.89307861 14.31807617 31.89307861 14.64257812 32.80419922 C15.59829248 35.49332736 16.54920148 38.18413005 17.5 40.875 C17.83386719 41.81214844 18.16773438 42.74929687 18.51171875 43.71484375 C18.82753906 44.61074219 19.14335938 45.50664063 19.46875 46.4296875 C19.76201172 47.25710449 20.05527344 48.08452148 20.35742188 48.93701172 C21 51 21 51 21 53 C15.48832025 51.17690593 11.13562512 47.71236642 6.52734375 44.28125 C2.85043662 41.54822005 2.85043662 41.54822005 -1.51953125 41.3828125 C-4.82040819 43.5348803 -8.02923678 45.76867822 -11.1875 48.125 C-17.73450413 53 -17.73450413 53 -20 53 C-19.67 51.35 -19.34 49.7 -19 48 C-18.34 48 -17.68 48 -17 48 C-16.51526322 46.31409158 -16.03751074 44.62617455 -15.5625 42.9375 C-15.29566406 41.99777344 -15.02882813 41.05804688 -14.75390625 40.08984375 C-13.93696201 36.74164224 -13.43932294 33.41648225 -13 30 C-13.45439453 29.67201416 -13.90878906 29.34402832 -14.37695312 29.00610352 C-16.42042022 27.52825764 -18.46024139 26.04545964 -20.5 24.5625 C-21.21542969 24.04623047 -21.93085938 23.52996094 -22.66796875 22.99804688 C-23.34472656 22.50498047 -24.02148438 22.01191406 -24.71875 21.50390625 C-25.34716797 21.04830322 -25.97558594 20.5927002 -26.62304688 20.12329102 C-27.30463867 19.56726196 -27.30463867 19.56726196 -28 19 C-28 18.67 -28 18.34 -28 18 C-17.605 17.505 -17.605 17.505 -7 17 C-5.06742362 11.78053027 -5.06742362 11.78053027 -3.14086914 6.55883789 C-1.11111111 1.11111111 -1.11111111 1.11111111 0 0 Z " fill="#CECECE" transform="translate(30,3)"/>
<path d="M0 0 C0.66 0 1.32 0 2 0 C3.1721449 2.95619219 4.33677476 5.91528789 5.5 8.875 C5.83386719 9.71675781 6.16773438 10.55851563 6.51171875 11.42578125 C6.82753906 12.23144531 7.14335938 13.03710938 7.46875 13.8671875 C7.76201172 14.61081543 8.05527344 15.35444336 8.35742188 16.12060547 C9 18 9 18 9 20 C23.85 20 38.7 20 54 20 C54.33 18.35 54.66 16.7 55 15 C55.75052535 12.57024166 56.54522025 10.1538468 57.375 7.75 C57.79523438 6.50734375 58.21546875 5.2646875 58.6484375 3.984375 C59.31746094 2.50710937 59.31746094 2.50710937 60 1 C60.99 0.67 61.98 0.34 63 0 C64.00577013 2.76886123 65.00480147 5.53984104 66 8.3125 C66.28617187 9.09818359 66.57234375 9.88386719 66.8671875 10.69335938 C67.27324219 11.8293457 67.27324219 11.8293457 67.6875 12.98828125 C67.93886719 13.68477783 68.19023438 14.38127441 68.44921875 15.09887695 C69 17 69 17 69 20 C76.26 20 83.52 20 91 20 C90.34 21.32 89.68 22.64 89 24 C88.01 24 87.02 24 86 24 C86.495 23.505 86.495 23.505 87 23 C80.73 22.34 74.46 21.68 68 21 C66.02 15.39 64.04 9.78 62 4 C61.401875 5.32 60.80375 6.64 60.1875 8 C59.85105469 8.7425 59.51460938 9.485 59.16796875 10.25 C57.66557252 13.78741453 56.34945176 17.40146198 55 21 C48.07 21 41.14 21 34 21 C34 21.66 34 22.32 34 23 C34.70125 23.226875 35.4025 23.45375 36.125 23.6875 C39.69343613 25.31656867 42.06514511 27.40640731 45 30 C40.45991428 30 38.05264204 27.16514582 34.5703125 24.43359375 C32.07541526 22.72052366 32.07541526 22.72052366 29.1796875 23.28515625 C28.46039063 23.52105469 27.74109375 23.75695312 27 24 C27 23.67 27 23.34 27 23 C20.73 22.34 14.46 21.68 8 21 C5.0625 13.0625 5.0625 13.0625 4.14086914 10.55883789 C3.03075055 7.0119129 3.03075055 7.0119129 1 4 C0.57847656 5.14339844 0.15695313 6.28679688 -0.27734375 7.46484375 C-0.83058521 8.95578259 -1.38397847 10.44666511 -1.9375 11.9375 C-2.21529297 12.69224609 -2.49308594 13.44699219 -2.77929688 14.22460938 C-4.88671875 19.88671875 -4.88671875 19.88671875 -6 21 C-7.48638992 21.15655027 -8.97949127 21.25066943 -10.47265625 21.31640625 C-11.37177734 21.35830078 -12.27089844 21.40019531 -13.19726562 21.44335938 C-14.61555664 21.50233398 -14.61555664 21.50233398 -16.0625 21.5625 C-17.01189453 21.60568359 -17.96128906 21.64886719 -18.93945312 21.69335938 C-21.29278176 21.79979132 -23.64637099 21.90043154 -26 22 C-21.05 25.63 -16.1 29.26 -11 33 C-11.71417484 37.99922389 -12.3278946 41.40514396 -14.0625 45.9375 C-14.42472656 46.89527344 -14.78695313 47.85304687 -15.16015625 48.83984375 C-15.43730469 49.55269531 -15.71445313 50.26554687 -16 51 C-17.51837413 46.44487761 -15.44282482 43.18863505 -13.8125 38.8125 C-12.69943046 35.95653908 -12.69943046 35.95653908 -14 33 C-16.30445208 31.24861642 -18.59898621 29.60697773 -21 28 C-27.86486486 23.40540541 -27.86486486 23.40540541 -29 20 C-21.74 19.67 -14.48 19.34 -7 19 C-4.69 12.73 -2.38 6.46 0 0 Z " fill="#1E1E1E" transform="translate(29,0)"/>
<path d="M0 0 C0.680625 0.9590625 0.680625 0.9590625 1.375 1.9375 C2.77772249 4.15807524 2.77772249 4.15807524 4.921875 4.453125 C6.9446867 4.66831773 8.97235693 4.8364804 11 5 C12 6 12 6 12.125 8.375 C12 11 12 11 11 14 C12.20107655 16.12817523 12.20107655 16.12817523 13.9375 18.1875 C14.50339844 18.90292969 15.06929687 19.61835937 15.65234375 20.35546875 C16.31943359 21.16951172 16.31943359 21.16951172 17 22 C11.61714757 20.23963427 7.62225348 16.86196676 3.25976562 13.36914062 C0.18684595 11.04849856 -1.26274387 9.99462511 -5.21484375 10.0234375 C-7.96154634 10.98651695 -9.51898982 11.84123454 -11.625 13.8125 C-12.44871094 14.56466797 -12.44871094 14.56466797 -13.2890625 15.33203125 C-15.20985979 17.20458933 -17.10938162 19.09699766 -19 21 C-15.51140456 6.62275819 -15.51140456 6.62275819 -12 2 C-8.09653946 -0.03658811 -4.36839551 -0.58245273 0 0 Z " fill="#F1F1F1" transform="translate(92,31)"/>
<path d="M0 0 C1.35386936 1.65002828 2.68678142 3.3174387 4 5 C6.63460948 5.87943404 6.63460948 5.87943404 9 6 C8.9278125 6.72574219 8.855625 7.45148437 8.78125 8.19921875 C9.0584864 11.74883484 10.23822274 13.10644506 12.5 15.8125 C13.47453125 16.99779297 13.47453125 16.99779297 14.46875 18.20703125 C14.9740625 18.79871094 15.479375 19.39039062 16 20 C11.44385803 20 8.51352187 16.81071428 5.08984375 14.0234375 C3.21628095 12.54806786 3.21628095 12.54806786 0 11 C-5.73267538 11.91257332 -10.4806632 14.41710236 -15 18 C-16.99317643 20.61607721 -16.99317643 20.61607721 -18 23 C-19.39756534 18.80730397 -17.81962128 15.94872802 -16.3125 12 C-16.05533203 11.27554688 -15.79816406 10.55109375 -15.53320312 9.8046875 C-14.03277061 5.80844955 -12.91389583 3.13267385 -9 1 C-5.98610246 -0.06944751 -3.16934697 -0.47540205 0 0 Z " fill="#F2F2F2" transform="translate(31,31)"/>
<path d="M0 0 C0.66 0.33 1.32 0.66 2 1 C-1.3 3.64 -4.6 6.28 -8 9 C-5.8262084 16.39089144 -3.46996624 23.70294237 -1 31 C-4.97819812 30.36884357 -7.71109034 28.36968084 -11 26.125 C-12.03125 25.42632812 -13.0625 24.72765625 -14.125 24.0078125 C-17 22 -17 22 -19.0625 20.1171875 C-20.97548666 18.72660956 -20.97548666 18.72660956 -23.3046875 19.48828125 C-27.48272189 21.83161358 -31.2104952 24.71679413 -35.00390625 27.63085938 C-36.61621885 28.82882497 -38.30443681 29.92308824 -40 31 C-40.99 30.67 -41.98 30.34 -43 30 C-41.35 25.38 -39.7 20.76 -38 16 C-36.68776504 19.93670488 -37.75703744 22.12488144 -39 26 C-38.64808594 25.54109375 -38.29617187 25.0821875 -37.93359375 24.609375 C-34.3660433 20.17555251 -31.22915644 17.32406953 -26 15 C-22.82420776 15.40308132 -20.70241459 16.68459621 -18.109375 18.50390625 C-17.40039062 18.99697266 -16.69140625 19.49003906 -15.9609375 19.99804688 C-15.23132813 20.51431641 -14.50171875 21.03058594 -13.75 21.5625 C-13.00492188 22.08263672 -12.25984375 22.60277344 -11.4921875 23.13867188 C-9.6576533 24.42049385 -7.82716968 25.70771234 -6 27 C-6.64324219 26.22140625 -7.28648438 25.4428125 -7.94921875 24.640625 C-9.80963329 22.2451198 -10.68259479 20.9624486 -11 18 C-10.505 17.505 -10.505 17.505 -10 17 C-10.08378906 16.41089844 -10.16757813 15.82179688 -10.25390625 15.21484375 C-10.61881199 12.5219318 -10.66690247 10.65104089 -10 8 C-7.01225747 4.80747372 -3.64837397 2.39098794 0 0 Z " fill="#212121" transform="translate(113,25)"/>
<path d="M0 0 C0.66 0.33 1.32 0.66 2 1 C-1.96 3.97 -5.92 6.94 -10 10 C-9.4946875 11.42054687 -8.989375 12.84109375 -8.46875 14.3046875 C-7.81233632 16.16140048 -7.15609524 18.01817448 -6.5 19.875 C-6.16613281 20.81214844 -5.83226562 21.74929687 -5.48828125 22.71484375 C-5.01455078 24.05869141 -5.01455078 24.05869141 -4.53125 25.4296875 C-4.23798828 26.25710449 -3.94472656 27.08452148 -3.64257812 27.93701172 C-3 30 -3 30 -3 32 C-8.51167975 30.17690593 -12.86437488 26.71236642 -17.47265625 23.28125 C-21.14956338 20.54822005 -21.14956338 20.54822005 -25.51953125 20.3828125 C-28.82040819 22.5348803 -32.02923678 24.76867822 -35.1875 27.125 C-41.73450413 32 -41.73450413 32 -44 32 C-43.67 30.35 -43.34 28.7 -43 27 C-42.34 27.66 -41.68 28.32 -41 29 C-40.484375 28.0925 -39.96875 27.185 -39.4375 26.25 C-36.98308844 22.58566725 -34.03861647 20.67324976 -30 19 C-28.92234375 18.53335938 -27.8446875 18.06671875 -26.734375 17.5859375 C-22.7892915 16.96693904 -22.37081661 16.97093562 -19.25390625 18.9921875 C-18.00571133 19.92998474 -16.77533388 20.89189868 -15.5625 21.875 C-14.92634766 22.36097656 -14.29019531 22.84695312 -13.63476562 23.34765625 C-12.07395623 24.54466797 -10.53469716 25.76968799 -9 27 C-9.495 25.515 -9.495 25.515 -10 24 C-9.979375 22.88625 -9.95875 21.7725 -9.9375 20.625 C-9.9985861 17.08200625 -10.69955022 15.20777613 -12 12 C-11.90625 10.12109375 -11.90625 10.12109375 -11 8 C-8.49609375 5.859375 -8.49609375 5.859375 -5.4375 3.75 C-4.42558594 3.04359375 -3.41367187 2.3371875 -2.37109375 1.609375 C-1.58863281 1.07828125 -0.80617187 0.5471875 0 0 Z " fill="#282828" transform="translate(54,24)"/>
<path d="M0 0 C2.60649468 2.60649468 3.44024981 5.53134321 4.625 8.9375 C4.85445312 9.57107422 5.08390625 10.20464844 5.3203125 10.85742188 C6.32801716 13.70958596 7 15.95183307 7 19 C8.98 19 10.96 19 13 19 C9.63396829 21.82746664 6.05267275 23.3489111 2 25 C1.34 25.33 0.68 25.66 0 26 C0 21.38 0 16.76 0 12 C-1.32 12.33 -2.64 12.66 -4 13 C-3.50269348 8.02693484 -2.44697666 4.36200187 0 0 Z " fill="#F5F5F5" transform="translate(30,3)"/>
<path d="M0 0 C2.08144267 2.08144267 2.57368138 3.19289793 3.5078125 5.9140625 C3.77207031 6.67460937 4.03632812 7.43515625 4.30859375 8.21875 C4.57800781 9.0128125 4.84742187 9.806875 5.125 10.625 C5.40214844 11.42679688 5.67929688 12.22859375 5.96484375 13.0546875 C6.64841148 15.03467679 7.32488427 17.01711292 8 19 C9.98 19.33 11.96 19.66 14 20 C10.85512124 22.66105126 7.89865011 23.75574996 4 25 C3.01 25.66 2.02 26.32 1 27 C0.92652344 25.28490234 0.92652344 25.28490234 0.8515625 23.53515625 C0.77654811 22.04424527 0.70099972 20.55336108 0.625 19.0625 C0.57859375 17.93038086 0.57859375 17.93038086 0.53125 16.77539062 C0.4273685 14.84492605 0.22104386 12.92057919 0 11 C-0.66 10.67 -1.32 10.34 -2 10 C-1.54177532 6.53058454 -1.10868317 3.32604951 0 0 Z " fill="#F3F3F3" transform="translate(90,2)"/>
<path d="M0 0 C3.2284763 -0.17499733 6.45572926 -0.28106618 9.6875 -0.375 C11.05551758 -0.45041016 11.05551758 -0.45041016 12.45117188 -0.52734375 C19.13031568 -0.67307052 19.13031568 -0.67307052 21.76025391 1.36230469 C23.14453125 3.0234375 23.14453125 3.0234375 25 6 C21.72814447 7.07310858 19.57052408 6.89263102 16.25 6.0625 C15.45078125 5.86785156 14.6515625 5.67320313 13.828125 5.47265625 C12.92320313 5.23869141 12.92320313 5.23869141 12 5 C12 5.99 12 6.98 12 8 C8.58846252 7.38530856 6.48230844 6.10488946 3.75 4 C3.04359375 3.46375 2.3371875 2.9275 1.609375 2.375 C1.07828125 1.92125 0.5471875 1.4675 0 1 C0 0.67 0 0.34 0 0 Z " fill="#F4F4F4" transform="translate(64,22)"/>
<path d="M0 0 C0.721875 0.804375 1.44375 1.60875 2.1875 2.4375 C5.02515689 5.02292072 6.27166147 5.68042813 10 6 C9.9278125 6.72574219 9.855625 7.45148437 9.78125 8.19921875 C10.0584864 11.74883484 11.23822274 13.10644506 13.5 15.8125 C14.1496875 16.60269531 14.799375 17.39289062 15.46875 18.20703125 C15.9740625 18.79871094 16.479375 19.39039062 17 20 C12.75954277 20 10.22960069 17.77894351 6.875 15.4375 C6.22917969 15.01919922 5.58335938 14.60089844 4.91796875 14.16992188 C1.39066883 11.71116459 0.17474153 10.64324147 -0.9921875 6.34765625 C-1 3 -1 3 0 0 Z " fill="#F8F8F8" transform="translate(30,31)"/>
<path d="M0 0 C0.33 1.32 0.66 2.64 1 4 C0.50371094 4.40089844 0.00742188 4.80179688 -0.50390625 5.21484375 C-5.79132024 9.63941599 -9.9561607 14.42708396 -14 20 C-15 18 -15 18 -13.92578125 14.375 C-13.39642234 12.91359605 -12.85825951 11.4553587 -12.3125 10 C-12.05533203 9.26265625 -11.79816406 8.5253125 -11.53320312 7.765625 C-9.53885295 2.39508988 -9.53885295 2.39508988 -6.96484375 0.5078125 C-4.58253464 -0.10789363 -2.44968715 -0.13609373 0 0 Z " fill="#F5F5F5" transform="translate(88,32)"/>
<path d="M0 0 C-10.97932231 9.65569458 -10.97932231 9.65569458 -15.796875 10.4765625 C-18.75110993 10.11935109 -21.33712243 9.33143879 -24 8 C-24 7.34 -24 6.68 -24 6 C-20.37885457 4.80051225 -16.7525494 3.61746495 -13.125 2.4375 C-12.09246094 2.09525391 -11.05992188 1.75300781 -9.99609375 1.40039062 C-9.00996094 1.08134766 -8.02382812 0.76230469 -7.0078125 0.43359375 C-6.09660645 0.13509521 -5.18540039 -0.16340332 -4.24658203 -0.47094727 C-2 -1 -2 -1 0 0 Z " fill="#F6F6F6" transform="translate(117,23)"/>
<path d="M0 0 C3.39494112 -0.20402829 6.78830486 -0.32784854 10.1875 -0.4375 C11.14720703 -0.49615234 12.10691406 -0.55480469 13.09570312 -0.61523438 C20.11487607 -0.78524894 20.11487607 -0.78524894 22.79150391 1.58935547 C24.17578125 3.52734375 24.17578125 3.52734375 26 7 C19.80759538 6.31195504 13.98044406 4.71951285 8 3 C8 3.66 8 4.32 8 5 C4.57440916 3.79641403 2.46741391 2.64107354 0 0 Z " fill="#F6F6F6" transform="translate(3,22)"/>
<path d="M0 0 C-10.17773873 8.70196661 -10.17773873 8.70196661 -14.5078125 9.41015625 C-17.22081647 9.04475166 -19.55636653 8.22181673 -22 7 C-22 6.34 -22 5.68 -22 5 C-18.90045712 3.96473751 -15.79476539 2.94932433 -12.6875 1.9375 C-11.80642578 1.64294922 -10.92535156 1.34839844 -10.01757812 1.04492188 C-9.17001953 0.77099609 -8.32246094 0.49707031 -7.44921875 0.21484375 C-6.66893311 -0.04176025 -5.88864746 -0.29836426 -5.0847168 -0.56274414 C-3 -1 -3 -1 0 0 Z " fill="#F9F9F9" transform="translate(55,24)"/>
<path d="M0 0 C0.33 0.66 0.66 1.32 1 2 C2.32 1.67 3.64 1.34 5 1 C5 5.62 5 10.24 5 15 C0 11 0 11 -1 9 C-8.26 8.67 -15.52 8.34 -23 8 C-23 7.67 -23 7.34 -23 7 C-12.605 6.505 -12.605 6.505 -2 6 C-1.34 4.02 -0.68 2.04 0 0 Z " fill="#9B9B9B" transform="translate(25,14)"/>
<path d="M0 0 C5.9129304 0.64270983 11.34244531 2.19003784 17 4 C17 4.66 17 5.32 17 6 C13.7 7.32 10.4 8.64 7 10 C4.33333333 7.33333333 1.66666667 4.66666667 -1 2 C-0.67 1.34 -0.34 0.68 0 0 Z " fill="#7B7B7B" transform="translate(11,25)"/>
<path d="M0 0 C1.41702513 0.14230808 2.8336096 0.28900746 4.25 0.4375 C5.43335937 0.55931641 5.43335937 0.55931641 6.640625 0.68359375 C8.82364639 0.97634993 10.8773182 1.42064419 13 2 C13 2.66 13 3.32 13 4 C12.07767578 4.20302734 12.07767578 4.20302734 11.13671875 4.41015625 C6.30217235 5.5661598 6.30217235 5.5661598 2.734375 8.7578125 C1.81325491 10.88302063 1.81325491 10.88302063 1 14 C0 11 0 11 0 7 C-0.93283296 4.79932579 -0.93283296 4.79932579 -2 3 C-1.34 3 -0.68 3 0 3 C0 2.01 0 1.02 0 0 Z " fill="#6D6D6D" transform="translate(76,27)"/>
<path d="M0 0 C1.65 0 3.3 0 5 0 C5 3.96 5 7.92 5 12 C4.34 12 3.68 12 3 12 C2.52046875 11.18144531 2.0409375 10.36289062 1.546875 9.51953125 C-1.38967634 6.6145073 -2.02631588 6.6229405 -5.984375 6.51171875 C-7.90685727 6.544865 -9.82902995 6.60436881 -11.75 6.6875 C-13.22533203 6.72133789 -13.22533203 6.72133789 -14.73046875 6.75585938 C-17.1551947 6.81471195 -19.57681983 6.89686569 -22 7 C-22 6.34 -22 5.68 -22 5 C-15.07 5 -8.14 5 -1 5 C-0.67 3.35 -0.34 1.7 0 0 Z " fill="#989898" transform="translate(85,16)"/>
<path d="M0 0 C0 0.66 0 1.32 0 2 C-1.54467773 3.32861328 -1.54467773 3.32861328 -3.68359375 4.8203125 C-4.44607422 5.35527344 -5.20855469 5.89023437 -5.99414062 6.44140625 C-6.80044922 6.99699219 -7.60675781 7.55257812 -8.4375 8.125 C-9.64116211 8.96998047 -9.64116211 8.96998047 -10.86914062 9.83203125 C-16.84861153 14 -16.84861153 14 -18 14 C-17.52060632 9.28596212 -17.03165952 5.33420699 -15 1 C-13.68776504 4.93670488 -14.75703744 7.12488144 -16 11 C-15.64808594 10.54109375 -15.29617187 10.0821875 -14.93359375 9.609375 C-10.97859375 4.69402251 -6.73895602 0 0 0 Z " fill="#555555" transform="translate(90,40)"/>
<path d="M0 0 C0.66 0.33 1.32 0.66 2 1 C-1.3 3.64 -4.6 6.28 -8 9 C-7.65775391 10.46373047 -7.65775391 10.46373047 -7.30859375 11.95703125 C-7.02113281 13.22933594 -6.73367187 14.50164063 -6.4375 15.8125 C-6.14746094 17.07707031 -5.85742188 18.34164062 -5.55859375 19.64453125 C-5 23 -5 23 -6 26 C-10.91295453 21.20687363 -10.91295453 21.20687363 -11.14453125 17.99609375 C-10.87669264 15.95042787 -10.4866567 14.00456213 -10 12 C-9.91105469 11.17242187 -9.82210937 10.34484375 -9.73046875 9.4921875 C-8.75685067 6.17043169 -7.21769034 5.18453813 -4.4375 3.1875 C-3.61121094 2.58292969 -2.78492187 1.97835938 -1.93359375 1.35546875 C-1.29550781 0.90816406 -0.65742187 0.46085937 0 0 Z " fill="#5E5E5E" transform="translate(113,25)"/>
<path d="M0 0 C0.66 0 1.32 0 2 0 C5.42857143 8.42857143 5.42857143 8.42857143 5 13 C2 13 2 13 0.25 11.3125 C-1 9 -1 9 -0.6875 6.25 C-0.460625 5.5075 -0.23375 4.765 0 4 C-1.65 4 -3.3 4 -5 4 C-5.33 3.34 -5.66 2.68 -6 2 C-4.02 2 -2.04 2 0 2 C0 1.34 0 0.68 0 0 Z " fill="#E7E7E7" transform="translate(40,33)"/>
<path d="M0 0 C7.92 0 15.84 0 24 0 C24 0.33 24 0.66 24 1 C17.4 1 10.8 1 4 1 C4 1.66 4 2.32 4 3 C4.70125 3.226875 5.4025 3.45375 6.125 3.6875 C9.69343613 5.31656867 12.06514511 7.40640731 15 10 C10.94428345 10 9.15798851 8.37131367 5.8125 6.125 C4.72582031 5.40570312 3.63914063 4.68640625 2.51953125 3.9453125 C1.68808594 3.30335937 0.85664062 2.66140625 0 2 C0 1.34 0 0.68 0 0 Z " fill="#121212" transform="translate(59,20)"/>
<path d="M0 0 C6.73742646 -0.11044961 13.29980211 0.29867087 20 1 C17.76083816 3.23916184 16.83435728 3.44356538 13.8125 4.0625 C13.01585937 4.22621094 12.21921875 4.38992187 11.3984375 4.55859375 C8.27301178 5.13379425 5.15226016 5.59758381 2 6 C2.66 5.67 3.32 5.34 4 5 C4 4.34 4 3.68 4 3 C4.99 2.67 5.98 2.34 7 2 C4.69 1.67 2.38 1.34 0 1 C0 0.67 0 0.34 0 0 Z " fill="#A0A0A0" transform="translate(37,21)"/>
<path d="M0 0 C-0.66386719 0.44730469 -1.32773437 0.89460938 -2.01171875 1.35546875 C-7.81912424 5.26465373 -7.81912424 5.26465373 -13 9.9375 C-13.66 10.618125 -14.32 11.29875 -15 12 C-15.66 12 -16.32 12 -17 12 C-16.67 10.35 -16.34 8.7 -16 7 C-15.34 7.66 -14.68 8.32 -14 9 C-13.484375 8.0925 -12.96875 7.185 -12.4375 6.25 C-9.56521382 1.93131256 -5.29828834 -1.76609611 0 0 Z " fill="#5C5C5C" transform="translate(27,44)"/>
<path d="M0 0 C7.26 0 14.52 0 22 0 C21.34 1.32 20.68 2.64 20 4 C19.01 4 18.02 4 17 4 C17.33 3.67 17.66 3.34 18 3 C12.06 2.34 6.12 1.68 0 1 C0 0.67 0 0.34 0 0 Z " fill="#1B1B1B" transform="translate(98,20)"/>
<path d="M0 0 C-0.22265625 1.85546875 -0.22265625 1.85546875 -1 4 C-2.99609375 5.30078125 -2.99609375 5.30078125 -5.4375 6.3125 C-6.64212891 6.83263672 -6.64212891 6.83263672 -7.87109375 7.36328125 C-10 8 -10 8 -12 7 C-10.90081184 6.01524786 -9.7954398 5.03739527 -8.6875 4.0625 C-8.07261719 3.51722656 -7.45773438 2.97195312 -6.82421875 2.41015625 C-4.61153083 0.69970584 -2.81130321 0 0 0 Z " fill="#ADADAD" transform="translate(30,38)"/>
<path d="M0 0 C5.77759884 -0.12036664 11.27959989 0.1679418 17 1 C12.68630028 3.87579981 9.19265239 5 4 5 C4 4.34 4 3.68 4 3 C4.99 2.67 5.98 2.34 7 2 C4.69 1.67 2.38 1.34 0 1 C0 0.67 0 0.34 0 0 Z " fill="#999999" transform="translate(98,21)"/>
<path d="M0 0 C3.63 0.66 7.26 1.32 11 2 C11 2.99 11 3.98 11 5 C5.62694301 5.44041451 5.62694301 5.44041451 3 5 C1 2.5 1 2.5 0 0 Z " fill="#B9B9B9" transform="translate(92,31)"/>
<path d="M0 0 C0 0.66 0 1.32 0 2 C-3.01642453 4.78439188 -6.12916607 5.7903644 -10 7 C-11.34721283 7.63815344 -12.68747118 8.29325371 -14 9 C-10.58268355 4.07906431 -6.29241474 0 0 0 Z " fill="#9B9B9B" transform="translate(90,40)"/>
<path d="M0 0 C0.66 0 1.32 0 2 0 C2 1.98 2 3.96 2 6 C-3.625 9 -3.625 9 -7 9 C-6.401875 8.443125 -5.80375 7.88625 -5.1875 7.3125 C-2.90405244 5.06999978 -2.90405244 5.06999978 -1.375 2.25 C-0.92125 1.5075 -0.4675 0.765 0 0 Z " fill="#E4E4E4" transform="translate(28,32)"/>
<path d="M0 0 C1.62566606 0.47690204 3.25051311 0.95659666 4.875 1.4375 C5.77992187 1.70433594 6.68484375 1.97117187 7.6171875 2.24609375 C10 3 10 3 12 4 C12 4.66 12 5.32 12 6 C6.57857143 6.36964286 6.57857143 6.36964286 3.75 4.5625 C3.1725 4.046875 2.595 3.53125 2 3 C1.34 2.67 0.68 2.34 0 2 C0 1.34 0 0.68 0 0 Z " fill="#BFBFBF" transform="translate(28,29)"/>
<path d="M0 0 C0.66 0 1.32 0 2 0 C1.36378211 2.71382568 0.57750555 5.28487899 -0.41015625 7.890625 C-0.67763672 8.59960938 -0.94511719 9.30859375 -1.22070312 10.0390625 C-1.49849609 10.76867188 -1.77628906 11.49828125 -2.0625 12.25 C-2.34416016 12.99507812 -2.62582031 13.74015625 -2.91601562 14.5078125 C-3.6086913 16.33929393 -4.30407907 18.16974923 -5 20 C-6.02826931 16.86332092 -5.99386675 15.16815258 -4.78515625 12.109375 C-4.37426758 11.04589844 -4.37426758 11.04589844 -3.95507812 9.9609375 C-3.66052734 9.23132812 -3.36597656 8.50171875 -3.0625 7.75 C-2.77181641 7.00492187 -2.48113281 6.25984375 -2.18164062 5.4921875 C-1.46426278 3.65758186 -0.73342561 1.82824935 0 0 Z " fill="#2E2E2E" transform="translate(29,0)"/>
<path d="M0 0 C-0.33 1.32 -0.66 2.64 -1 4 C-1.9075 4.12375 -2.815 4.2475 -3.75 4.375 C-6.58970323 4.92109677 -8.52590591 5.57263803 -11 7 C-5.65789474 0 -5.65789474 0 0 0 Z " fill="#C9C9C9" transform="translate(91,37)"/>
<path d="M0 0 C2.1519437 3.22791555 2.20086443 4.28400809 2 8 C1.01 8 0.02 8 -1 8 C-1.66 6.35 -2.32 4.7 -3 3 C-2.01 2.67 -1.02 2.34 0 2 C0 1.34 0 0.68 0 0 Z " fill="#B5B5B5" transform="translate(43,38)"/>
<path d="M0 0 C0.33 0.66 0.66 1.32 1 2 C1.99 2.33 2.98 2.66 4 3 C4 5.64 4 8.28 4 11 C3.67 11 3.34 11 3 11 C3 9.35 3 7.7 3 6 C1.68 6.33 0.36 6.66 -1 7 C-0.67 4.69 -0.34 2.38 0 0 Z " fill="#D7D7D7" transform="translate(87,10)"/>
<path d="M0 0 C2.31 0.33 4.62 0.66 7 1 C6.01 2.32 5.02 3.64 4 5 C1.525 4.01 1.525 4.01 -1 3 C-0.67 2.01 -0.34 1.02 0 0 Z " fill="#BBBBBB" transform="translate(11,25)"/>
<path d="M0 0 C0.33 0.66 0.66 1.32 1 2 C1.66 2 2.32 2 3 2 C4.35439668 4.70879335 4.06501451 7.00933268 4 10 C1.28312788 7.65361044 0.05484124 5.42823404 -1 2 C-0.67 1.34 -0.34 0.68 0 0 Z " fill="#636363" transform="translate(45,44)"/>
<path d="M0 0 C1.98 0 3.96 0 6 0 C6.33 0.66 6.66 1.32 7 2 C6.34 2.66 5.68 3.32 5 4 C5 4.66 5 5.32 5 6 C4.01 5.67 3.02 5.34 2 5 C1.67 4.34 1.34 3.68 1 3 C1.33 2.34 1.66 1.68 2 1 C1.34 0.67 0.68 0.34 0 0 Z " fill="#EAEAEA" transform="translate(86,31)"/>
<path d="M0 0 C2.9719385 1.12451727 5.33440687 2.22293791 8 4 C8.66 3.34 9.32 2.68 10 2 C10.33 3.65 10.66 5.3 11 7 C6.89188572 5.55007731 3.53144334 3.54592427 0 1 C0 0.67 0 0.34 0 0 Z " fill="#191919" transform="translate(40,49)"/>
<path d="M0 0 C0.66 0.33 1.32 0.66 2 1 C0.68 1.33 -0.64 1.66 -2 2 C-1.67 2.99 -1.34 3.98 -1 5 C-3.64 5.33 -6.28 5.66 -9 6 C-3.30379747 1.25316456 -3.30379747 1.25316456 0 0 Z " fill="#C2C2C2" transform="translate(104,22)"/>
<path d="M0 0 C0.66 0 1.32 0 2 0 C2 2.31 2 4.62 2 7 C1.34 7 0.68 7 0 7 C-0.66 5.35 -1.32 3.7 -2 2 C-1.34 1.34 -0.68 0.68 0 0 Z " fill="#848484" transform="translate(88,21)"/>
<path d="M0 0 C0.66 0.33 1.32 0.66 2 1 C2.625 3.5625 2.625 3.5625 3 6 C1.68 6.33 0.36 6.66 -1 7 C-0.67 4.69 -0.34 2.38 0 0 Z " fill="#E0E0E0" transform="translate(27,9)"/>
<path d="M0 0 C-0.99 0.33 -1.98 0.66 -3 1 C-3 1.99 -3 2.98 -3 4 C-5.86724686 3.42655063 -6.8614515 3.1385485 -9 1 C-5.8035914 -0.06546953 -3.34252724 -0.07427838 0 0 Z " fill="#B3B3B3" transform="translate(79,26)"/>
<path d="M0 0 C0.66 0 1.32 0 2 0 C2 2.31 2 4.62 2 7 C0.68 6.01 -0.64 5.02 -2 4 C-1.34 2.68 -0.68 1.36 0 0 Z " fill="#808080" transform="translate(28,22)"/>
<path d="M0 0 C0 0.99 0 1.98 0 3 C-2.64 3 -5.28 3 -8 3 C-5.36657694 0.36657694 -3.69534435 0 0 0 Z " fill="#D3D3D3" transform="translate(103,33)"/>
<path d="M0 0 C-0.99 0.33 -1.98 0.66 -3 1 C-4.20882096 3.00016466 -4.20882096 3.00016466 -5 5 C-5.99 4.34 -6.98 3.68 -8 3 C-5.53387212 -0.1151089 -3.89156016 -0.31553191 0 0 Z " fill="#8F8F8F" transform="translate(22,27)"/>
<path d="M0 0 C2.31 0 4.62 0 7 0 C4.37801226 2.15377564 2.35595828 3.40072174 -1 4 C-0.67 2.68 -0.34 1.36 0 0 Z " fill="#EEEEEE" transform="translate(36,22)"/>
</svg>
