<?xml version="1.0" encoding="UTF-8"?>
<svg version="1.1" xmlns="http://www.w3.org/2000/svg" width="30" height="75">
<path d="M0 0 C9.9 0 19.8 0 30 0 C30 24.75 30 49.5 30 75 C20.1 75 10.2 75 0 75 C0 50.25 0 25.5 0 0 Z " fill="#9CAAB1" transform="translate(0,0)"/>
<path d="M0 0 C2.97 0 5.94 0 9 0 C8.67 8.58 8.34 17.16 8 26 C7.67 25.01 7.34 24.02 7 23 C0.4 22.67 -6.2 22.34 -13 22 C-12.92606142 25.95188954 -12.843302 29.90201149 -12.73754883 33.85302734 C-12.68790041 35.85882336 -12.65345836 37.86497687 -12.61914062 39.87109375 C-12.58369141 41.12792969 -12.54824219 42.38476562 -12.51171875 43.6796875 C-12.48553467 44.84226074 -12.45935059 46.00483398 -12.43237305 47.20263672 C-12.28968994 48.1257666 -12.14700684 49.04889648 -12 50 C-8.29345962 52.47102692 -5.18026052 52.44340729 -0.875 52.625 C-0.13378906 52.66367187 0.60742188 52.70234375 1.37109375 52.7421875 C4.68380286 52.92761501 4.68380286 52.92761501 8 53 C8.06058594 54.20398437 8.12117188 55.40796875 8.18359375 56.6484375 C8.26799732 58.22397077 8.35264541 59.79949096 8.4375 61.375 C8.47681641 62.1690625 8.51613281 62.963125 8.55664062 63.78125 C8.68893404 68.02601221 8.68893404 68.02601221 10 72 C3.73 72 -2.54 72 -9 72 C-9.33 71.01 -9.66 70.02 -10 69 C-12.97 69.495 -12.97 69.495 -16 70 C-16 47.23 -16 24.46 -16 1 C-10.72 1 -5.44 1 0 1 C0 0.67 0 0.34 0 0 Z " fill="#BAC5CB" transform="translate(18,2)"/>
<path d="M0 0 C9.9 0 19.8 0 30 0 C30 24.75 30 49.5 30 75 C20.1 75 10.2 75 0 75 C0 50.25 0 25.5 0 0 Z M18 2 C18 2.33 18 2.66 18 3 C12.72 3 7.44 3 2 3 C2 25.77 2 48.54 2 72 C4.97 71.505 4.97 71.505 8 71 C8.33 71.99 8.66 72.98 9 74 C15.27 74 21.54 74 28 74 C27.505 38.36 27.505 38.36 27 2 C24.03 2 21.06 2 18 2 Z " fill="#2F373C" transform="translate(0,0)"/>
<path d="M0 0 C2.97 0 5.94 0 9 0 C8.67 8.58 8.34 17.16 8 26 C7.67 26 7.34 26 7 26 C6.87625 24.88625 6.7525 23.7725 6.625 22.625 C6.3534187 18.96896323 6.3534187 18.96896323 4 17 C1.63804589 16.39397335 1.63804589 16.39397335 -1 16 C-5.77777778 15.22222222 -5.77777778 15.22222222 -8 13 C-10.57061311 12.35232207 -10.57061311 12.35232207 -13 12 C-13 13.65 -13 15.3 -13 17 C-13.33 17 -13.66 17 -14 17 C-14 12.05 -14 7.1 -14 2 C-9.38 1.67 -4.76 1.34 0 1 C0 0.67 0 0.34 0 0 Z " fill="#D6E4EB" transform="translate(18,2)"/>
<path d="M0 0 C0.33 0 0.66 0 1 0 C1.03738281 0.77085938 1.07476562 1.54171875 1.11328125 2.3359375 C1.17902344 3.33882812 1.24476563 4.34171875 1.3125 5.375 C1.37050781 6.37273438 1.42851563 7.37046875 1.48828125 8.3984375 C1.65714844 9.25695313 1.82601563 10.11546875 2 11 C5.70654038 13.47102692 8.81973948 13.44340729 13.125 13.625 C13.86621094 13.66367187 14.60742188 13.70234375 15.37109375 13.7421875 C18.68380286 13.92761501 18.68380286 13.92761501 22 14 C22 19.28 22 24.56 22 30 C18.7 30 15.4 30 12 30 C12 29.67 12 29.34 12 29 C13.65 29 15.3 29 17 29 C17 28.34 17 27.68 17 27 C11.39 26.67 5.78 26.34 0 26 C0 17.42 0 8.84 0 0 Z " fill="#CCDBE3" transform="translate(4,41)"/>
<path d="M0 0 C5 0 5 0 7 1.875 C7.66 2.57625 8.32 3.2775 9 4 C10.64991582 4.70710678 12.31562256 5.37943989 14 6 C14.66 6.66 15.32 7.32 16 8 C17.32 8.33 18.64 8.66 20 9 C20 13.62 20 18.24 20 23 C17.03 22.67 14.06 22.34 11 22 C11 21.34 11 20.68 11 20 C10.01 20 9.02 20 8 20 C8 19.34 8 18.68 8 18 C7.38125 17.9175 6.7625 17.835 6.125 17.75 C4 17 4 17 2.875 15 C2.58625 14.34 2.2975 13.68 2 13 C1.34 12.67 0.68 12.34 0 12 C0 8.04 0 4.08 0 0 Z " fill="#657A86" transform="translate(5,26)"/>
<path d="M0 0 C2.39591038 -0.02712351 4.79150957 -0.0468982 7.1875 -0.0625 C7.86103516 -0.07087891 8.53457031 -0.07925781 9.22851562 -0.08789062 C12.95434131 -0.10606538 16.3788042 0.10700608 20 1 C20 4.3 20 7.6 20 11 C15.25 10.25 15.25 10.25 13 8 C12.195625 7.690625 11.39125 7.38125 10.5625 7.0625 C8 6 8 6 6.5 4.4375 C4.49293911 2.51406665 2.70332474 2.36531415 0 2 C0 1.34 0 0.68 0 0 Z " fill="#8497A2" transform="translate(5,24)"/>
<path d="M0 0 C3.624581 1.20819367 3.40170957 1.80341913 5 5 C5.99 5.33 6.98 5.66 8 6 C8 6.66 8 7.32 8 8 C8.99 8 9.98 8 11 8 C11 8.66 11 9.32 11 10 C13.97 10.33 16.94 10.66 20 11 C20 12.65 20 14.3 20 16 C18.63875 15.0409375 18.63875 15.0409375 17.25 14.0625 C12.84247414 11.48690875 8.49062977 11.3935137 3.4765625 11.17578125 C1 11 1 11 0 10 C-0.07205511 8.31391034 -0.08386068 6.62499341 -0.0625 4.9375 C-0.05347656 4.01839844 -0.04445313 3.09929688 -0.03515625 2.15234375 C-0.02355469 1.44207031 -0.01195312 0.73179688 0 0 Z " fill="#94A6B1" transform="translate(5,38)"/>
<path d="M0 0 C6.27 0 12.54 0 19 0 C19.33 1.65 19.66 3.3 20 5 C13.4 4.67 6.8 4.34 0 4 C0 2.68 0 1.36 0 0 Z " fill="#A5B7C1" transform="translate(5,20)"/>
<path d="M0 0 C1.65 0 3.3 0 5 0 C5.66 0.66 6.32 1.32 7 2 C9.58090067 2.61838552 12.16539655 3.01653431 14.78515625 3.4375 C15.88150391 3.7159375 15.88150391 3.7159375 17 4 C17.33 4.66 17.66 5.32 18 6 C12.06 6 6.12 6 0 6 C-0.33 7.32 -0.66 8.64 -1 10 C-0.67 6.7 -0.34 3.4 0 0 Z " fill="#B9CAD3" transform="translate(5,14)"/>
<path d="M0 0 C8.91 0 17.82 0 27 0 C26.67 0.66 26.34 1.32 26 2 C24.02 2 22.04 2 20 2 C20 2.33 20 2.66 20 3 C17.04112541 3.08069658 14.0844341 3.14034665 11.125 3.1875 C10.28324219 3.21263672 9.44148437 3.23777344 8.57421875 3.26367188 C7.76855469 3.27333984 6.96289062 3.28300781 6.1328125 3.29296875 C5.38918457 3.3086792 4.64555664 3.32438965 3.87939453 3.34057617 C2.94909424 3.17199097 2.94909424 3.17199097 2 3 C1.34 2.01 0.68 1.02 0 0 Z " fill="#7C868C" transform="translate(1,1)"/>
<path d="M0 0 C2.95887459 -0.08069658 5.9155659 -0.14034665 8.875 -0.1875 C9.71675781 -0.21263672 10.55851562 -0.23777344 11.42578125 -0.26367188 C12.23144531 -0.27333984 13.03710938 -0.28300781 13.8671875 -0.29296875 C14.98262939 -0.31653442 14.98262939 -0.31653442 16.12060547 -0.34057617 C17.05090576 -0.17199097 17.05090576 -0.17199097 18 0 C18.66 0.99 19.32 1.98 20 3 C13.73 3 7.46 3 1 3 C0.67 2.01 0.34 1.02 0 0 Z " fill="#A2A9AD" transform="translate(8,71)"/>
<path d="M0 0 C3.624581 1.20819367 3.40170957 1.80341913 5 5 C5.99 5.33 6.98 5.66 8 6 C8 6.66 8 7.32 8 8 C2.25 8.125 2.25 8.125 0 7 C0 4.69 0 2.38 0 0 Z " fill="#8497A2" transform="translate(5,38)"/>
<path d="M0 0 C2.64 0.33 5.28 0.66 8 1 C8 1.66 8 2.32 8 3 C4.16275828 3.90413673 0.62497726 4.10576898 -3.3125 4.0625 C-4.38113281 4.05347656 -5.44976562 4.04445313 -6.55078125 4.03515625 C-7.35902344 4.02355469 -8.16726562 4.01195313 -9 4 C-9 3.67 -9 3.34 -9 3 C-6.03 3 -3.06 3 0 3 C0 2.01 0 1.02 0 0 Z " fill="#B8C6CD" transform="translate(13,67)"/>
<path d="M0 0 C2.10494301 0.08708038 4.20902142 0.19525693 6.3125 0.3125 C8.07013672 0.39951172 8.07013672 0.39951172 9.86328125 0.48828125 C13.0983686 1.01604768 14.08684881 1.42380724 16 4 C13.70800823 3.85936865 11.41640814 3.71234057 9.125 3.5625 C7.84882813 3.48128906 6.57265625 3.40007813 5.2578125 3.31640625 C2 3 2 3 0 2 C0 1.34 0 0.68 0 0 Z " fill="#A0B2BC" transform="translate(5,48)"/>
<path d="M0 0 C2.64 0.33 5.28 0.66 8 1 C8 1.99 8 2.98 8 4 C5.36 4 2.72 4 0 4 C0 2.68 0 1.36 0 0 Z " fill="#8EA1AC" transform="translate(5,66)"/>
<path d="M0 0 C0.33 1.32 0.66 2.64 1 4 C1.99 4.33 2.98 4.66 4 5 C5.1875 7.5625 5.1875 7.5625 6 10 C4.02 10 2.04 10 0 10 C0 6.7 0 3.4 0 0 Z " fill="#DFECF3" transform="translate(4,53)"/>
<path d="M0 0 C2.25 -0.3125 2.25 -0.3125 5 0 C7.3125 2.5 7.3125 2.5 9 5 C5.93606987 5.25532751 4.36766788 5.21861333 1.6875 3.625 C1.130625 3.08875 0.57375 2.5525 0 2 C0 1.34 0 0.68 0 0 Z " fill="#6C818D" transform="translate(5,26)"/>
<path d="M0 0 C2.625 -0.1875 2.625 -0.1875 5 0 C5.33 0.99 5.66 1.98 6 3 C3.36 3 0.72 3 -2 3 C-1.34 2.01 -0.68 1.02 0 0 Z " fill="#616F78" transform="translate(3,71)"/>
</svg>
