<?xml version="1.0" encoding="UTF-8"?>
<svg version="1.1" xmlns="http://www.w3.org/2000/svg" width="75" height="74">
<path d="M0 0 C3.4102103 2.77868988 4.90970345 6.61927689 6.75 10.5 C12.89562042 23.02275395 20.45849331 36.27703134 32.14306641 44.51000977 C35.52421686 46.96892616 37.68639516 48.61879142 38.63647461 52.80322266 C38.78666178 56.05060862 38.70024016 59.1932243 38.5 62.4375 C38.46390625 63.55060547 38.4278125 64.66371094 38.390625 65.81054688 C38.29677387 68.54396097 38.16565759 71.27015413 38 74 C23.62575057 65.42105702 10.72239103 54.71106428 1 41 C-2.2268251 44.12273396 -5.22326745 47.37582039 -8.1875 50.75 C-16.4440716 59.93152525 -25.6203694 67.37770174 -36 74 C-36.33 74 -36.66 74 -37 74 C-39.38157647 54.18039848 -39.38157647 54.18039848 -35.68896484 47.69873047 C-32.26681046 43.71468523 -28.09118871 40.65285505 -23.90185547 37.51953125 C-13.50695026 29.21428221 -7.76569117 15.6441273 -2 4 C-1.33373751 2.66646466 -0.66718902 1.33307203 0 0 Z " fill="#030404" transform="translate(37,0)"/>
<path d="M0 0 C3.03028295 2.67043685 4.91770158 5.96667464 7 9.375 C13.62555173 19.91690324 22.63999914 33.31999957 34 39 C34 42.63 34 46.26 34 50 C20.50234248 41.59162318 9.40877144 30.52715406 1 17 C0.43023437 17.72445313 -0.13953125 18.44890625 -0.7265625 19.1953125 C-3.61897983 22.76362117 -6.69922361 26.13372025 -9.79296875 29.52734375 C-11.5132462 31.45466344 -13.10342774 33.40223688 -14.6875 35.4375 C-19.50439228 41.16272053 -25.99479269 45.60148392 -32 50 C-32.33 50 -32.66 50 -33 50 C-33.63340367 46.17142669 -33.81110059 42.81217278 -33 39 C-30.8435142 36.55598276 -28.52311521 34.92896765 -25.8515625 33.06640625 C-14.55060139 24.87707964 -6.98787618 11.81872305 0 0 Z " fill="#BFE1E1" transform="translate(37,14)"/>
</svg>
