<?xml version="1.0" encoding="UTF-8"?>
<svg version="1.1" xmlns="http://www.w3.org/2000/svg" width="75" height="87">
<path d="M0 0 C3.3401215 1.67006075 4.11567143 5.45642659 5.5625 8.75 C11.2333523 21.15880744 19.94889305 37.06664977 32.10302734 44.24145508 C35.25022016 46.27699278 37.57318031 48.05884742 38.41213989 51.87438965 C39.01124896 57.55443701 38.72661545 63.242718 38.5 68.9375 C38.4598352 70.68806993 38.42333966 72.43872812 38.390625 74.18945312 C38.30282713 78.46182662 38.16500196 82.72993957 38 87 C32.54066885 85.31519404 28.60317135 82.98036397 24 79.6875 C23.26467041 79.16639648 22.52934082 78.64529297 21.77172852 78.10839844 C14.27526011 72.67549659 7.59417798 66.47922401 1 60 C-2.34615254 62.8538351 -5.68055977 65.71549197 -8.96484375 68.640625 C-14.91672685 73.86514262 -20.96309944 78.4903451 -27.6875 82.6875 C-28.38286865 83.1215918 -29.0782373 83.55568359 -29.79467773 84.00292969 C-34.72271763 87 -34.72271763 87 -37 87 C-39.60781952 52.22372373 -39.60781952 52.22372373 -34.01171875 44.8828125 C-30.96446905 41.90040637 -27.50483346 39.57247294 -23.90185547 37.31005859 C-13.26985496 29.98639817 -7.52814315 15.16438613 -2 4 C-1.33373751 2.66646466 -0.66718902 1.33307203 0 0 Z " fill="#040505" transform="translate(37,0)"/>
<path d="M0 0 C3.03028295 2.67043685 4.91770158 5.96667464 7 9.375 C13.62555173 19.91690324 22.63999914 33.31999957 34 39 C34 42.63 34 46.26 34 50 C20.50234248 41.59162318 9.40877144 30.52715406 1 17 C0.43152344 17.72316406 -0.13695312 18.44632813 -0.72265625 19.19140625 C-2.88410946 21.85707496 -5.12601246 24.40167398 -7.4375 26.9375 C-9.85671678 29.5958938 -12.17117844 32.22073009 -14.375 35.0625 C-19.68605659 41.00582523 -26.07982987 46.05098987 -33 50 C-33.63340367 46.17142669 -33.81110059 42.81217278 -33 39 C-30.8435142 36.55598276 -28.52311521 34.92896765 -25.8515625 33.06640625 C-14.55060139 24.87707964 -6.98787618 11.81872305 0 0 Z " fill="#BDDFDF" transform="translate(37,14)"/>
<path d="M0 0 C3.27479244 3.16915398 6.34143965 6.47326394 9.375 9.875 C16.29289903 17.71310024 16.29289903 17.71310024 24.32421875 24.3359375 C33.62845176 30.82632425 33.62845176 30.82632425 34.8359375 34.640625 C34.8125 37.125 34.8125 37.125 34 41 C20.91237702 34.98160403 10.74905522 24.28494409 1 14 C-3.05490536 17.38942214 -6.8814434 20.82639522 -10.5 24.6875 C-14.70661183 28.952537 -19.17223189 32.58198537 -24 36.125 C-24.65935547 36.61057373 -25.31871094 37.09614746 -25.99804688 37.59643555 C-30.73408371 41 -30.73408371 41 -33 41 C-33.87075005 37.20601763 -34.18777939 35.6266864 -33 32 C-29.87107321 28.95377612 -26.48925383 26.51584437 -22.95703125 23.96484375 C-14.04409306 17.48369913 -6.22177119 9.06600945 0 0 Z " fill="#BDDFDF" transform="translate(37,37)"/>
</svg>
