<?xml version="1.0" encoding="UTF-8"?>
<svg version="1.1" xmlns="http://www.w3.org/2000/svg" width="75" height="99">
<path d="M0 0 C3.23611541 1.61805771 3.82482603 5.09899352 5.125 8.3125 C10.00930432 19.85057986 18.89384119 37.27738642 30.55712891 43.32617188 C33.97679261 45.26779912 35.77911969 46.71550375 38 50 C39.73665146 57.79771783 38.93403367 66.08057497 38.625 74 C38.57480323 76.2277652 38.52918218 78.4556385 38.48828125 80.68359375 C38.37844683 86.1247651 38.2114675 91.56188065 38 97 C33.92607077 96.10658478 30.66939629 94.26111136 27.125 92.125 C26.47096191 91.73296387 25.81692383 91.34092773 25.14306641 90.93701172 C19.06325122 87.20153823 13.5387182 82.89561467 8.0234375 78.3828125 C5.42757867 76.33698061 2.87648095 74.6146789 0 73 C-0.86238281 73.72703125 -1.72476563 74.4540625 -2.61328125 75.203125 C-9.88168181 81.22629311 -17.32370403 86.71214411 -25.3125 91.75 C-26.14241455 92.2749707 -26.9723291 92.79994141 -27.82739258 93.34082031 C-33.72907759 97 -33.72907759 97 -36 97 C-36.2802547 90.32986893 -36.47207112 83.66126685 -36.60424805 76.98657227 C-36.6593716 74.71939376 -36.73429757 72.45260291 -36.82983398 70.18676758 C-37.64859156 50.26074773 -37.64859156 50.26074773 -33.68481445 45.65869141 C-30.89698284 43.41726823 -28.13521418 41.7071571 -25 40 C-13.32684776 29.35795681 -6.28894088 14.2090758 0 0 Z " fill="#050606" transform="translate(37,1)"/>
<path d="M0 0 C2.98597272 2.79165779 5.09730226 5.55819317 7.1875 9.0625 C13.08174713 18.50840886 20.69824583 29.29957624 30.21484375 35.42578125 C32 37 32 37 32.390625 39.26171875 C32.34421875 40.06222656 32.2978125 40.86273438 32.25 41.6875 C32.21390625 42.49574219 32.1778125 43.30398437 32.140625 44.13671875 C32.09421875 44.75160156 32.0478125 45.36648437 32 46 C25.72761446 43.89060344 21.7187603 39.47353339 17 35 C16.37738281 34.43023437 15.75476562 33.86046875 15.11328125 33.2734375 C9.66603764 28.11823725 5.384221 22.05440042 1 16 C-1.75376881 18.65735677 -4.12939917 21.38916193 -6.4375 24.4375 C-9.93808803 28.85099935 -13.67546149 32.9294748 -17.625 36.9375 C-18.16310303 37.49300537 -18.70120605 38.04851074 -19.25561523 38.62084961 C-22.56660186 41.92778424 -25.64026028 44.12125331 -30 46 C-30.955495 38.52632621 -30.955495 38.52632621 -28.86474609 35.18652344 C-27.21526876 33.47274001 -25.49549407 31.92057717 -23.6875 30.375 C-14.07172617 21.49984274 -6.6550478 11.24473594 0 0 Z " fill="#C1E4E4" transform="translate(37,15)"/>
<path d="M0 0 C3.66381479 2.74306552 6.40193753 5.56574617 9.1875 9.1875 C14.83620949 16.22492877 21.07889942 22.1116192 28.625 27.0625 C30.92560036 28.7024862 31.85446974 29.36590388 32.4921875 32.14453125 C32.5 34.375 32.5 34.375 32 38 C27.29386284 36.70080208 24.26544582 34.91013373 20.5625 31.75 C19.60988281 30.94175781 18.65726563 30.13351563 17.67578125 29.30078125 C16.79277344 28.54152344 15.90976562 27.78226563 15 27 C14.33355469 26.45730469 13.66710938 25.91460937 12.98046875 25.35546875 C8.47564994 21.66416124 4.72824532 17.46482874 1 13 C0.34 13.66 -0.32 14.32 -1 15 C-1.69609375 15.69029297 -1.69609375 15.69029297 -2.40625 16.39453125 C-3.50523971 17.50160177 -4.58775764 18.6251856 -5.65625 19.76171875 C-9.72772614 24.01434108 -14.04591397 27.76873388 -18.6875 31.375 C-19.50734375 32.01828247 -19.50734375 32.01828247 -20.34375 32.67456055 C-23.42925181 35.02669263 -26.32063107 36.75761569 -30 38 C-30.78498744 34.25621373 -31.1273712 32.5726552 -30 29 C-26.50496655 25.59900333 -22.61346948 22.94024547 -18.61523438 20.16699219 C-11.20650014 14.8142489 -5.6284359 7.08766002 0 0 Z " fill="#C0E2E2" transform="translate(37,37)"/>
<path d="M0 0 C0.99 0.33 1.98 0.66 3 1 C3 1.66 3 2.32 3 3 C3.57105469 3.2475 4.14210937 3.495 4.73046875 3.75 C7.35523969 5.19565697 9.15856226 6.91674416 11.3125 9 C14.40552284 11.89362257 17.36354934 14.30746247 20.98828125 16.5 C21.67172607 16.91765625 22.3551709 17.3353125 23.05932617 17.765625 C24.41406928 18.57517247 25.7853996 19.35771317 27.1730957 20.109375 C29.12994955 21.28585437 30.55893928 22.2232569 32 24 C32.56543658 27.08325417 32.41727868 29.90455087 32 33 C28.9106931 32.38812068 26.81388657 31.39757076 24.2421875 29.59375 C23.53827881 29.10100586 22.83437012 28.60826172 22.10913086 28.10058594 C21.37186768 27.57239258 20.63460449 27.04419922 19.875 26.5 C19.12033447 25.96407227 18.36566895 25.42814453 17.58813477 24.87597656 C11.67934667 20.62078848 6.22373879 16.08255666 1 11 C-3.05527359 13.94438747 -6.98370857 16.93249417 -10.6875 20.3125 C-14.23394102 23.46961117 -17.98515635 26.22587894 -21.875 28.9375 C-22.44694092 29.3394458 -23.01888184 29.7413916 -23.6081543 30.15551758 C-27.75137973 33 -27.75137973 33 -30 33 C-30.73712377 29.78345991 -30.8835147 27.19962102 -30 24 C-26.7374656 20.7374656 -22.87556895 18.47387206 -19 16 C-12.38172477 10.99713218 -6.13888442 5.57541194 0 0 Z " fill="#C0E2E2" transform="translate(37,56)"/>
</svg>
